<?xml version="1.0" standalone="yes"?>
<svg xmlns="http://www.w3.org/2000/svg" width="144" height="250">
<path style="fill:#000000; stroke:none;" d="M0 0L0 250L144 250L144 0L0 0z"/>
<path style="fill:#d79a9c; stroke:none;" d="M57 9C58.2483 9.68474 58.5485 9.74881 60 10C58.7516 9.31516 58.4517 9.25122 57 9z"/>
<path style="fill:#cf8586; stroke:none;" d="M50.6667 10.3333C50.2222 10.7778 51.2778 10.7222 51.3333 10.6667C51.7778 10.2222 50.7222 10.2778 50.6667 10.3333z"/>
<path style="fill:#af363f; stroke:none;" d="M52.6667 10.3333C52.2222 10.7778 53.2778 10.7222 53.3333 10.6667C53.7778 10.2222 52.7222 10.2778 52.6667 10.3333z"/>
<path style="fill:#a71c21; stroke:none;" d="M22 20C56.3467 20 90.717 19.5581 125 21C120.424 16.0436 112.341 15.4586 106 13.8735C93.9389 10.8582 83.3333 11.1429 71 10.9961C61.4481 10.8825 53.4957 10.0424 44 12.3742C37.8032 13.896 25.975 14.7549 22 20z"/>
<path style="fill:#a41016; stroke:none;" d="M64 10C70.9279 12.9071 81.503 11 89 11C82.0721 8.09294 71.497 10 64 10z"/>
<path style="fill:#c56b70; stroke:none;" d="M91 10C92.2484 10.6848 92.5484 10.7488 94 11C92.7517 10.3152 92.4515 10.2512 91 10z"/>
<path style="fill:#c56b70; stroke:none;" d="M96.6667 11.3333C96.2222 11.7778 97.2778 11.7222 97.3333 11.6667C97.7777 11.2223 96.7222 11.2778 96.6667 11.3333z"/>
<path style="fill:#d79a9c; stroke:none;" d="M42 12L43 13L42 12z"/>
<path style="fill:#c0575c; stroke:none;" d="M43 12L44 13L43 12z"/>
<path style="fill:#cf8586; stroke:none;" d="M100.667 12.3333C100.222 12.7778 101.278 12.7222 101.333 12.6667C101.778 12.2222 100.722 12.2778 100.667 12.3333z"/>
<path style="fill:#c56b70; stroke:none;" d="M38.6667 13.3333C38.2222 13.7778 39.2778 13.7222 39.3333 13.6667C39.7778 13.2222 38.7222 13.2778 38.6667 13.3333z"/>
<path style="fill:#cf8586; stroke:none;" d="M104.667 13.3333C104.222 13.7778 105.278 13.7222 105.333 13.6667C105.778 13.2222 104.722 13.2778 104.667 13.3333z"/>
<path style="fill:#ebaeb6; stroke:none;" d="M34 14L35 15L34 14z"/>
<path style="fill:#c56b70; stroke:none;" d="M35 14L36 15L35 14z"/>
<path style="fill:#d79a9c; stroke:none;" d="M108.667 14.3333C108.222 14.7778 109.278 14.7222 109.333 14.6667C109.778 14.2222 108.722 14.2778 108.667 14.3333z"/>
<path style="fill:#cf8586; stroke:none;" d="M31 15L32 16L31 15z"/>
<path style="fill:#d79a9c; stroke:none;" d="M112.667 15.3333C112.222 15.7778 113.278 15.7222 113.333 15.6667C113.778 15.2223 112.722 15.2778 112.667 15.3333z"/>
<path style="fill:#c0575c; stroke:none;" d="M27.6667 16.3333C27.2222 16.7778 28.2778 16.7222 28.3333 16.6667C28.7778 16.2222 27.7222 16.2778 27.6667 16.3333z"/>
<path style="fill:#c56b70; stroke:none;" d="M116 16L117 17L116 16z"/>
<path style="fill:#ebaeb6; stroke:none;" d="M117 16L118 17L117 16z"/>
<path style="fill:#e9c4c1; stroke:none;" d="M22 17L23 18L22 17z"/>
<path style="fill:#c0575c; stroke:none;" d="M23.6667 17.3333C23.2222 17.7778 24.2778 17.7222 24.3333 17.6667C24.7778 17.2222 23.7222 17.2778 23.6667 17.3333z"/>
<path style="fill:#cf8586; stroke:none;" d="M120 17L121 18L120 17z"/>
<path style="fill:#d79a9c; stroke:none;" d="M18.6667 18.3333C18.2222 18.7778 19.2778 18.7222 19.3333 18.6667C19.7778 18.2222 18.7222 18.2778 18.6667 18.3333z"/>
<path style="fill:#af363f; stroke:none;" d="M20.6667 18.3333C20.2222 18.7778 21.2778 18.7222 21.3333 18.6667C21.7778 18.2222 20.7222 18.2778 20.6667 18.3333z"/>
<path style="fill:#cf8586; stroke:none;" d="M123.667 18.3333C123.222 18.7778 124.278 18.7222 124.333 18.6667C124.778 18.2222 123.722 18.2778 123.667 18.3333z"/>
<path style="fill:#d79a9c; stroke:none;" d="M14 19C15.2484 19.6848 15.5484 19.7488 17 20C15.7517 19.3152 15.4515 19.2512 14 19z"/>
<path style="fill:#96181d; stroke:none;" d="M124 19C124 22.1983 120.582 20.3818 118 20.1667C111.408 19.6173 104.627 20 98 20L32 20C25.7384 20 20.0128 18.4961 14 20.3333C12.5748 20.7688 10.4388 20.8367 9.5 22.1667C7.77913 24.6046 9.40409 27.5801 12 28C19.5485 29.2211 28.3386 28 36 28L108 28L127 28C128.854 28 132.24 28.6475 133.833 27.5C135.554 26.2614 135.45 22.761 133.833 21.5C131.675 19.8162 126.662 19.4904 124 19z"/>
<path style="fill:#c0575c; stroke:none;" d="M126.667 19.3333C126.222 19.7778 127.278 19.7223 127.333 19.6667C127.778 19.2222 126.722 19.2778 126.667 19.3333z"/>
<path style="fill:#d79a9c; stroke:none;" d="M128 19L129 20L128 19M10 20L11 21L10 20z"/>
<path style="fill:#af363f; stroke:none;" d="M11 20C12.2484 20.6848 12.5484 20.7488 14 21C12.7517 20.3152 12.4515 20.2512 11 20M130 20C131.248 20.6848 131.549 20.7488 133 21C131.752 20.3152 131.452 20.2512 130 20z"/>
<path style="fill:#d79a9c; stroke:none;" d="M133 20L134 21L133 20z"/>
<path style="fill:#c56b70; stroke:none;" d="M9 21L10 22L9 21M134 21L135 22L134 21z"/>
<path style="fill:#ebaeb6; stroke:none;" d="M8 22L9 23L8 22M135 22L136 23L135 22z"/>
<path style="fill:#c0575c; stroke:none;" d="M8 23L8 26C8.69612 24.4463 8.6961 24.5537 8 23M135 23L135 26C135.696 24.4463 135.696 24.5537 135 23z"/>
<path style="fill:#e9c4c1; stroke:none;" d="M9 27L10 28L9 27z"/>
<path style="fill:#d79a9c; stroke:none;" d="M11 28C13.8897 29.2129 16.8741 28.9983 20 29C17.1103 27.7871 14.1259 28.0017 11 28z"/>
<path style="fill:#d01f2f; stroke:none;" d="M20 28C21.8388 35.7235 21 44.0997 21 52L21 94L21 227C18.1892 227.417 17.8615 230.351 17 233L130 233C124.425 208.903 127 182.759 127 158L127 29L125 29L125 163L125 203C125 210.131 123.97 218.132 126 225C114.024 227.223 101.152 226 89 226L23 226L23 28L20 28z"/>
<path style="fill:#a81d22; stroke:none;" d="M23 28L23 225L124 225L124 28L23 28z"/>
<path style="fill:#bb1e29; stroke:none;" d="M124 28L124 175L124 211C124 215.241 122.601 222.03 126 225C122.32 209.545 125 190.867 125 175L125 76L125 42C125 37.4285 123.773 31.7404 128 29C126.494 28.317 125.685 28.1741 124 28z"/>
<path style="fill:#d79a9c; stroke:none;" d="M128 28L129 29L128 28M130 28L131 29L130 28z"/>
<path style="fill:#ebaeb6; stroke:none;" d="M19 29L19 219C20.7687 214.785 20 209.536 20 205L20 176L20 77L20 45C20 39.9198 20.9806 33.7199 19 29z"/>
<path style="fill:#d20e22; stroke:none;" d="M20 29L20 227C21.8752 222.531 21 216.809 21 212L21 183L21 79L21 45C21 39.9198 21.9806 33.7199 20 29z"/>
<path style="fill:#d63441; stroke:none;" d="M127 29L127 225C128.875 220.531 128 214.809 128 210L128 181L128 78L128 45C128 39.9198 128.981 33.7199 127 29z"/>
<path style="fill:#d01f2f; stroke:none;" d="M36 48L36 103L112 103L112 48L36 48z"/>
<path style="fill:#b11b23; stroke:none;" d="M43 52C48.7073 54.3949 56.846 53 63 53L105 53C99.2927 50.6051 91.154 52 85 52L43 52z"/>
<path style="fill:#96181d; stroke:none;" d="M43 53C44.5148 57.1252 45.0396 65.2251 48.7022 67.9722C51.4112 70.0042 56.8184 69 60 69L87 69C90.2357 69 95.5664 69.9839 98.348 67.9722C101.493 65.6974 102.19 59.535 103 56C106.524 67.9221 104 83.5741 104 96C102.559 92.1815 102.092 85.5055 98.5008 83.0278C95.6147 81.0364 90.3213 82 87 82L60 82C56.718 82 51.3464 81.0174 48.5131 83.0278C44.9984 85.5217 43.9247 94.003 43 98L105 98L105 53L43 53z"/>
<path style="fill:#660c11; stroke:none;" d="M43 54L43 96C44.8642 92.5355 44.0434 88.8466 44.0039 85C43.9354 78.3448 43.8542 71.6536 44.0147 65C44.111 61.0063 45.2735 57.4769 43 54z"/>
<path style="fill:#570912; stroke:none;" d="M103 56C101.821 59.6864 101.095 65.7117 97.6057 67.9722C94.7391 69.8294 89.3415 69.3202 86 69.7145C73.611 71.1763 60.4728 70 48 70C47.437 66.1881 46.1896 62.6572 45 59C43.448 62.6987 44 67.0172 44 71L44 92C46.0879 89.0733 46.3082 84.0979 49.419 82.0278C52.3802 80.0572 57.621 81 61 81L87 81C90.1527 81 94.8101 80.1941 97.5818 82.0278C101.453 84.5891 102.429 91.7837 103 96C106.206 88.3606 104 76.2707 104 68C104 64.0172 104.552 59.6987 103 56z"/>
<path style="fill:#660c11; stroke:none;" d="M48 69C52.2152 70.7687 57.4645 70 62 70L88 70C83.7849 68.2313 78.5355 69 74 69L48 69z"/>
<path style="fill:#7a1118; stroke:none;" d="M48 81C52.9691 83.0851 59.6497 82 65 82L99 82C94.0309 79.9149 87.3503 81 82 81L48 81z"/>
<path style="fill:#bb1e29; stroke:none;" d="M43 98C48.7073 100.395 56.846 99 63 99L105 99C99.2927 96.6051 91.154 98 85 98L43 98z"/>
<path style="fill:#96181d; stroke:none;" d="M38 115L38 211L86 211C94.0176 211 103.283 212.281 111 210C108.52 199.585 110 187.669 110 177L110 115L38 115z"/>
<path style="fill:#a71c21; stroke:none;" d="M42 120L42 206C61.7269 202.338 83.9503 205 104 205L104 202L63 202C58.9381 202 50.744 203.537 47.6034 200.397C43.7482 196.541 46 184.101 46 179L46 120L42 120z"/>
<path style="fill:#a81d22; stroke:none;" d="M46 120L46 180C46 184.997 45.9102 190.003 46.0046 194.999C46.0421 196.981 45.8638 199.594 47.6034 200.972C50.8503 203.544 59.0708 202 63 202L104 202L104 120L46 120z"/>
<path style="fill:#d79a9c; stroke:none;" d="M19 225L20 226L19 225z"/>
<path style="fill:#bf1f2b; stroke:none;" d="M23 225C31.3575 228.507 44.9404 226 54 226L124 226C115.643 222.493 102.06 225 93 225L23 225z"/>
<path style="fill:#ebaeb6; stroke:none;" d="M128 226L129 227L128 226z"/>
<path style="fill:#c56b70; stroke:none;" d="M128 227L129 228L128 227z"/>
<path style="fill:#cf8586; stroke:none;" d="M18 228L19 229L18 228z"/>
<path style="fill:#ebaeb6; stroke:none;" d="M129 229L130 230L129 229z"/>
<path style="fill:#c56b70; stroke:none;" d="M129 230L130 231L129 230M17 231L18 232L17 231z"/>
<path style="fill:#a41016; stroke:none;" d="M17 233L17 240L128 240C124.301 238.448 119.983 239 116 239L95 239L18 239C17.9528 236.747 17.8742 235.052 17 233z"/>
<path style="fill:#a91e22; stroke:none;" d="M18 233L18 239L91 239C103.201 239 117.099 237.167 129 240L129 233L18 233z"/>
<path style="fill:#9e0a11; stroke:none;" d="M129 233L129 240C130.059 237.466 130.059 235.534 129 233z"/>
<path style="fill:#d79a9c; stroke:none;" d="M130 233L130 240C131.059 237.466 131.059 235.534 130 233z"/>
<path style="fill:#c0575c; stroke:none;" d="M17 240C20.6987 241.552 25.0172 241 29 241L51 241L130 241C126.301 239.448 121.983 240 118 240L96 240L17 240z"/>
</svg>
