<svg width="29" height="27" viewBox="0 0 29 27" fill="none" xmlns="http://www.w3.org/2000/svg">
<path d="M12.0012 14.1359C15.2744 14.1359 17.8929 11.5501 17.8929 8.31793C17.8929 5.08575 15.2744 2.5 12.0012 2.5C8.72795 2.5 6.10938 5.08575 6.10938 8.31793C6.10938 11.5501 8.72795 14.1359 12.0012 14.1359ZM12.0012 4.65479C14.0742 4.65479 15.7108 6.27088 15.7108 8.31793C15.7108 10.365 14.0742 11.9811 12.0012 11.9811C9.92812 11.9811 8.29152 10.365 8.29152 8.31793C8.29152 6.27088 9.92812 4.65479 12.0012 4.65479Z" fill="#7DC94F"/>
<path d="M14.4021 15.8597H9.60143C4.25518 15.8597 0 20.1693 0 25.3408C0 25.9872 0.436428 26.4182 1.09107 26.4182C1.74571 26.4182 2.18214 25.9872 2.18214 25.3408C2.18214 21.2467 5.56446 18.0145 9.60143 18.0145H14.4021C18.5482 18.0145 21.8214 21.3544 21.8214 25.3408C21.8214 25.9872 22.2579 26.4182 22.9125 26.4182C23.5671 26.4182 24.0036 25.9872 24.0036 25.3408C24.0036 20.1693 19.6393 15.8597 14.4021 15.8597Z" fill="#7DC94F"/>
<path d="M19 13.5L18.3292 13.1646L17.875 14.0729L18.8767 14.2398L19 13.5ZM27.25 25.5C27.25 25.9142 27.5858 26.25 28 26.25C28.4142 26.25 28.75 25.9142 28.75 25.5H27.25ZM15.5944 1.63088C16.6497 2.30929 18.0868 3.71908 18.879 5.69198C19.6587 7.63366 19.8316 10.1597 18.3292 13.1646L19.6708 13.8354C21.3684 10.4403 21.2079 7.46634 20.271 5.13302C19.3466 2.83092 17.6836 1.19071 16.4056 0.369116L15.5944 1.63088ZM18.8767 14.2398C21.6222 14.6974 27.25 17.5655 27.25 25.5H28.75C28.75 16.6345 22.3778 13.3026 19.1233 12.7602L18.8767 14.2398Z" fill="#7DC94F"/>
</svg>
