<svg width="16" height="16" viewBox="0 0 16 16" fill="none" xmlns="http://www.w3.org/2000/svg">
<path d="M15.3548 7.35528H8.64425V0.644716C8.64425 0.288538 8.35572 0 7.99954 0C7.64336 0 7.35482 0.288538 7.35482 0.644716V7.35528H0.644716C0.288538 7.35528 0 7.64382 0 8C0 8.35618 0.288538 8.64472 0.644716 8.64472H7.35528V15.3553C7.35528 15.7115 7.64382 16 8 16C8.35618 16 8.64471 15.7115 8.64471 15.3553V8.64472H15.3553C15.7115 8.64472 16 8.35618 16 8C16 7.64382 15.7111 7.35528 15.3549 7.35528H15.3548Z" fill="white"/>
</svg>
