<svg width="5" height="10" viewBox="0 0 5 10" fill="none" xmlns="http://www.w3.org/2000/svg">
<path d="M4.99631 5.08965C4.97869 5.28632 4.90487 5.47229 4.78515 5.62196L1.58359 9.64138C1.43297 9.84365 1.21248 9.97142 0.972684 9.99571C0.73286 10.0199 0.494292 9.93844 0.311282 9.76981C0.128282 9.60132 0.0166216 9.36008 0.00185537 9.10145C-0.0129085 8.8427 0.0704675 8.58863 0.232994 8.39719L2.93993 4.99989L0.232994 1.60258C0.0705881 1.41113 -0.0127859 1.15706 0.00197983 0.898331C0.0166202 0.63972 0.128282 0.398466 0.311282 0.229964C0.494283 0.0613394 0.73298 -0.0201006 0.972811 0.00406361C1.21264 0.0283623 1.43297 0.156132 1.58359 0.358395L4.78515 4.37782C4.94234 4.57448 5.0184 4.83147 4.99631 5.08965Z" fill="#FBA800"/>
</svg>
