<svg width="25" height="24" viewBox="0 0 25 24" fill="none" xmlns="http://www.w3.org/2000/svg">
<path d="M6.17154 18.2088C6.33666 18.3751 6.56119 18.4687 6.79535 18.4687C7.0297 18.4687 7.25423 18.3751 7.41916 18.2088L18.5942 7.02416C18.7577 6.85962 18.8495 6.63703 18.8495 6.40483C18.8495 6.17263 18.7577 5.95004 18.5942 5.7855C18.4294 5.62175 18.2069 5.52997 17.9747 5.52997C17.7427 5.52997 17.5199 5.62175 17.3554 5.7855L6.17134 16.9697C6.00779 17.1342 5.91602 17.357 5.91602 17.589C5.91602 17.8212 6.00779 18.0438 6.17134 18.2085L6.17154 18.2088Z" fill="#A6A4A4"/>
<path d="M12.3831 16.9698L8.14845 21.2046C7.2546 22.0554 5.97997 22.375 4.79038 22.0466C3.60084 21.7179 2.67069 20.7895 2.34006 19.6004C2.00944 18.4114 2.32673 17.1361 3.17603 16.2406L7.41927 11.9971V11.9969C7.64518 11.7742 7.73519 11.4477 7.65518 11.1405C7.57517 10.8333 7.33749 10.5922 7.03136 10.5078C6.72544 10.4235 6.39776 10.509 6.17165 10.7318L1.92841 14.9929C0.596099 16.3269 0.0764059 18.2706 0.565526 20.0913C1.05461 21.9122 2.47793 23.334 4.29931 23.8209C6.1207 24.3077 8.06367 23.786 9.39584 22.4518L13.6391 18.2084C13.8028 18.0436 13.8946 17.821 13.8946 17.5888C13.8946 17.3568 13.8028 17.134 13.6391 16.9695C13.474 16.8004 13.2475 16.7051 13.0109 16.7051C12.7746 16.7051 12.5481 16.8004 12.3828 16.9695L12.3831 16.9698Z" fill="#A6A4A4"/>
<path d="M22.8385 1.54165C21.8501 0.554414 20.5104 0 19.1135 0C17.7167 0 16.3769 0.554414 15.3886 1.54165L9.90652 7.02404H9.90632C9.74003 7.18917 9.64648 7.41372 9.64648 7.64789C9.64648 7.88224 9.74003 8.10679 9.90632 8.27174C10.071 8.43529 10.2936 8.52727 10.5258 8.52727C10.7578 8.52727 10.9806 8.43529 11.1451 8.27174L16.6272 2.82449C17.2973 2.18538 18.1876 1.82882 19.1136 1.82882C20.0393 1.82882 20.9299 2.18536 21.5997 2.82449C22.2596 3.48363 22.6304 4.37808 22.6304 5.31079C22.6304 6.2437 22.2596 7.13816 21.5997 7.7973L16.1176 13.2797C15.9521 13.444 15.8588 13.6672 15.858 13.9004C15.8572 14.1335 15.949 14.3575 16.1133 14.5228C16.2775 14.6883 16.5008 14.7817 16.734 14.7825C16.9669 14.7833 17.1909 14.6915 17.3564 14.5273L22.8385 8.97465C23.8282 7.98586 24.3845 6.64423 24.3845 5.24497C24.3845 3.8459 23.8282 2.50427 22.8385 1.51549L22.8385 1.54165Z" fill="#A6A4A4"/>
</svg>
