<svg width="21" height="28" viewBox="0 0 21 28" fill="none" xmlns="http://www.w3.org/2000/svg">
<path fill-rule="evenodd" clip-rule="evenodd" d="M5.72727 9.54545V4.77273C5.72727 2.13665 7.86393 0 10.5 0C13.1361 0 15.2727 2.13665 15.2727 4.77273C15.2727 4.77273 15.2727 5.72727 14.3182 5.72727C13.3636 5.72727 13.3636 4.77273 13.3636 4.77273C13.3636 3.19113 12.0816 1.90909 10.5 1.90909C8.9184 1.90909 7.63636 3.19113 7.63636 4.77273V9.54545H18.1364C18.8957 9.54545 19.624 9.84716 20.1614 10.3841C20.6983 10.9215 21 11.6497 21 12.4091V21C21 22.7721 20.296 24.4717 19.0427 25.7246C17.7899 26.9779 16.0903 27.6818 14.3182 27.6818H6.68182C4.90975 27.6818 3.21011 26.9779 1.95725 25.7246C0.703963 24.4717 0 22.7721 0 21V12.4091C0 11.6497 0.301702 10.9215 0.838636 10.3841C1.376 9.84716 2.10425 9.54545 2.86364 9.54545H5.72727ZM19.0909 12.4091V21C19.0909 22.2656 18.5879 23.4799 17.693 24.3748C16.7981 25.2697 15.5838 25.7727 14.3182 25.7727H6.68182C5.4162 25.7727 4.20191 25.2697 3.30704 24.3748C2.41216 23.4799 1.90909 22.2656 1.90909 21V12.4091C1.90909 12.1562 2.00987 11.9133 2.18885 11.7343C2.36782 11.5553 2.61073 11.4546 2.86363 11.4546H18.1364C18.3893 11.4546 18.6322 11.5553 18.8111 11.7343C18.9901 11.9133 19.0909 12.1562 19.0909 12.4091Z" fill="#A6A4A4"/>
<path fill-rule="evenodd" clip-rule="evenodd" d="M9.54544 19.8818C8.43386 19.4884 7.63635 18.4269 7.63635 17.1813C7.63635 15.601 8.91964 14.3177 10.5 14.3177C12.0803 14.3177 13.3636 15.601 13.3636 17.1813C13.3636 18.4269 12.5661 19.4884 11.4545 19.8818V21.9541C11.4545 22.481 11.0269 22.9086 10.5 22.9086C9.97307 22.9086 9.54544 22.481 9.54544 21.9541V19.8818ZM10.5 16.2268C11.0269 16.2268 11.4545 16.6544 11.4545 17.1813C11.4545 17.7082 11.0269 18.1359 10.5 18.1359C9.97307 18.1359 9.54544 17.7082 9.54544 17.1813C9.54544 16.6544 9.97307 16.2268 10.5 16.2268Z" fill="#A6A4A4"/>
</svg>
