<svg width="24" height="26" viewBox="0 0 24 26" fill="none" xmlns="http://www.w3.org/2000/svg">
<path fill-rule="evenodd" clip-rule="evenodd" d="M11.101 2.11843C5.25678 2.99842 1.21215 8.57519 2.09672 14.5965C2.9814 20.6178 8.4541 24.7617 14.2989 23.881C17.1091 23.4577 19.5016 21.9511 21.1316 19.8285C15.9609 19.626 11.503 15.6773 10.7076 10.2662C10.2611 7.2284 11.0514 4.29411 12.693 2.00013C12.168 1.99901 11.6364 2.03741 11.1008 2.11822L11.101 2.11843ZM0.142989 14.8908C-0.898907 7.80024 3.86405 1.18575 10.8109 0.139909C12.1983 -0.0690409 13.5687 -0.0395747 14.8814 0.199071C15.2479 0.265598 15.5462 0.535271 15.6532 0.896239C15.7602 1.25744 15.6574 1.64878 15.3873 1.90842C13.3183 3.89882 12.2061 6.86614 12.6624 9.97222C13.4027 15.0103 17.9806 18.4738 22.8658 17.7383C23.2351 17.6827 23.6045 17.8423 23.8197 18.1511C24.0347 18.46 24.0593 18.8652 23.8834 19.1985C22.0549 22.6645 18.7041 25.2404 14.59 25.8599C7.64331 26.906 1.18488 21.9817 0.143384 14.8911L0.142989 14.8908Z" fill="#585757"/>
</svg>
