<svg width="21" height="27" viewBox="0 0 21 27" fill="none" xmlns="http://www.w3.org/2000/svg">
<path d="M1.44891 26H19.6103C19.8202 26 20 25.8066 20 25.5809V2.95398C20 2.72825 19.8202 2.5349 19.6103 2.5349H17.3626V1.60028C17.3626 0.859001 16.7932 0.214417 16.0741 0.214417C15.3547 0.214417 14.7855 0.826884 14.7855 1.60028V2.5349H13.6466V1.60028C13.6466 0.859001 13.0771 0.214417 12.358 0.214417C11.6387 0.214417 11.0694 0.826884 11.0694 1.60028V2.5349H9.93056V1.60028C9.93056 0.859001 9.36108 0.214417 8.64198 0.214417C7.92266 0.214417 7.35341 0.826884 7.35341 1.60028V2.5349H6.21452V1.60028C6.21452 0.859001 5.64505 0.214417 4.92594 0.214417C4.20662 0.214417 3.63737 0.826884 3.63737 1.60028V2.5349H1.38967C1.17978 2.5349 1 2.72826 1 2.95398V25.5809C1.05937 25.8064 1.23916 25.9998 1.44904 25.9998L1.44891 26ZM15.6244 1.6003C15.6244 1.31027 15.8343 1.08454 16.104 1.08454C16.3736 1.08454 16.5835 1.31027 16.5835 1.6003V4.40467C16.5835 4.69471 16.3736 4.92043 16.104 4.92043C15.8343 4.92043 15.6244 4.6947 15.6244 4.40467V1.6003ZM11.9083 1.6003C11.9083 1.31027 12.1182 1.08454 12.3879 1.08454C12.6576 1.08454 12.8674 1.31027 12.8674 1.6003L12.8672 4.40467C12.8672 4.69471 12.6573 4.92043 12.3877 4.92043C12.118 4.92043 11.9081 4.6947 11.9081 4.40467L11.9083 1.6003ZM8.22193 1.6003C8.22193 1.31027 8.43182 1.08454 8.70149 1.08454C8.97116 1.08454 9.18104 1.31027 9.18104 1.6003V4.40467C9.18104 4.69471 8.97116 4.92043 8.70149 4.92043C8.43181 4.92043 8.22193 4.6947 8.22193 4.40467V1.6003ZM4.50584 1.6003C4.50584 1.31027 4.71572 1.08454 4.98539 1.08454C5.25507 1.08454 5.46495 1.31027 5.46495 1.6003L5.46474 4.40467C5.46474 4.69471 5.25486 4.92043 4.98519 4.92043C4.71551 4.92043 4.50563 4.6947 4.50563 4.40467L4.50584 1.6003ZM1.86848 3.37313H3.72653V4.40467C3.72653 5.14595 4.296 5.79053 5.0151 5.79053C5.73442 5.79053 6.30368 5.17807 6.30368 4.40467V3.37313H7.44257L7.44277 4.40467C7.44277 5.14595 8.01225 5.79053 8.73135 5.79053C9.45067 5.79053 10.0199 5.17807 10.0199 4.40467V3.37313H11.1588L11.159 4.40467C11.159 5.14595 11.7285 5.79053 12.4476 5.79053C13.1669 5.79053 13.7362 5.17807 13.7362 4.40467V3.37313H14.8751V4.40467C14.8751 5.14595 15.4445 5.79053 16.1636 5.79053C16.883 5.79053 17.4522 5.17807 17.4522 4.40467V3.37313H19.3103V8.94922L1.86863 8.94945L1.86848 3.37313ZM1.86848 9.81955H19.2207V25.1298H1.86848V9.81955Z" fill="#A6A4A4" stroke="#A6A4A4" stroke-width="0.2"/>
<path d="M3.84691 14.9766H6.06469C6.27458 14.9766 6.45436 14.7833 6.45436 14.5576L6.45415 12.1402C6.45415 11.9144 6.27436 11.7211 6.06448 11.7211H3.8467C3.63681 11.7211 3.45703 11.9144 3.45703 12.1402V14.5254C3.45724 14.7833 3.63702 14.9766 3.84691 14.9766ZM4.26647 12.5914H5.67502V14.1063H4.26647V12.5914Z" fill="#A6A4A4" stroke="#A6A4A4" stroke-width="0.2"/>
<path d="M7.56284 14.9766H9.78063C9.99051 14.9766 10.1703 14.7833 10.1703 14.5576V12.1402C10.1703 11.9144 9.99051 11.7211 9.78063 11.7211H7.56284C7.35295 11.7211 7.17317 11.9144 7.17317 12.1402V14.5254C7.14328 14.7833 7.32306 14.9766 7.56284 14.9766ZM7.95251 12.5914H9.36106V14.1063H7.95251V12.5914Z" fill="#A6A4A4" stroke="#A6A4A4" stroke-width="0.2"/>
<path d="M11.2492 14.9766H13.467C13.6769 14.9766 13.8567 14.7833 13.8567 14.5576L13.8565 12.1402C13.8565 11.9144 13.6767 11.7211 13.4668 11.7211H11.249C11.0392 11.7211 10.8594 11.9144 10.8594 12.1402V14.5254C10.8596 14.7833 11.0394 14.9766 11.2492 14.9766ZM11.6688 12.5914H13.0774V14.1063H11.6688V12.5914Z" fill="#A6A4A4" stroke="#A6A4A4" stroke-width="0.2"/>
<path d="M14.9652 14.9766H17.183C17.3929 14.9766 17.5726 14.7833 17.5726 14.5576V12.1402C17.5726 11.9144 17.3929 11.7211 17.183 11.7211H14.9652C14.7553 11.7211 14.5755 11.9144 14.5755 12.1402V14.5254C14.5456 14.7833 14.7254 14.9766 14.9652 14.9766ZM15.3549 12.5914H16.7634V14.1063H15.3549V12.5914Z" fill="#A6A4A4" stroke="#A6A4A4" stroke-width="0.2"/>
<path d="M3.87729 19.2313H6.09508C6.30497 19.2313 6.48474 19.0379 6.48474 18.8122V16.427C6.48474 16.2012 6.30496 16.0079 6.09508 16.0079H3.87729C3.66741 16.0079 3.48763 16.2012 3.48763 16.427V18.8122C3.45773 19.0379 3.63752 19.2313 3.87729 19.2313ZM4.26696 16.8139H5.67552V18.3288H4.26696V16.8139Z" fill="#A6A4A4" stroke="#A6A4A4" stroke-width="0.2"/>
<path d="M7.56154 19.2313H9.77933C9.98921 19.2313 10.169 19.0379 10.169 18.8122V16.427C10.169 16.2012 9.98921 16.0079 9.77933 16.0079H7.56154C7.35165 16.0079 7.17188 16.2012 7.17188 16.427V18.8122C7.17208 19.0379 7.35187 19.2313 7.56154 19.2313ZM7.9811 16.8139H9.38966V18.3288H7.9811V16.8139Z" fill="#A6A4A4" stroke="#A6A4A4" stroke-width="0.2"/>
<path d="M11.2777 19.2313H13.4955C13.7054 19.2313 13.8851 19.0379 13.8851 18.8122V16.427C13.8851 16.2012 13.7054 16.0079 13.4955 16.0079H11.2777C11.0678 16.0079 10.888 16.2012 10.888 16.427V18.8122C10.8581 19.0379 11.0379 19.2313 11.2777 19.2313ZM11.6673 16.8139H13.0759V18.3288H11.6673V16.8139Z" fill="#A6A4A4" stroke="#A6A4A4" stroke-width="0.2"/>
<path d="M17.1817 15.9759H14.9639C14.754 15.9759 14.5742 16.1692 14.5742 16.395V18.7802C14.5742 19.0059 14.754 19.1993 14.9639 19.1993H17.1817C17.3916 19.1993 17.5713 19.0059 17.5713 18.7802V16.395C17.6012 16.1692 17.4214 15.9759 17.1817 15.9759ZM16.792 18.3611H15.3834V16.8462H16.792V18.3611Z" fill="#A6A4A4" stroke="#A6A4A4" stroke-width="0.2"/>
<path d="M6.09378 20.1982H3.87599C3.66611 20.1982 3.48633 20.3916 3.48633 20.6173V23.0026C3.48633 23.2283 3.66611 23.4216 3.87599 23.4216H6.09378C6.30367 23.4216 6.48345 23.2283 6.48345 23.0026V20.6173C6.51334 20.3916 6.33356 20.1982 6.09378 20.1982ZM5.70411 22.5835H4.29555V21.0686H5.70411V22.5835Z" fill="#A6A4A4" stroke="#A6A4A4" stroke-width="0.2"/>
<path d="M9.81253 20.1982H7.59474C7.38486 20.1982 7.20508 20.3916 7.20508 20.6173V23.0026C7.20508 23.2283 7.38486 23.4216 7.59474 23.4216H9.81253C10.0224 23.4216 10.2022 23.2283 10.2022 23.0026V20.6173C10.2022 20.3916 10.0224 20.1982 9.81253 20.1982ZM9.39297 22.5835H7.98441V21.0686H9.39297V22.5835Z" fill="#A6A4A4" stroke="#A6A4A4" stroke-width="0.2"/>
<path d="M13.4981 20.1982H11.2803C11.0704 20.1982 10.8906 20.3916 10.8906 20.6173V23.0026C10.8906 23.2283 11.0704 23.4216 11.2803 23.4216H13.4981C13.708 23.4216 13.8877 23.2283 13.8877 23.0026V20.6173C13.9176 20.3916 13.7379 20.1982 13.4981 20.1982ZM13.1084 22.5835H11.6999V21.0686H13.1084V22.5835Z" fill="#A6A4A4" stroke="#A6A4A4" stroke-width="0.2"/>
</svg>
