<svg width="21" height="27" viewBox="0 0 21 27" fill="none" xmlns="http://www.w3.org/2000/svg">
<path d="M0.496163 26.4991H20.5693C20.8013 26.4991 21 26.3004 21 26.0684V2.81538C21 2.5834 20.8013 2.38469 20.5693 2.38469H18.085V1.42421C18.085 0.662421 17.4556 0 16.6608 0C15.8658 0 15.2366 0.629415 15.2366 1.42421V2.38469H13.9778V1.42421C13.9778 0.662421 13.3484 0 12.5536 0C11.7586 0 11.1294 0.629415 11.1294 1.42421V2.38469H9.87062V1.42421C9.87062 0.662421 9.2412 0 8.4464 0C7.65136 0 7.02219 0.629415 7.02219 1.42421V2.38469H5.76341V1.42421C5.76341 0.662421 5.134 0 4.3392 0C3.54416 0 2.91498 0.629415 2.91498 1.42421V2.38469H0.430683C0.198703 2.38469 0 2.5834 0 2.81538V26.0684C0.065621 26.3002 0.26433 26.4989 0.496305 26.4989L0.496163 26.4991ZM16.1638 1.42424C16.1638 1.12618 16.3958 0.894201 16.6939 0.894201C16.9919 0.894201 17.2239 1.12618 17.2239 1.42424V4.3062C17.2239 4.60427 16.9919 4.83624 16.6939 4.83624C16.3958 4.83624 16.1638 4.60426 16.1638 4.3062V1.42424ZM12.0566 1.42424C12.0566 1.12618 12.2885 0.894201 12.5866 0.894201C12.8847 0.894201 13.1166 1.12618 13.1166 1.42424L13.1164 4.3062C13.1164 4.60427 12.8844 4.83624 12.5864 4.83624C12.2883 4.83624 12.0563 4.60426 12.0563 4.3062L12.0566 1.42424ZM7.98213 1.42424C7.98213 1.12618 8.21411 0.894201 8.51217 0.894201C8.81023 0.894201 9.04221 1.12618 9.04221 1.42424V4.3062C9.04221 4.60427 8.81023 4.83624 8.51217 4.83624C8.21411 4.83624 7.98213 4.60426 7.98213 4.3062V1.42424ZM3.87487 1.42424C3.87487 1.12618 4.10685 0.894201 4.40491 0.894201C4.70297 0.894201 4.93495 1.12618 4.93495 1.42424L4.93472 4.3062C4.93472 4.60427 4.70274 4.83624 4.40468 4.83624C4.10662 4.83624 3.87464 4.60426 3.87464 4.3062L3.87487 1.42424ZM0.959899 3.24612H3.01353V4.3062C3.01353 5.068 3.64294 5.73042 4.43774 5.73042C5.23278 5.73042 5.86196 5.101 5.86196 4.3062V3.24612H7.12073L7.12096 4.3062C7.12096 5.068 7.75038 5.73042 8.54518 5.73042C9.34021 5.73042 9.96939 5.101 9.96939 4.3062V3.24612H11.2282L11.2284 4.3062C11.2284 5.068 11.8578 5.73042 12.6526 5.73042C13.4476 5.73042 14.0768 5.101 14.0768 4.3062V3.24612H15.3356V4.3062C15.3356 5.068 15.965 5.73042 16.7598 5.73042C17.5548 5.73042 18.184 5.101 18.184 4.3062V3.24612H20.2377V8.97651L0.960065 8.97674L0.959899 3.24612ZM0.959899 9.87092H20.1387V25.6048H0.959899V9.87092Z" fill="#A6A4A4"/>
<path d="M3.14612 15.1707H5.59736C5.82934 15.1707 6.02804 14.972 6.02804 14.74L6.02781 12.2557C6.02781 12.0237 5.8291 11.825 5.59713 11.825H3.14589C2.91391 11.825 2.71521 12.0237 2.71521 12.2557V14.7069C2.71544 14.972 2.91414 15.1707 3.14612 15.1707ZM3.60985 12.7194H5.16668V14.2763H3.60985V12.7194Z" fill="#A6A4A4"/>
<path d="M7.25349 15.1707H9.70473C9.93671 15.1707 10.1354 14.972 10.1354 14.74V12.2557C10.1354 12.0237 9.9367 11.825 9.70473 11.825H7.25349C7.02151 11.825 6.82281 12.0237 6.82281 12.2557V14.7069C6.78977 14.972 6.98848 15.1707 7.25349 15.1707ZM7.68417 12.7194H9.241V14.2763H7.68417V12.7194Z" fill="#A6A4A4"/>
<path d="M11.3278 15.1707H13.779C14.011 15.1707 14.2097 14.972 14.2097 14.74L14.2095 12.2557C14.2095 12.0237 14.0107 11.825 13.7788 11.825H11.3275C11.0956 11.825 10.8969 12.0237 10.8969 12.2557V14.7069C10.8971 14.972 11.0958 15.1707 11.3278 15.1707ZM11.7915 12.7194H13.3483V14.2763H11.7915V12.7194Z" fill="#A6A4A4"/>
<path d="M15.4351 15.1707H17.8864C18.1184 15.1707 18.3171 14.972 18.3171 14.74V12.2557C18.3171 12.0237 18.1183 11.825 17.8864 11.825H15.4351C15.2032 11.825 15.0044 12.0237 15.0044 12.2557V14.7069C14.9714 14.972 15.1701 15.1707 15.4351 15.1707ZM15.8658 12.7194H17.4226V14.2763H15.8658V12.7194Z" fill="#A6A4A4"/>
<path d="M3.17915 19.5431H5.63039C5.86237 19.5431 6.06107 19.3444 6.06107 19.1124V16.6612C6.06107 16.4292 5.86236 16.2305 5.63039 16.2305H3.17915C2.94717 16.2305 2.74847 16.4292 2.74847 16.6612V19.1124C2.71543 19.3444 2.91414 19.5431 3.17915 19.5431ZM3.60983 17.0588H5.16666V18.6156H3.60983V17.0588Z" fill="#A6A4A4"/>
<path d="M7.25344 19.5431H9.70467C9.93665 19.5431 10.1354 19.3444 10.1354 19.1124V16.6612C10.1354 16.4292 9.93665 16.2305 9.70467 16.2305H7.25344C7.02146 16.2305 6.82275 16.4292 6.82275 16.6612V19.1124C6.82298 19.3444 7.02169 19.5431 7.25344 19.5431ZM7.71716 17.0588H9.27399V18.6156H7.71716V17.0588Z" fill="#A6A4A4"/>
<path d="M11.3608 19.5431H13.812C14.044 19.5431 14.2427 19.3444 14.2427 19.1124V16.6612C14.2427 16.4292 14.044 16.2305 13.812 16.2305H11.3608C11.1288 16.2305 10.9301 16.4292 10.9301 16.6612V19.1124C10.8971 19.3444 11.0958 19.5431 11.3608 19.5431ZM11.7915 17.0588H13.3483V18.6156H11.7915V17.0588Z" fill="#A6A4A4"/>
<path d="M17.8863 16.1976H15.4351C15.2031 16.1976 15.0044 16.3963 15.0044 16.6283V19.0795C15.0044 19.3115 15.2031 19.5102 15.4351 19.5102H17.8863C18.1183 19.5102 18.317 19.3115 18.317 19.0795V16.6283C18.35 16.3963 18.1513 16.1976 17.8863 16.1976ZM17.4556 18.6488H15.8988V17.092H17.4556V18.6488Z" fill="#A6A4A4"/>
<path d="M5.63033 20.5368H3.1791C2.94712 20.5368 2.74841 20.7355 2.74841 20.9675V23.4187C2.74841 23.6507 2.94712 23.8494 3.1791 23.8494H5.63033C5.86231 23.8494 6.06102 23.6507 6.06102 23.4187V20.9675C6.09406 20.7355 5.89535 20.5368 5.63033 20.5368ZM5.19965 22.988H3.64282V21.4312H5.19965V22.988Z" fill="#A6A4A4"/>
<path d="M9.73776 20.5368H7.28652C7.05454 20.5368 6.85583 20.7355 6.85583 20.9675V23.4187C6.85583 23.6507 7.05454 23.8494 7.28652 23.8494H9.73776C9.96974 23.8494 10.1684 23.6507 10.1684 23.4187V20.9675C10.1684 20.7355 9.96973 20.5368 9.73776 20.5368ZM9.27403 22.988H7.7172V21.4312H9.27403V22.988Z" fill="#A6A4A4"/>
<path d="M13.812 20.5368H11.3607C11.1288 20.5368 10.9301 20.7355 10.9301 20.9675V23.4187C10.9301 23.6507 11.1288 23.8494 11.3607 23.8494H13.812C14.044 23.8494 14.2427 23.6507 14.2427 23.4187V20.9675C14.2757 20.7355 14.077 20.5368 13.812 20.5368ZM13.3813 22.988H11.8245V21.4312H13.3813V22.988Z" fill="#A6A4A4"/>
</svg>
