<svg width="24" height="18" viewBox="0 0 24 18" fill="none" xmlns="http://www.w3.org/2000/svg">
<path d="M20.6149 0.0012845H15.3434C14.9784 0.0012845 14.654 0.204036 14.5324 0.528439C14.3702 0.933942 14.6135 1.42055 15.0595 1.5422C15.1406 1.6233 15.2217 1.6233 15.3028 1.6233H20.6147C21.1824 1.58275 21.7095 1.98825 21.7906 2.59651V9.20598C21.7501 9.77368 21.2229 10.2197 20.6147 10.1792H20.2903C19.7631 10.1792 19.3576 10.5847 19.3576 11.1118V11.6796C19.3576 11.7607 19.2765 11.8418 19.1954 11.8418C19.1549 11.8418 19.1143 11.8418 19.1143 11.8012L17.2896 10.3819C17.1274 10.2603 16.9246 10.1792 16.6813 10.1792H9.94995C9.38224 10.2197 8.85509 9.81424 8.81454 9.20598V2.59651C8.85509 2.0288 9.38224 1.58275 9.94995 1.6233H10.396C10.761 1.6233 11.0854 1.42055 11.207 1.09614C11.3692 0.69064 11.1259 0.204036 10.6799 0.0823852C10.5988 0.0012845 10.5177 0.0012845 10.4366 0.0012845H9.94995C8.49013 -0.0392658 7.23307 1.09614 7.19252 2.59651V3.24531H3.50244C2.04263 3.20476 0.785568 4.34017 0.704468 5.84053V12.45C0.745018 13.7882 1.79933 14.883 3.13749 15.0047V16.6267C3.13749 17.1133 3.50244 17.5188 3.98905 17.5594H4.0296C4.23235 17.5594 4.4351 17.4782 4.55675 17.3566L7.63858 15.0047H14.1674C15.6272 15.0452 16.8843 13.9098 16.9248 12.4095V12.0851L19.5606 14.072C19.7228 14.1937 19.9256 14.2748 20.0878 14.2748C20.3311 14.2748 20.5338 14.1937 20.7366 14.0315C20.8988 13.8693 21.0204 13.626 21.0204 13.3421V11.7201C22.3586 11.5985 23.4129 10.5036 23.4534 9.16543V2.59627C23.3723 1.09591 22.1153 -0.0394974 20.6149 0.00105291V0.0012845ZM14.1676 13.3829H7.43629C7.23354 13.3829 7.03079 13.464 6.86858 13.5856L5.00327 15.0049C4.92217 15.0455 4.84107 15.0455 4.80052 14.9644C4.75997 14.9238 4.75997 14.9238 4.75997 14.8833V14.3156C4.75997 13.7884 4.31391 13.3829 3.82731 13.3829H3.50291C2.9352 13.4234 2.40805 13.0179 2.32695 12.4097V5.84053C2.3675 5.27283 2.89465 4.82678 3.50291 4.86733H7.19299V9.16566C7.23354 10.6255 8.4906 11.8014 9.95041 11.7609H15.3031V12.4097C15.2625 13.0179 14.7354 13.4234 14.1676 13.3829Z" fill="#A6A4A4"/>
<path d="M12.87 0.00128174C13.316 0.00128174 13.681 0.366235 13.681 0.812289C13.681 1.25834 13.316 1.6233 12.87 1.6233C12.4239 1.6233 12.059 1.25834 12.059 0.812289C12.059 0.366235 12.4239 0.00128174 12.87 0.00128174Z" fill="#A6A4A4"/>
</svg>
