<svg width="25" height="25" viewBox="0 0 25 25" fill="none" xmlns="http://www.w3.org/2000/svg">
<path d="M1.01862 4.7922C1.30222 6.86833 2.51454 12.2498 7.63219 17.368C12.7502 22.4862 18.1315 23.698 20.2076 23.9818C20.2958 23.9938 20.3845 23.9998 20.4734 24C20.8391 24.0007 21.1972 23.8955 21.5047 23.6973C21.8121 23.499 22.0557 23.2163 22.206 22.8827L23.8281 19.3292C24.0213 18.905 24.0528 18.4249 23.9168 17.9793C23.7809 17.5335 23.4866 17.1528 23.0897 16.9088L18.713 14.2219C18.4784 14.0776 18.1755 14.1134 17.981 14.3083L15.9738 16.3155C15.9203 16.3699 15.8469 16.4002 15.7705 16.3991C13.1085 16.2465 8.75408 11.8917 8.60181 9.2297C8.59951 9.15339 8.6296 9.07957 8.68483 9.02681L10.6922 7.01921C10.8869 6.82446 10.9225 6.52171 10.7786 6.28717L8.09178 1.9103C7.84766 1.51338 7.46704 1.21915 7.02127 1.08318C6.57551 0.947217 6.09538 0.978729 5.67123 1.17188L2.11786 2.79407C1.74309 2.96332 1.4333 3.24977 1.23516 3.61003C1.03688 3.9703 0.961113 4.38526 1.01883 4.79247L1.01862 4.7922ZM2.61171 3.87584L6.16526 2.25347C6.32512 2.18088 6.50623 2.16902 6.67421 2.22036C6.84221 2.2717 6.98578 2.38271 7.07766 2.53248L9.51892 6.5098L7.84348 8.18547V8.1853C7.54837 8.47794 7.39205 8.88266 7.41383 9.29762C7.59794 12.5217 12.4784 17.402 15.7024 17.5865C16.1172 17.6068 16.5212 17.4507 16.8144 17.1566L18.49 15.4809L22.4672 17.9223H22.4675C22.6171 18.0143 22.728 18.1579 22.7793 18.3259C22.8305 18.4941 22.8186 18.675 22.746 18.8351L21.1239 22.3882H21.1237C21.0598 22.5298 20.9516 22.6468 20.8153 22.7215C20.6792 22.7962 20.5223 22.8247 20.3686 22.8026C18.4119 22.5355 13.3359 21.3891 8.47347 16.5265C3.61107 11.664 2.46447 6.5875 2.19708 4.63098C2.17512 4.47713 2.20363 4.32045 2.27851 4.18431C2.35322 4.04799 2.47006 3.93982 2.61151 3.87574L2.61171 3.87584Z" fill="#A6A4A4" stroke="#A6A4A4" stroke-width="0.5"/>
</svg>
