<svg width="25" height="25" viewBox="0 0 25 25" fill="none" xmlns="http://www.w3.org/2000/svg">
<path d="M23.2605 24.004H13.287C12.8769 24.004 12.5444 23.6715 12.5444 23.2611V10.6977C12.5444 10.2871 12.8769 9.95483 13.287 9.95483H23.2605C23.6708 9.95483 24.0033 10.2873 24.0033 10.6977V23.2606C24.0037 23.6712 23.671 24.0037 23.2605 24.0037V24.004ZM14.0292 22.5181H22.5174V11.4406H14.0292V22.5181Z" fill="#585757"/>
<path d="M23.2605 8.19196H13.287C12.8769 8.19196 12.5444 7.85946 12.5444 7.44921V0.742898C12.5444 0.332293 12.8769 0 13.287 0H23.2605C23.6708 0 24.0033 0.332502 24.0033 0.742898V7.44969C24.0037 7.85973 23.671 8.19206 23.2605 8.19206V8.19196ZM14.0292 6.7065H22.5174V1.48503H14.0292V6.7065Z" fill="#585757"/>
<path d="M10.0389 12.9131H0.742755C0.332521 12.9131 0 12.5806 0 12.1703V0.742898C0 0.332293 0.332502 0 0.742755 0H10.0389C10.4491 0 10.7816 0.332502 10.7816 0.742898V12.1708C10.7814 12.5807 10.4491 12.9132 10.0387 12.9132L10.0389 12.9131ZM1.48494 11.4276H9.29572V1.48503H1.48494V11.4276Z" fill="#585757"/>
<path d="M10.0389 24.004H0.742755C0.332521 24.004 0 23.6715 0 23.2611V15.4189C0 15.0086 0.332502 14.6761 0.742755 14.6761H10.0389C10.4491 14.6761 10.7816 15.0086 10.7816 15.4189V23.2611C10.7814 23.6713 10.4491 24.0038 10.0387 24.0038L10.0389 24.004ZM1.48494 22.5181H9.29572V16.1617H1.48494V22.5181Z" fill="#585757"/>
</svg>
