<svg width="21" height="22" viewBox="0 0 21 22" fill="none" xmlns="http://www.w3.org/2000/svg">
<path d="M2.26228 21.2594H18.7356C19.391 21.1937 19.9945 20.8734 20.4164 20.3675C20.8383 19.8616 21.0449 19.2104 20.9918 18.5538V9.54175C21.0065 8.7693 20.7165 8.02211 20.1845 7.46187L12.4152 0.795206C11.9159 0.293073 11.239 0.00749924 10.5309 0.000145598C9.82275 -0.00720804 9.14014 0.26425 8.63045 0.755904L0.815496 7.46187C0.283499 8.02211 -0.00652252 8.7693 0.00818596 9.54175V18.5538C-0.0448958 19.2104 0.161702 19.8616 0.583583 20.3675C1.00546 20.8734 1.60896 21.1937 2.2644 21.2594H2.26228ZM1.52401 9.54175C1.50994 9.19161 1.62315 8.84822 1.84269 8.5751L9.66189 1.86914C9.77022 1.76036 9.89903 1.67413 10.0409 1.61543C10.1827 1.55672 10.3348 1.5267 10.4883 1.5271C10.8252 1.5302 11.1471 1.66654 11.3838 1.90632L19.1318 8.55067C19.3649 8.82565 19.4879 9.17719 19.477 9.5375V18.5538C19.477 19.2528 19.0883 19.7414 18.7388 19.7414H2.26228C1.9128 19.7414 1.52401 19.2528 1.52401 18.5538V9.54175Z" fill="#A5ADB9"/>
<path d="M10.5016 18.2203C10.7031 18.2203 10.8963 18.1403 11.0387 17.9979C11.1811 17.8555 11.2611 17.6623 11.2611 17.4608V13.6654C11.265 13.5634 11.2482 13.4616 11.2117 13.3662C11.1753 13.2707 11.12 13.1837 11.0492 13.1101C10.9783 13.0366 10.8933 12.9781 10.7994 12.9381C10.7054 12.8981 10.6043 12.8775 10.5022 12.8775C10.4001 12.8775 10.299 12.8981 10.205 12.9381C10.111 12.9781 10.026 13.0366 9.95518 13.1101C9.88433 13.1837 9.82903 13.2707 9.79261 13.3662C9.75619 13.4616 9.73939 13.5634 9.74321 13.6654V17.4608C9.74321 17.6623 9.82322 17.8555 9.96565 17.9979C10.1081 18.1403 10.3013 18.2203 10.5027 18.2203H10.5016Z" fill="#A5ADB9"/>
</svg>
