<svg width="28" height="31" viewBox="0 0 28 31" fill="none" xmlns="http://www.w3.org/2000/svg">
<path d="M2.47034 30.9999H8.23524C9.59408 30.9999 10.7059 29.7721 10.7059 28.4217L10.7056 22.5286C10.7056 20.7279 12.188 19.2546 13.9999 19.2546C15.6058 19.2546 16.8822 20.5232 16.8822 22.1192V28.4214C16.8822 29.7719 17.9939 30.9996 19.3528 30.9996H25.5294C26.8882 30.9996 28 29.7719 28 28.4214V13.2391C28 12.5844 27.7119 11.9295 27.2177 11.4384L15.6884 0.675173C14.7412 -0.225058 13.2588 -0.225058 12.3119 0.675173L0.782554 11.4384C0.288153 11.9295 0 12.5841 0 13.2391V28.4221C0 29.7723 1.11178 31 2.47063 31L2.47034 30.9999ZM1.6467 13.2394C1.6467 13.0347 1.72915 12.7891 1.89377 12.6255L13.4231 1.86234C13.7526 1.57596 14.2468 1.57596 14.5349 1.86234L26.0643 12.6255C26.2289 12.7891 26.3114 12.9938 26.3114 13.2394V28.4224C26.3114 28.8726 25.9408 29.3637 25.4877 29.3637L19.3525 29.3634C18.8995 29.3634 18.5289 28.8723 18.5289 28.4221L18.5291 22.1199C18.5291 19.6237 16.5116 17.6182 13.9996 17.6182C11.2819 17.6182 9.0583 19.8281 9.0583 22.5291V28.4221C9.0583 28.8723 8.68771 29.3634 8.23466 29.3634H2.47005C2.01701 29.3634 1.64641 28.8723 1.64641 28.4221L1.6467 13.2394Z" fill="#03C3EC"/>
</svg>
