<svg width="16" height="16" viewBox="0 0 16 16" fill="none" xmlns="http://www.w3.org/2000/svg">
<path d="M10.5462 0.00019865C10.1566 0.00019865 9.8505 0.306297 9.8505 0.695855C9.8505 1.08541 10.1566 1.39151 10.5462 1.39151C12.8557 1.39151 14.5809 3.25587 14.5809 5.70463V10.2959C14.5809 12.6612 12.6331 14.609 10.2678 14.609H5.70429C3.33896 14.609 1.39117 12.6612 1.39117 10.2959L1.39136 5.70443C1.39136 3.25567 3.11654 1.39131 5.42612 1.39131C5.81568 1.39131 6.12178 1.08521 6.12178 0.695657C6.12178 0.306099 5.81568 0 5.42612 0C2.39311 0 0 2.50426 0 5.70438V10.2956C0 13.44 2.56002 16 5.70438 16H10.2956C13.44 16 16 13.44 16 10.2956V5.70438C15.972 2.50446 13.6069 0 10.5461 0L10.5462 0.00019865Z" fill="#03C3EC"/>
<path d="M7.98642 0.00019865C7.59686 0.00019865 7.29076 0.306297 7.29076 0.695855V9.962L5.06461 7.73585C4.78627 7.45751 4.34118 7.45751 4.09059 7.73585C3.81225 8.01419 3.81225 8.45928 4.09059 8.70987L7.4854 12.1047C7.62457 12.2438 7.7915 12.2996 7.98617 12.2996C8.18105 12.2996 8.34797 12.2438 8.48694 12.1047L11.8819 8.70967C12.1603 8.43133 12.1603 7.98624 11.8819 7.73565C11.6036 7.45731 11.1585 7.45731 10.9079 7.73565L8.68178 9.9618L8.68197 0.695657C8.68197 0.306099 8.37587 0 7.98631 0L7.98642 0.00019865Z" fill="#03C3EC"/>
</svg>
