<svg width="18" height="18" viewBox="0 0 18 18" fill="none" xmlns="http://www.w3.org/2000/svg">
<path d="M13.2189 0.00373562C13.0705 0.0208455 12.929 0.0877959 12.8242 0.190306L1.30371 11.2815C1.21562 11.365 1.15257 11.4726 1.12367 11.5882L0.0159338 16.2806C-0.0339817 16.4907 0.0355604 16.7234 0.193963 16.8757C0.352211 17.0281 0.593896 17.095 0.81212 17.0471L5.68616 15.9807C5.80871 15.954 5.92307 15.8932 6.01162 15.8073L17.5321 4.71611C17.775 4.47955 17.775 4.05285 17.5321 3.81629L13.7658 0.190344C13.6253 0.0531662 13.4178 -0.0176508 13.2189 0.00377369L13.2189 0.00373562ZM13.2951 1.54348L16.1197 4.26959L14.8459 5.49599L12.0212 2.77658L13.2951 1.54348ZM11.0796 3.67641L13.9042 6.40252L5.76237 14.241L2.93756 11.5215L11.0796 3.67641ZM2.23826 12.6545L4.5854 14.9142L1.55289 15.574L2.23826 12.6545Z" fill="#585757"/>
</svg>
