<svg width="17" height="17" viewBox="0 0 17 17" fill="none" xmlns="http://www.w3.org/2000/svg">
<path d="M2.90109 13.056C3.52566 14.6434 4.03794 15.6637 4.12962 15.7956C4.2807 16.0124 4.59209 16.1442 4.8409 16.0911H4.84078C5.04866 16.0431 5.2506 15.9728 5.44343 15.8816C5.6372 15.7925 5.82123 15.6835 5.99236 15.5562C6.19359 15.4011 6.29854 15.0867 6.23972 14.8403C6.20652 14.6885 5.77726 13.6831 5.17922 12.1624C4.58118 10.6417 4.21431 9.6117 4.13532 9.47828C4.01045 9.25783 3.72027 9.09881 3.46721 9.1217C3.25506 9.14494 3.046 9.19012 2.84321 9.25653C2.63949 9.32068 2.44322 9.40665 2.25789 9.51279C2.03946 9.64299 1.90095 9.95142 1.93747 10.213C1.96071 10.3714 2.27911 11.4675 2.90107 13.0559L2.90109 13.056Z" fill="#8592A3"/>
<path d="M15.0629 10.213C15.0994 9.95141 14.9609 9.64286 14.7425 9.51278V9.51266C14.5574 9.40665 14.3615 9.32068 14.1581 9.2564C13.9553 9.19 13.7463 9.14482 13.5342 9.12158C13.2812 9.09869 12.991 9.25771 12.8661 9.47815C12.7872 9.61097 12.4182 10.6403 11.8222 12.1623C11.2262 13.6844 10.7946 14.6885 10.7617 14.8409C10.7033 15.0873 10.8079 15.4016 11.0091 15.5567C11.1802 15.684 11.3641 15.7931 11.5579 15.8821C11.7507 15.9733 11.9528 16.0435 12.1606 16.0917C12.4092 16.1448 12.7207 16.0129 12.8718 15.7962C12.9622 15.6634 13.4745 14.644 14.1004 13.0565C14.7262 11.4691 15.041 10.3713 15.0629 10.213Z" fill="#8592A3"/>
<path d="M16.668 10.0693V9.0549C16.7684 9.00083 16.8524 8.92066 16.9108 8.82272C16.9693 8.72477 17.0001 8.61282 17 8.49874C16.9996 6.24458 16.104 4.08295 14.51 2.48919C12.916 0.895422 10.7542 1.17787e-08 8.50013 1.17787e-08C6.2461 -0.000118573 4.08434 0.89518 2.49028 2.48894C1.69849 3.27636 1.0707 4.21291 0.643332 5.24449C0.215839 6.27603 -0.00282602 7.38219 2.75734e-05 8.4988C2.75734e-05 8.61276 0.0309769 8.72458 0.0894392 8.82241C0.147902 8.92013 0.23174 9.00029 0.332062 9.05424V10.0693C0.199011 10.1655 0.0988074 10.3005 0.0453268 10.4557C-0.0081539 10.6109 -0.0124221 10.7788 0.0332312 10.9367C0.592233 12.8762 1.33125 14.7593 2.24091 16.5613C2.33602 16.7503 2.50239 16.8939 2.70338 16.9602C2.90438 17.0265 3.12353 17.0101 3.31241 16.9147C3.50131 16.8192 3.64446 16.6525 3.71024 16.4514C3.77618 16.2501 3.75922 16.0311 3.66328 15.8424C2.7987 14.1299 2.0962 12.3401 1.56483 10.4968C1.5232 10.3526 1.44162 10.2231 1.32944 10.1231C1.21738 10.0233 1.07934 9.95711 0.931361 9.93232V9.05506C1.03145 9.00086 1.11505 8.92046 1.17327 8.82251C1.23138 8.72468 1.26198 8.61274 1.26174 8.4989C1.26162 7.06712 1.68604 5.66747 2.4815 4.47715C3.27683 3.28669 4.4074 2.35878 5.73035 1.81092C7.05314 1.26306 8.50866 1.11968 9.91299 1.39921C11.3171 1.6786 12.607 2.36816 13.6193 3.38073C14.2934 4.05145 14.8277 4.84915 15.1915 5.72763C15.5552 6.60621 15.7413 7.54814 15.7386 8.49905C15.7386 8.61301 15.7696 8.72484 15.8281 8.82266C15.8865 8.92038 15.9704 9.00054 16.0707 9.05449V9.93012C15.9227 9.95503 15.7847 10.0212 15.6726 10.121C15.5604 10.2209 15.4788 10.3504 15.4372 10.4946C14.9058 12.3381 14.2033 14.1278 13.3388 15.8402C13.2103 16.0944 13.2273 16.3977 13.3831 16.6361C13.539 16.8743 13.8102 17.0114 14.0945 16.9955C14.3789 16.9796 14.6331 16.8132 14.7615 16.5591C15.6708 14.7571 16.4099 12.874 16.9689 10.9345C17.0138 10.7769 17.0091 10.6093 16.9552 10.4546C16.9015 10.2997 16.8013 10.1653 16.6684 10.0695L16.668 10.0693Z" fill="#8592A3"/>
</svg>
