<svg width="23" height="30" viewBox="0 0 23 30" fill="none" xmlns="http://www.w3.org/2000/svg">
<path d="M20.1649 9.56437C21.7363 9.56437 23 8.25507 23 6.68367V2.39126H22.203L22.2028 0H16.7373V2.39102H15.8264V6.68367C15.8264 8.25507 17.1586 9.56437 18.73 9.56437H18.9008V11.6366C17.2613 10.4298 15.2346 9.72382 13.037 9.72382C9.19994 9.72382 5.86378 11.9099 4.21259 15.0979L4.21283 9.56437H4.26978C5.84118 9.56437 7.17335 8.25507 7.17335 6.68367L7.17311 2.39126H6.26218V0H0.796985V2.39102H3.36753e-08V6.68367C-0.00023822 8.25507 1.26379 9.56437 2.83495 9.56437H3.07417V19.6978H3.09705C3.11992 25.1632 7.57172 29.6037 13.0371 29.6037C18.5137 29.6037 22.9771 25.1404 22.9771 19.6636C22.9771 16.9083 21.8499 14.4145 20.0395 12.6154L20.0393 9.56419L20.1649 9.56437ZM1.93534 1.13887H5.1234V2.39144H1.93534V1.13887ZM1.13835 6.68385V3.52989H6.03433V6.68385C6.03433 7.62882 5.21465 8.42586 4.26945 8.42586H2.8348C1.88984 8.42586 1.13835 7.62888 1.13835 6.68385ZM7.11605 19.4474C7.22994 16.282 9.8373 13.7316 13.0368 13.7316C16.0085 13.7316 18.4793 15.9291 18.9006 18.787V20.2674H18.9347C18.6273 23.2505 16.0995 25.5846 13.0368 25.5846C9.78037 25.5846 7.11608 22.9317 7.11608 19.6753L7.11605 19.4474ZM18.9006 15.7243C17.6254 13.8455 15.4734 12.5932 13.0368 12.5932C11.5338 12.5932 10.1333 13.0714 8.98341 13.8798C9.32509 13.4586 9.70085 13.0488 10.1221 12.673C11.4543 11.5002 12.8205 10.9651 13.1281 10.8626C15.3371 10.8855 17.3524 11.7281 18.8894 13.1057V15.7243H18.9006ZM21.8383 19.6638C21.8383 24.5143 17.8873 28.465 13.037 28.465C8.18673 28.465 4.23578 24.5141 4.23578 19.6638C4.23578 15.9632 6.52438 12.798 9.76935 11.4884C9.65546 11.5794 9.53013 11.6819 9.41647 11.7843C7.85654 13.1505 6.00065 15.5645 5.97777 19.6182V19.6637V19.6751V19.698C6.00065 23.5805 9.15437 26.723 13.0369 26.723C16.931 26.723 20.0961 23.5576 20.0961 19.6638C20.0961 19.345 20.0732 19.0376 20.0277 18.73V14.3349C21.1664 15.8155 21.8381 17.6599 21.8381 19.664L21.8383 19.6638ZM17.8761 1.13845H21.0641V2.39102H17.8761V1.13845ZM16.9652 6.68343V3.52946H21.8611V6.68343C21.8611 7.62839 21.1096 8.42544 20.1647 8.42544H18.73C17.7848 8.42544 16.9652 7.62845 16.9652 6.68343Z" fill="#FF3E1D"/>
</svg>
