<svg width="21" height="15" viewBox="0 0 21 15" fill="none" xmlns="http://www.w3.org/2000/svg">
<path fill-rule="evenodd" clip-rule="evenodd" d="M21 2.25C21 1.653 20.7629 1.08081 20.3407 0.659272C19.9192 0.23706 19.347 0 18.75 0H2.25C1.653 0 1.08081 0.237052 0.659272 0.659272C0.23706 1.08081 0 1.65304 0 2.25V12.75C0 13.347 0.237052 13.9192 0.659272 14.3407C1.08081 14.7629 1.65304 15 2.25 15H18.75C19.347 15 19.9192 14.7629 20.3407 14.3407C20.7629 13.9192 21 13.347 21 12.75V2.25ZM19.5 2.40151L10.9161 8.12379C10.6642 8.29188 10.3357 8.29188 10.0838 8.12379L1.49991 2.40151V12.7498C1.49991 12.9485 1.5786 13.1399 1.71972 13.28C1.85985 13.4211 2.0512 13.4998 2.24991 13.4998H18.7499C18.9486 13.4998 19.14 13.4211 19.2801 13.28C19.4212 13.1399 19.4999 12.9485 19.4999 12.7498L19.5 2.40151ZM18.1478 1.50001H2.8521L10.5 6.59829L18.1478 1.50001Z" fill="#A6A4A4"/>
</svg>
