<svg width="39" height="21" viewBox="0 0 39 21" fill="none" xmlns="http://www.w3.org/2000/svg">
<path d="M36.1977 20.9575H2.41331C1.04572 20.9575 0 19.8313 0 18.5442V18.0616C0 17.0159 0.643658 16.0507 1.68937 15.7289L19.0648 10.3396C19.2256 10.259 19.3867 10.259 19.5474 10.3396L36.9229 14.9245C37.9686 15.2464 38.6925 16.2115 38.6925 17.2573L38.6922 18.5442C38.6116 19.8312 37.4854 20.9576 36.1983 20.9576L36.1977 20.9575ZM19.3055 11.9479L2.17204 17.257C1.85022 17.4181 1.60891 17.7396 1.60891 18.0615V18.5441C1.60891 19.0267 2.01098 19.3485 2.41338 19.3485H36.1977C36.6803 19.3485 37.0022 18.9465 37.0022 18.5441V17.3376C37.0022 16.9356 36.7609 16.6137 36.4391 16.5332L19.3055 11.9479Z" fill="#696CFF"/>
<path d="M19.3057 11.9479C18.8231 11.9479 18.5012 11.626 18.5012 11.1434V8.08674C17.4555 7.84544 16.5705 7.28228 16.0077 6.4779C15.364 5.51269 15.1227 4.30593 15.364 3.17998C15.6858 1.65165 16.8923 0.525409 18.3404 0.123328C19.5469 -0.198501 20.834 0.123328 21.7995 0.927789C22.7647 1.73225 23.3278 2.8585 23.3278 4.14548C23.3278 4.62808 23.006 4.94994 22.5233 4.94994C22.0407 4.94994 21.7189 4.62811 21.7189 4.14548C21.7189 3.42159 21.397 2.69768 20.7537 2.21478C20.1905 1.73218 19.3861 1.57112 18.6622 1.73218C17.7772 1.97348 17.0534 2.69739 16.8926 3.50177C16.7319 4.22567 16.8926 4.94958 17.2947 5.5127C17.6968 6.07583 18.3404 6.4779 18.9841 6.55842C19.6277 6.63895 20.1103 7.12155 20.1103 7.76489V11.1433C20.11 11.6262 19.7882 11.9479 19.3057 11.9479Z" fill="#696CFF"/>
</svg>
