<svg width="16" height="15" viewBox="0 0 16 15" fill="none" xmlns="http://www.w3.org/2000/svg">
<path d="M1.78206 13.3809C1.34841 12.9464 1.1048 12.3578 1.10458 11.7438L1.10458 6.18578C1.09193 6.05537 1.135 5.92561 1.223 5.82867C1.3111 5.73163 1.43606 5.67623 1.56713 5.67623C1.69808 5.67623 1.82305 5.73163 1.91114 5.82867C1.99914 5.92561 2.04221 6.05537 2.02956 6.18578L2.02956 11.7438C2.03065 12.1121 2.17742 12.4648 2.43781 12.7251C2.69809 12.9855 3.05084 13.1323 3.41907 13.1333H13.6104C13.7329 13.1312 13.8498 13.0816 13.9365 12.9949C14.0232 12.9082 14.0728 12.7913 14.075 12.6687V5.25657C14.0736 5.1339 14.0236 5.0169 13.9361 4.93086C13.8515 4.84199 13.7332 4.79314 13.6104 4.7963L3.41907 4.7963C2.78728 4.82367 2.17163 4.59174 1.71498 4.15438C1.25821 3.71702 1 3.11205 1 2.47973C1 1.8473 1.25821 1.24234 1.71498 0.804972C2.17163 0.367607 2.78728 0.135777 3.41907 0.16305L5.27321 0.16305C5.64199 0.161305 5.99584 0.308509 6.25458 0.5713C6.51562 0.831145 6.66249 1.18422 6.66271 1.55266V2.47756C6.67536 2.60797 6.6324 2.73762 6.5443 2.83467C6.45619 2.93171 6.33123 2.987 6.20028 2.987C6.06921 2.987 5.94425 2.93171 5.85626 2.83467C5.76815 2.73762 5.72519 2.60797 5.73784 2.47756V1.55266C5.73555 1.4301 5.68594 1.31321 5.59925 1.22651C5.51256 1.13981 5.39567 1.09021 5.27321 1.08803L3.41907 1.08803C3.05085 1.08912 2.69809 1.23578 2.4377 1.49617C2.18473 1.76114 2.04364 2.11333 2.04364 2.47971C2.04364 2.84597 2.18473 3.19817 2.4377 3.46314C2.69853 3.72233 3.05138 3.86756 3.41907 3.86703L13.6104 3.86703C13.9786 3.86812 14.3314 4.01489 14.5918 4.27528C14.852 4.53556 14.9988 4.88831 15 5.25653V12.6687C14.9998 13.0371 14.8529 13.3902 14.5918 13.65C14.3331 13.9128 13.9792 14.0601 13.6104 14.0583H3.41907C2.80517 14.0581 2.21657 13.8145 1.78202 13.3808L1.78206 13.3809Z" fill="#585757" stroke="#585757" stroke-width="0.3"/>
<path d="M6.19756 6.64624V9.42527C6.21021 9.55569 6.16724 9.68544 6.07914 9.78238C5.99103 9.87943 5.86607 9.93482 5.73512 9.93482C5.60405 9.93482 5.47909 9.87943 5.3911 9.78238C5.303 9.68544 5.26003 9.55569 5.27268 9.42527V6.64624C5.28762 6.49162 5.37889 6.35479 5.51584 6.28151C5.6528 6.20812 5.81735 6.20812 5.9543 6.28151C6.09125 6.35479 6.18251 6.49163 6.19756 6.64624Z" fill="#585757" stroke="#585757" stroke-width="0.3"/>
<path d="M9.44267 6.64624V11.2795C9.45532 11.4099 9.41236 11.5397 9.32425 11.6367C9.23615 11.7337 9.1113 11.789 8.98024 11.789C8.84917 11.789 8.72432 11.7337 8.63622 11.6367C8.54811 11.5397 8.50515 11.4099 8.5178 11.2795V6.64624C8.53285 6.49162 8.62411 6.35479 8.76107 6.28151C8.89802 6.20812 9.06246 6.20812 9.19941 6.28151C9.33648 6.35479 9.42774 6.49163 9.44267 6.64624Z" fill="#585757" stroke="#585757" stroke-width="0.3"/>
<path d="M11.7561 6.64624V11.2795C11.7688 11.4099 11.7258 11.5397 11.6377 11.6367C11.5497 11.7337 11.4248 11.789 11.2937 11.789C11.1628 11.789 11.0378 11.7337 10.9497 11.6367C10.8617 11.5397 10.8186 11.4099 10.8313 11.2795V6.64624C10.8463 6.49162 10.9376 6.35479 11.0745 6.28151C11.2115 6.20812 11.376 6.20812 11.513 6.28151C11.6499 6.35479 11.7412 6.49163 11.7561 6.64624Z" fill="#585757" stroke="#585757" stroke-width="0.3"/>
</svg>
