<svg width="16" height="24" viewBox="0 0 16 24" fill="none" xmlns="http://www.w3.org/2000/svg">
<path d="M1 1.51579C1 1.23096 1.22719 1 1.50736 1C1.78754 1 2.01472 1.23096 2.01472 1.51579V3.2257H14.4926C14.7728 3.2257 15 3.45666 15 3.74148C15 3.84859 14.9675 3.94896 14.9119 4.0318L12.0727 8.89263L14.9285 13.7819C15.071 14.0264 14.9908 14.3422 14.7503 14.4864C14.6695 14.5349 14.5807 14.5584 14.4926 14.5578V14.5592H2.01472V22.4842C2.01472 22.769 1.78753 23 1.50736 23C1.22718 23 1 22.769 1 22.4842L1 1.51579ZM2.01429 4.25747V13.5274H13.6026L11.0523 9.1608C10.9575 9.00389 10.9495 8.79986 11.0482 8.63014L13.6026 4.25675H2.01426L2.01429 4.25747Z" fill="#A6A4A4" stroke="#A6A4A4"/>
</svg>
