<svg width="18" height="18" viewBox="0 0 18 18" fill="none" xmlns="http://www.w3.org/2000/svg">
<path d="M1.19771 13.547L4.35625 16.7055L0.873766 17.8619H0.873913C0.805179 17.8821 0.734084 17.8932 0.662545 17.895C0.449262 17.8956 0.248961 17.7932 0.124467 17.6202C-2.3803e-05 17.4472 -0.0335055 17.2247 0.034787 17.0228L1.19771 13.547Z" fill="#A6A4A4"/>
<path d="M1.96289 12.4414L12.5919 1.81238L16.0875 5.30796L5.45847 15.937L1.96289 12.4414Z" fill="#A6A4A4"/>
<path d="M17.915 2.65705C17.9178 3.18335 17.7082 3.68835 17.3336 4.05801L17.0229 4.37514L13.5273 0.879556L13.838 0.562433C14.215 0.201502 14.7169 0 15.2388 0C15.7608 0 16.2626 0.201483 16.6398 0.562433L17.3336 1.25627C17.7072 1.62649 17.9166 2.13109 17.915 2.65709L17.915 2.65705Z" fill="#A6A4A4"/>
</svg>
