<svg width="25" height="23" viewBox="0 0 25 23" fill="none" xmlns="http://www.w3.org/2000/svg">
<path d="M24.9983 1.3339C24.9983 0.600025 24.3981 0 23.6642 0H1.33411C0.600232 0 0 0.600181 0 1.3339V14.8228L0.000201951 14.8226V15.0896H0.10158L3.94437e-07 15.3172V15.8233L0.327362 15.0894H0.54769L0.0208195 16.271C0.0393988 16.3746 0.0700954 16.4748 0.113517 16.5693L0.773721 15.0896H0.994049L0.238976 16.7824C0.283204 16.8438 0.333287 16.9013 0.387411 16.9552L1.21988 15.0892H1.44041L0.546573 17.0923C0.602109 17.1331 0.661486 17.1697 0.723081 17.203L1.66598 15.0892H1.88651L0.905612 17.288C0.969631 17.3122 1.03668 17.3314 1.10474 17.3476L2.11226 15.0893H2.33259L1.3095 17.3829C1.36221 17.3881 1.41573 17.3914 1.47026 17.3914H1.53165L2.55856 15.0893H2.77889L1.75198 17.3914H1.97776L3.00467 15.0893H3.225L2.19809 17.3914H2.42387L3.45078 15.0893H3.67111L2.6442 17.3914H2.86998L3.89689 15.0893H4.11722L3.09031 17.3914H3.31609L4.343 15.0893H4.56353L3.53662 17.3914H3.76241L4.78931 15.0893H5.00985L3.98294 17.3914H4.20872L5.23563 15.0893H5.45596L4.42905 17.3914H4.65483L5.68174 15.0893H5.90207L4.87516 17.3914H5.10094L6.12785 15.0893H6.34818L5.32127 17.3914H5.54705L6.57396 15.0893H6.79429L5.76738 17.3914H5.99316L7.02007 15.0893H7.2404L6.21349 17.3914H6.43927L7.46618 15.0893H7.68671L6.6598 17.3914H6.88558L7.91249 15.0893H8.13302L7.10611 17.3914H7.33189L8.3588 15.0893H8.57913L7.55222 17.3914H7.77801L8.80491 15.0893H9.02544L7.99854 17.3914H8.22432L9.25123 15.0893H9.47155L8.44465 17.3914H8.67043L9.69734 15.0893H9.91767L8.89076 17.3914H9.11654L10.1434 15.0893H10.3638L9.33687 17.3914H9.56265L10.5896 15.0893H10.8099L9.78298 17.3914H10.0088L11.0357 15.0893H11.256L10.2291 17.3914H10.4549L11.4818 15.0893H11.7021L10.6752 17.3914H10.9014L11.9283 15.0893H12.1486L11.1217 17.3914H11.3479L12.3748 15.0893H12.5949L11.568 17.3914H11.7942L12.8211 15.0893H13.0414L12.0145 17.3914H12.2407L13.2676 15.0893H13.488L12.4611 17.3914H12.6872L13.7141 15.0893H13.9343L12.9074 17.3914H13.1336L14.1605 15.0893H14.3808L13.3539 17.3914H13.5801L14.607 15.0893H14.8273L13.8004 17.3914H14.0266L15.0535 15.0893H15.2736L14.2467 17.3914H14.4729L15.4998 15.0893H15.7201L14.6932 17.3914H14.9194L15.9463 15.0893H16.1666L15.1397 17.3914H15.3659L16.3928 15.0893H16.613L15.586 17.3914H15.8122L16.8391 15.0893H17.0595L16.0326 17.3914H16.2587L17.2857 15.0893H17.506L16.4791 17.3914H16.7053L17.7322 15.0893H17.9525L16.9256 17.3914H17.1518L18.1787 15.0893H18.399L17.3721 17.3914H17.5983L18.6252 15.0893H18.8453L17.8184 17.3914H18.0446L19.0715 15.0893H19.2918L18.2649 17.3914H18.4911L19.518 15.0893H19.7383L18.7114 17.3914H18.9376L19.9645 15.0893H20.1847L19.1578 17.3914H19.3839L20.4108 15.0893H20.6312L19.6043 17.3914L19.8282 17.3912L20.8551 15.0891H21.0755L20.0486 17.3912H20.2747L21.3016 15.0891H21.5218L20.4949 17.3912H20.7211L21.748 15.0891H21.9683L20.9414 17.3912H21.1676L22.1945 15.0891H22.4148L21.3879 17.3912H21.6141L22.641 15.0891H22.8611L21.8342 17.3912H22.0604L23.0873 15.0891H23.3076L22.2807 17.3912H22.5069L23.5338 15.0891H23.7541L22.7272 17.3912H22.9534L23.9803 15.0891H24.2007L23.1737 17.3912H23.3999L24.4268 15.0891H24.647L23.6221 17.3867C23.7041 17.3821 23.7842 17.3716 23.862 17.3552L24.8728 15.0891H24.9998V14.804L25 14.8038V14.5982H24.9998L24.999 1.33361L24.9983 1.3339ZM24.0925 14.1838H0.905777V1.3339C0.905777 1.10024 1.10005 0.905766 1.33371 0.905766H23.6643C23.898 0.905766 24.0924 1.10024 24.0924 1.3339L24.0925 14.1838Z" fill="#FF3E1D"/>
<path d="M24.4118 17.1206L24.9987 15.8051V15.2984L24.1147 17.2799C24.2212 17.2375 24.3203 17.1838 24.4118 17.1206Z" fill="#FF3E1D"/>
<path d="M14.7114 17.5104H10.2869L9.65761 19.9821L7.49512 21.796V22.1846H17.5036V21.796L15.3409 19.9821L14.7114 17.5104Z" fill="#FF3E1D"/>
</svg>
