<svg width="22" height="28" viewBox="0 0 22 28" fill="none" xmlns="http://www.w3.org/2000/svg">
<path d="M4.19663 13.0269C3.78287 13.0269 3.44701 12.7481 3.44701 12.4046C3.44701 12.061 3.78288 11.7822 4.19663 11.7822H17.8011C18.2149 11.7822 18.5507 12.061 18.5507 12.4046C18.5507 12.7481 18.2149 13.0269 17.8011 13.0269H4.19663ZM13.4753 17.1339C13.4753 17.4774 13.1394 17.7563 12.7257 17.7563C12.3119 17.7563 11.9761 17.4774 11.9761 17.1339C11.9761 17.0328 11.895 16.9308 11.7662 16.8483L11.7476 16.8362C11.5636 16.7238 11.2996 16.6543 10.9993 16.6543C10.6898 16.6543 10.4201 16.7279 10.2353 16.8453C10.1043 16.929 10.0225 17.0319 10.0225 17.1337C10.0225 17.2504 10.1273 17.3811 10.2964 17.5154C10.5505 17.7183 10.9196 17.9067 11.333 18.0788C11.873 18.3034 12.3686 18.5612 12.7382 18.8559C13.1932 19.2185 13.4756 19.6404 13.4756 20.1322C13.4756 20.6393 13.169 21.089 12.6737 21.4047L12.6457 21.4216C12.3898 21.5792 12.0846 21.7013 11.749 21.7758V22.1219C11.749 22.4654 11.4131 22.7443 10.9994 22.7443C10.5856 22.7443 10.2497 22.4654 10.2497 22.1219V21.7758C9.90002 21.6985 9.58324 21.5692 9.32214 21.4025C8.82919 21.0876 8.52335 20.6389 8.52335 20.1321C8.52335 19.7886 8.85921 19.5098 9.27296 19.5098C9.68672 19.5098 10.0226 19.7886 10.0226 20.1321C10.0226 20.2335 10.1044 20.3368 10.2353 20.4206C10.4199 20.5382 10.6899 20.6115 10.9993 20.6115C11.2999 20.6115 11.5636 20.5421 11.7477 20.4297L11.7662 20.4175C11.8954 20.3353 11.9761 20.2331 11.9761 20.1319C11.9761 20.0154 11.8708 19.885 11.7017 19.7502C11.4476 19.5477 11.0791 19.3589 10.6656 19.1868C10.1256 18.9622 9.63055 18.7051 9.25992 18.4097C8.80487 18.0473 8.52309 17.6259 8.52309 17.1335C8.52309 16.6267 8.8289 16.1782 9.32189 15.8631C9.583 15.6962 9.89978 15.5669 10.2495 15.4898V15.1437C10.2495 14.8002 10.5853 14.5213 10.9991 14.5213C11.4129 14.5213 11.7487 14.8002 11.7487 15.1437V15.4898C12.0841 15.5645 12.3896 15.6864 12.6455 15.844L12.6734 15.8609C13.1687 16.1765 13.4753 16.6263 13.4753 17.1335L13.4753 17.1339ZM5.94369 2.19075H7.69545C7.83607 1.67448 8.17873 1.14976 8.64974 0.789712C9.26005 0.301002 10.0889 0 10.9998 0C11.935 0 12.7823 0.315318 13.3955 0.824212C13.8399 1.19313 14.1611 1.66381 14.3046 2.19075H16.0558C16.4369 2.19075 16.7848 2.32074 17.0375 2.52994C17.2921 2.74196 17.4487 3.0308 17.4487 3.34721V3.79512H20.1633C20.6688 3.79512 21.1286 3.96677 21.461 4.2426C21.7935 4.51864 22 4.89992 22 5.3192V26.4762C22 26.8928 21.7919 27.2739 21.46 27.5499C21.1247 27.8277 20.6657 28 20.1633 28H1.83617C1.33067 28 0.870903 27.8283 0.538954 27.5527C0.194987 27.2396 0 26.9078 0 26.4761V5.31918C0 4.90166 0.207011 4.52036 0.540258 4.2437C0.871418 3.96657 1.33015 3.79514 1.83614 3.79514H4.55129V3.34722C4.55129 3.03082 4.70785 2.74195 4.95982 2.53212C5.21518 2.32075 5.56307 2.19077 5.94416 2.19077L5.94369 2.19075ZM17.4485 5.03988V5.48779C17.4485 5.80593 17.292 6.09562 17.04 6.30462C16.7878 6.51403 16.4391 6.64424 16.0556 6.64424H5.94393C5.56075 6.64424 5.21185 6.51425 4.95959 6.30462C4.70789 6.09563 4.55106 5.80592 4.55106 5.48779V5.03988H1.83591C1.74391 5.03988 1.65896 5.07178 1.59832 5.12213C1.53638 5.17139 1.49926 5.24148 1.49926 5.31918V26.4761C1.49926 26.5451 1.52853 26.6081 1.57662 26.6558L1.59832 26.6732C1.65896 26.7235 1.74338 26.7552 1.83591 26.7552H20.163C20.2551 26.7552 20.3405 26.7235 20.4017 26.6736C20.4623 26.6226 20.5005 26.5523 20.5005 26.4764V5.3194C20.5005 5.24301 20.4621 5.1727 20.4014 5.12235C20.3408 5.072 20.2558 5.0401 20.1633 5.0401H17.4487L17.4485 5.03988ZM8.36189 3.43551H6.05082V5.39927H15.9491V3.43551H13.6386C13.2248 3.43551 12.8889 3.15665 12.8889 2.81313C12.8889 2.37954 12.6775 1.9872 12.3361 1.70376C11.995 1.42055 11.5222 1.24478 11 1.24478C10.4924 1.24478 10.0316 1.40949 9.69519 1.67663C9.31986 2.00584 9.11154 2.35045 9.11154 2.81311C9.11154 3.15664 8.77564 3.43551 8.36189 3.43551ZM7.01736 9.7571C6.60361 9.7571 6.26775 9.47824 6.26775 9.13472C6.26775 8.7912 6.60361 8.51234 7.01736 8.51234H14.9825C15.3963 8.51234 15.7322 8.7912 15.7322 9.13472C15.7322 9.47824 15.3963 9.7571 14.9825 9.7571H7.01736ZM4.19736 25.4841C3.78361 25.4841 3.44775 25.2053 3.44775 24.8617C3.44775 24.5182 3.78361 24.2394 4.19736 24.2394H17.8019C18.2156 24.2394 18.5515 24.5182 18.5515 24.8617C18.5515 25.2053 18.2156 25.4841 17.8019 25.4841H4.19736Z" fill="#A6A4A4"/>
</svg>
