<svg width="14" height="14" viewBox="0 0 14 14" fill="none" xmlns="http://www.w3.org/2000/svg">
<path d="M13.3857 6.09763L7.49798 0.20301C7.36589 0.0719759 7.18704 -0.00115926 7.00093 1.38993e-05H0.700069C0.514419 1.38993e-05 0.33627 0.0737342 0.205002 0.205003C0.0737339 0.336271 1.38734e-05 0.514406 1.38734e-05 0.700072V7.00095C-0.00115818 7.18707 0.0719758 7.36592 0.20301 7.498L6.09761 13.3857C6.49142 13.779 7.02528 14 7.58189 14C8.13849 14 8.67223 13.7791 9.06604 13.3857L13.3857 9.10113C13.779 8.70732 14 8.17346 14 7.61697C14 7.06036 13.7791 6.5265 13.3857 6.13269L13.3857 6.09763ZM12.3986 8.07194L8.07201 12.3913L8.0719 12.3915C7.94075 12.5218 7.7633 12.595 7.57836 12.595C7.39341 12.595 7.21597 12.5218 7.08482 12.3915L1.39995 6.71377V1.40002H6.71367L12.3982 7.08462V7.08474C12.5294 7.21682 12.6024 7.39567 12.6014 7.58179C12.6005 7.76544 12.5276 7.94148 12.3982 8.07181L12.3986 8.07194Z" fill="#585757"/>
</svg>
