<svg width="37" height="28" viewBox="0 0 37 28" fill="none" xmlns="http://www.w3.org/2000/svg">
<path d="M6.84119 18.8493C6.7116 18.8489 6.58436 18.8153 6.47161 18.7513C6.11011 18.5467 5.98186 18.0882 6.18517 17.7258L9.955 10.9401C10.1634 10.5779 10.6258 10.453 10.988 10.6614C11.3501 10.8694 11.475 11.3319 11.267 11.694L7.49718 18.4797C7.35985 18.7113 7.11013 18.852 6.84119 18.8493Z" fill="#585757"/>
<path d="M14.381 18.8493C14.109 18.8489 13.8582 18.7019 13.7249 18.4649L9.95511 11.6792C9.74709 11.3167 9.87197 10.8542 10.2341 10.6462C10.5963 10.4379 11.0588 10.5627 11.2671 10.9253L15.037 17.711C15.14 17.8853 15.1686 18.094 15.1161 18.2896C15.0635 18.4854 14.9346 18.6517 14.7579 18.7514C14.6431 18.8163 14.5129 18.8503 14.381 18.8493Z" fill="#585757"/>
<path d="M13.1749 16.6701H8.04791C7.63155 16.6701 7.29395 16.3328 7.29395 15.9161C7.29395 15.4998 7.63155 15.1622 8.04791 15.1622H13.1749C13.5912 15.1622 13.9288 15.4998 13.9288 15.9161C13.9288 16.3328 13.5912 16.6701 13.1749 16.6701Z" fill="#585757"/>
<path d="M29.4603 6.03187H23.4285C23.0122 6.03187 22.6746 5.69427 22.6746 5.27791C22.6746 4.86155 23.0122 4.52394 23.4285 4.52394H29.4603C29.8766 4.52394 30.2142 4.86155 30.2142 5.27791C30.2142 5.69427 29.8766 6.03187 29.4603 6.03187Z" fill="#585757"/>
<path d="M26.4444 6.03186C26.028 6.03186 25.6904 5.69425 25.6904 5.27789V3.76996C25.6904 3.3536 26.028 3.01599 26.4444 3.01599C26.8608 3.01599 27.1984 3.3536 27.1984 3.76996V5.27789C27.1984 5.47782 27.1189 5.66969 26.9776 5.81105C26.8362 5.95242 26.6443 6.03186 26.4444 6.03186Z" fill="#585757"/>
<path d="M24.9365 11.3096C24.6528 11.3086 24.3933 11.1484 24.2654 10.8949C24.0792 10.5243 24.2277 10.0726 24.5972 9.88445C25.4643 9.44722 26.8969 6.75553 27.6131 4.99108V4.99142C27.675 4.78811 27.8198 4.62015 28.012 4.52927C28.2042 4.43839 28.4256 4.43301 28.6222 4.51413C28.8188 4.59525 28.9716 4.75547 29.0436 4.9554C29.1156 5.15567 29.1002 5.37647 29.0005 5.56429C28.6686 6.36336 26.9272 10.3897 25.2307 11.2265V11.2268C25.1398 11.2756 25.0395 11.3039 24.9365 11.3096Z" fill="#585757"/>
<path d="M29.4603 11.3096C29.3122 11.3113 29.1671 11.2666 29.0456 11.1814L24.5218 8.16553C24.2185 7.92151 24.1512 7.48663 24.3663 7.16185C24.5814 6.83738 25.0082 6.73001 25.3512 6.91412L29.875 9.92998C30.1493 10.1144 30.2718 10.4561 30.1766 10.7728C30.0813 11.0895 29.7908 11.3069 29.4603 11.3096Z" fill="#585757"/>
<path d="M30.9682 20.3572C30.744 20.3576 30.5313 20.2583 30.3875 20.0859L26.8213 15.8334H21.1666C20.7502 15.8334 20.4126 15.4958 20.4126 15.0794C20.4126 14.6631 20.7502 14.3255 21.1666 14.3255H27.1983C27.4225 14.3251 27.6352 14.4244 27.7789 14.5967L30.2142 17.522V15.0794C30.2142 14.663 30.5518 14.3254 30.9682 14.3254H32.9436C33.6188 14.3234 34.2658 14.0544 34.7434 13.5768C35.2211 13.0992 35.49 12.4522 35.492 11.777V4.05625C35.49 3.38105 35.2211 2.7341 34.7434 2.25647C34.2658 1.77884 33.6189 1.50991 32.9436 1.50789H19.1913C18.5161 1.50991 17.8691 1.77884 17.3915 2.25647C16.9139 2.7341 16.645 3.38104 16.6429 4.05625V7.53966C16.6429 7.95602 16.3053 8.29363 15.889 8.29363C15.4726 8.29363 15.135 7.95602 15.135 7.53966V4.05625C15.135 2.98054 15.5625 1.94885 16.3232 1.18817C17.0839 0.427469 18.1155 0 19.1913 0H32.9436C34.0193 0 35.051 0.427469 35.8117 1.18817C36.5724 1.94886 36.9999 2.98054 36.9999 4.05625V11.777C36.9999 12.8528 36.5724 13.8844 35.8117 14.6451C35.051 15.4058 34.0193 15.8333 32.9436 15.8333H31.7221V19.6031C31.7221 19.9205 31.5232 20.2039 31.2246 20.312C31.1421 20.3416 31.0556 20.3571 30.9681 20.3571L30.9682 20.3572Z" fill="#585757"/>
<path d="M5.33341 27.1429C5.20147 27.1439 5.0712 27.1099 4.95643 27.045C4.72215 26.9097 4.57844 26.6592 4.57944 26.3889V22.6191H4.11191C3.03749 22.6191 2.00684 22.1927 1.2465 21.4336C0.485803 20.6746 0.0576459 19.6446 0.0556641 18.5703V10.8421C0.0556641 9.76636 0.483133 8.73468 1.24383 7.97399C2.00452 7.2133 3.0362 6.78583 4.11191 6.78583H17.872C18.9464 6.78785 19.9764 7.21599 20.7354 7.97666C21.4944 8.73702 21.9209 9.76766 21.9209 10.8421V18.5703C21.9188 19.6437 21.4917 20.6723 20.7327 21.431C19.974 22.19 18.9454 22.6171 17.872 22.6191H13.3482L5.71058 27.0449C5.59581 27.1099 5.46554 27.1439 5.3336 27.1429L5.33341 27.1429ZM4.1119 8.29376C3.43602 8.29376 2.78776 8.56236 2.31013 9.04032C1.83217 9.51795 1.56357 10.1662 1.56357 10.8421V18.5703C1.56357 19.2455 1.83217 19.8931 2.31047 20.3697C2.78843 20.8463 3.43668 21.1133 4.11189 21.1112H5.3334C5.53334 21.1112 5.7252 21.1907 5.86656 21.332C6.00793 21.4734 6.08737 21.6653 6.08737 21.8652V25.0847L12.7977 21.2091C12.9135 21.1458 13.0427 21.1122 13.1746 21.1112H17.8718C18.5457 21.1112 19.1919 20.8436 19.6686 20.367C20.1453 19.8904 20.4128 19.2441 20.4128 18.5702V10.842C20.4148 10.1668 20.1479 9.51856 19.6713 9.04059C19.1947 8.56229 18.547 8.29369 17.8718 8.29369L4.1119 8.29376Z" fill="#585757"/>
</svg>
