<svg width="25" height="18" viewBox="0 0 25 18" fill="none" xmlns="http://www.w3.org/2000/svg">
<path d="M3.81733 0H21.0978C21.6337 0 22.0694 0.347888 22.0694 0.77562V10.6888C22.0694 11.1165 21.6337 11.4644 21.0978 11.4644H3.81733C3.28145 11.4644 2.8457 11.1165 2.8457 10.6888V0.77562C2.8457 0.347888 3.28142 0 3.81733 0ZM21.0978 0.531354H3.81733C3.64983 0.531354 3.51135 0.642053 3.51135 0.77562V10.6888C3.51135 10.8226 3.65 10.9331 3.81733 10.9331H21.0978C21.2653 10.9331 21.4038 10.8224 21.4038 10.6888V0.77562C21.4038 0.641873 21.2651 0.531354 21.0978 0.531354Z" fill="#585757"/>
<path d="M22.252 11.9925L25 16.1813C24.8439 16.6157 24.6639 17.0008 24.1759 17.1094H0.805065C0.294776 16.9696 -0.0438516 16.5929 0.00460346 16.0441L2.66174 11.9927H22.2519L22.252 11.9925ZM21.8937 12.6583H3.02039L0.671551 16.239C0.733981 16.321 0.812559 16.3871 0.898031 16.4437H24.0914C24.1631 16.3963 24.2138 16.3315 24.2551 16.2575L21.8936 12.6583L21.8937 12.6583Z" fill="#585757"/>
<path fill-rule="evenodd" clip-rule="evenodd" d="M3.17845 13.0192H21.7363L22.5722 14.9214H2.34277L3.17845 13.0192Z" fill="#585757"/>
</svg>
