<svg width="18" height="26" viewBox="0 0 18 26" fill="none" xmlns="http://www.w3.org/2000/svg">
<path d="M9.00006 1C4.58825 1 1 4.54862 1 8.9118C1 10.6236 2.04567 12.8323 2.72415 14.0783L8.51729 24.7184L8.5171 24.7185C8.61428 24.8921 8.7992 25 8.9999 25C9.2006 25 9.38553 24.8921 9.48271 24.7185L15.2758 14.0785C15.9543 12.8324 17 10.6239 17 8.91199C17 4.54886 13.4118 1.00019 8.99994 1.00019L9.00006 1ZM9.00006 2.09119C12.8155 2.09119 15.8967 5.13835 15.8967 8.9117C15.8967 10.1323 14.9399 12.4021 14.3105 13.5582L9.00011 23.3115L3.68972 13.5582C3.06031 12.4021 2.10355 10.1323 2.10355 8.9117C2.10355 5.13835 5.18471 2.09119 9.00016 2.09119H9.00006ZM9.00006 4.81939C6.72132 4.81939 4.8621 6.65811 4.8621 8.9117C4.8621 11.1653 6.72132 13.004 9.00006 13.004C11.2788 13.004 13.138 11.1653 13.138 8.9117C13.138 6.65811 11.2788 4.81939 9.00006 4.81939ZM9.00006 5.91058C10.6824 5.91058 12.0347 7.24764 12.0347 8.9117C12.0347 10.5755 10.6827 11.9128 9.00006 11.9128C7.31768 11.9128 5.96545 10.5758 5.96545 8.9117C5.96545 7.24789 7.31743 5.91058 9.00006 5.91058Z" fill="#9F9F9F" stroke="#A6A4A4"/>
</svg>
