<svg width="11" height="14" viewBox="0 0 11 14" fill="none" xmlns="http://www.w3.org/2000/svg">
<path d="M4.91572 13.7352L0.241419 9.24995C-0.080473 8.94107 -0.080473 8.4411 0.241419 8.14701C0.563311 7.83814 1.08435 7.83814 1.39084 8.14701L4.68584 11.3088L4.68584 0.779407C4.68584 0.352992 5.05368 0 5.49809 0C5.94251 0 6.31035 0.352965 6.31035 0.779407L6.31035 11.2941L9.60535 8.14701C9.92724 7.83814 10.4483 7.83814 10.7548 8.14701C10.9081 8.29411 11 8.49998 11 8.70586C11 8.91174 10.9233 9.10294 10.7548 9.26471L6.06514 13.7647C5.91184 13.9118 5.6973 14 5.48274 14C5.28358 13.9706 5.06903 13.8823 4.91572 13.7352Z" fill="#F93131"/>
</svg>
