<svg width="30" height="20" viewBox="0 0 30 20" fill="none" xmlns="http://www.w3.org/2000/svg">
<path d="M18 15C18 13.8953 18.8953 13 20 13C21.1047 13 22 13.8953 22 15C22 16.1047 21.1047 17 20 17C18.8953 17 18 16.1047 18 15Z" fill="#FBA800"/>
<path d="M25 13C23.8953 13 23 13.8953 23 15C23 16.1047 23.8953 17 25 17C26.1047 17 27 16.1047 27 15C27 13.8953 26.1047 13 25 13Z" fill="#FBA800"/>
<path fill-rule="evenodd" clip-rule="evenodd" d="M3 0C1.34309 0 0 1.34309 0 3V17C0 18.6569 1.34309 20 3 20H27C28.6569 20 30 18.6569 30 17V3C30 1.34309 28.6569 0 27 0H3ZM28 4V3C28 2.44777 27.5522 2 27 2H3C2.44777 2 2 2.44777 2 3V4H28ZM2 8V17C2 17.5522 2.44777 18 3 18H27C27.5522 18 28 17.5522 28 17V8H2Z" fill="#FBA800"/>
</svg>
