<svg width="4" height="19" viewBox="0 0 4 19" fill="none" xmlns="http://www.w3.org/2000/svg">
<path fill-rule="evenodd" clip-rule="evenodd" d="M3.8 9.50001C3.8 10.5492 2.94923 11.4 1.9 11.4C0.850766 11.4 0 10.5492 0 9.50001C0 8.45077 0.850766 7.60001 1.9 7.60001C2.94923 7.60001 3.8 8.45077 3.8 9.50001Z" fill="#585757"/>
<path fill-rule="evenodd" clip-rule="evenodd" d="M3.8 1.9C3.8 2.94923 2.94923 3.8 1.9 3.8C0.850766 3.8 0 2.94923 0 1.9C0 0.850766 0.850766 0 1.9 0C2.94923 0 3.8 0.850766 3.8 1.9Z" fill="#585757"/>
<path fill-rule="evenodd" clip-rule="evenodd" d="M3.8 17.1C3.8 18.1492 2.94923 19 1.9 19C0.850766 19 0 18.1492 0 17.1C0 16.0508 0.850766 15.2 1.9 15.2C2.94923 15.2 3.8 16.0508 3.8 17.1Z" fill="#585757"/>
</svg>
