<svg width="20" height="27" viewBox="0 0 20 27" fill="none" xmlns="http://www.w3.org/2000/svg">
<path d="M10.1398 0.0013743C8.13703 -0.0379033 6.2035 0.766147 4.77397 2.23212C3.34428 3.69809 2.5389 5.70309 2.5391 7.79593V13.9317C2.53831 15.2129 2.22543 16.4727 1.62975 17.5924L0.201024 20.2747C-0.0734575 20.7901 -0.0664971 21.4188 0.219721 21.9273C0.50574 22.4358 1.02805 22.748 1.59254 22.748H7.10243V23.9725C7.10243 25.0541 7.65479 26.0535 8.55121 26.5943C9.44763 27.1352 10.5524 27.1352 11.4488 26.5943C12.3452 26.0535 12.8976 25.0541 12.8976 23.9725V22.748H18.4075C18.9719 22.748 19.4943 22.4358 19.7803 21.9273C20.0665 21.4187 20.0735 20.7901 19.799 20.2747L18.3703 17.5924C17.7746 16.4727 17.4617 15.2129 17.4609 13.9317L17.4611 8.03109C17.4611 3.68063 14.1766 0.0785166 10.139 0.0013743H10.1398ZM11.5613 23.9724V23.9722C11.5613 24.5549 11.2637 25.0934 10.7808 25.3848C10.2979 25.6759 9.70278 25.6759 9.21987 25.3848C8.73694 25.0934 8.43939 24.5549 8.43939 23.9722V22.7477H11.5612L11.5613 23.9724ZM18.6319 20.9539V20.9536C18.6758 21.0366 18.6748 21.1376 18.6289 21.2192C18.5827 21.3011 18.4988 21.3512 18.4081 21.3512H1.59275C1.50206 21.3512 1.41812 21.3011 1.37198 21.2192C1.32603 21.1376 1.32484 21.0366 1.36899 20.9536L2.79772 18.2713C3.50401 16.9438 3.87495 15.4502 3.87597 13.9315V7.79573C3.87577 6.0987 4.521 4.47106 5.66947 3.27088C6.81794 2.07071 8.37569 1.39638 10.0001 1.39638C10.0385 1.39638 10.0769 1.39659 10.1157 1.39721C13.4294 1.4608 16.1256 4.43677 16.1256 8.03091L16.1254 13.9315H16.1252C16.1262 15.4502 16.4972 16.9438 17.2035 18.2714L18.6319 20.9539Z" fill="#585757"/>
</svg>
