<svg width="25" height="24" viewBox="0 0 25 24" fill="none" xmlns="http://www.w3.org/2000/svg">
<path fill-rule="evenodd" clip-rule="evenodd" d="M12.4108 0.00555055C12.3505 0.0124699 12.2912 0.0267162 12.2341 0.0482885L0.483961 4.59132C0.357378 4.63793 0.245985 4.71832 0.162279 4.82353C0.160433 4.82577 0.158381 4.82821 0.156534 4.83066C0.0783695 4.93099 0.0276987 5.04984 0.0100522 5.17541C0.00943668 5.1807 0.00902636 5.18579 0.00861608 5.19108C0.00389752 5.21937 0.00102571 5.24786 0 5.27655V18.7219C0.00164123 19.0209 0.187306 19.2885 0.468164 19.3972L0.466727 19.4002L12.2337 23.9504H12.2335C12.405 24.0165 12.595 24.0165 12.7665 23.9504L24.5335 19.4002L24.532 19.3972H24.5318C24.8127 19.2885 24.9981 19.0211 25 18.7221V5.27676C25.0012 4.94809 24.7807 4.65949 24.4615 4.57159L20.0829 2.87773L20.0599 2.82217L19.9996 2.84639L12.7661 0.0484833H12.7663C12.6528 0.00533855 12.5305 -0.00931597 12.4101 0.00574552L12.4108 0.00555055ZM12.5013 1.50852L14.2102 2.16956L4.46205 5.93621L2.75312 5.27663L12.5013 1.50852ZM16.2322 2.95163L17.9971 3.63403L8.34508 7.43626L6.48536 6.71828L16.2322 2.95163ZM20.0091 4.41182L22.2436 5.27657L12.5013 9.04036L10.3572 8.21265L20.0091 4.41182ZM23.5303 6.34358V18.2192L13.2339 22.2023V10.3241L23.5303 6.34358ZM1.47217 6.345L3.88623 7.2781V11.7813C3.88684 12.0813 4.07271 12.3503 4.35439 12.4594L7.42042 13.6447C7.64609 13.7302 7.89946 13.7006 8.09866 13.5651C8.29807 13.4298 8.41747 13.2061 8.41849 12.9666V9.03041L11.7631 10.3225V22.2007L1.47195 18.2204L1.47217 6.345ZM5.35246 7.8451L6.95084 8.46196C6.94982 8.46807 6.94879 8.47417 6.94797 8.48048V11.8995L5.35248 11.2813L5.35246 7.8451Z" fill="#8592A3"/>
</svg>
