<svg width="21" height="26" viewBox="0 0 21 26" fill="none" xmlns="http://www.w3.org/2000/svg">
<path d="M20.996 18.5064C21.0013 18.5599 21.0013 18.6143 20.996 18.6678C20.9873 18.7022 20.9766 18.736 20.9636 18.7689V18.8174C20.9473 18.8537 20.9284 18.8886 20.907 18.9221V18.9545C20.8774 18.9982 20.8436 19.0387 20.8062 19.0756L14.3458 25.536C14.3089 25.5735 14.2683 25.6073 14.2247 25.6369H14.1923C14.1587 25.6583 14.1238 25.6771 14.0875 25.6935H14.0391L13.8895 25.7743C13.836 25.7797 13.7816 25.7797 13.7281 25.7743H3.2302C2.37342 25.7743 1.5519 25.4338 0.946326 24.828C0.340512 24.2224 0 23.4009 0 22.5441V3.97087C0 3.1141 0.340512 2.29258 0.946326 1.687C1.55186 1.08118 2.37342 0.740673 3.2302 0.740673H17.7658C18.6226 0.740673 19.4441 1.08118 20.0496 1.687C20.6555 2.29253 20.996 3.1141 20.996 3.97087L20.996 18.5064ZM14.5356 23.0164L18.2381 19.3139H14.5356V23.0164ZM17.7658 2.35587H3.23021C2.80183 2.35587 2.39117 2.52598 2.08813 2.82875C1.78536 3.1318 1.61525 3.54243 1.61525 3.97083V22.5441C1.61525 22.9724 1.78536 23.3831 2.08813 23.6861C2.39118 23.9889 2.80182 24.159 3.23021 24.159H12.9206V19.3139C12.9206 18.8855 13.0907 18.4749 13.3935 18.1718C13.6965 17.8691 14.1072 17.6989 14.5356 17.6989H19.3807V3.9709C19.3807 3.54252 19.2106 3.13186 18.9078 2.82882C18.6047 2.52606 18.1941 2.35594 17.7657 2.35594L17.7658 2.35587Z" fill="#A6A4A4"/>
<path d="M14.9396 8.81604H6.05673C5.61088 8.81604 5.24927 8.45469 5.24927 8.00858C5.24927 7.56274 5.6109 7.20112 6.05673 7.20112H14.9396C15.3854 7.20112 15.747 7.56275 15.747 8.00858C15.747 8.45471 15.3854 8.81604 14.9396 8.81604Z" fill="#A6A4A4"/>
<path d="M6.05673 12.0462H10.9021C11.348 12.0462 11.7096 12.4078 11.7096 12.8536C11.7096 13.2998 11.348 13.6614 10.9021 13.6614H6.05673C5.61088 13.6614 5.24927 13.2997 5.24927 12.8536C5.24927 12.4078 5.6109 12.0462 6.05673 12.0462Z" fill="#A6A4A4"/>
</svg>
