<svg width="29" height="24" viewBox="0 0 29 24" fill="none" xmlns="http://www.w3.org/2000/svg">
<path d="M12.0012 11.6359C15.2744 11.6359 17.8929 9.05012 17.8929 5.81793C17.8929 2.58575 15.2744 0 12.0012 0C8.72795 0 6.10938 2.58575 6.10938 5.81793C6.10938 9.05012 8.72795 11.6359 12.0012 11.6359ZM12.0012 2.15479C14.0742 2.15479 15.7108 3.77088 15.7108 5.81793C15.7108 7.86498 14.0742 9.48108 12.0012 9.48108C9.92812 9.48108 8.29152 7.86498 8.29152 5.81793C8.29152 3.77088 9.92812 2.15479 12.0012 2.15479Z" fill="#F93131"/>
<path d="M14.4021 13.3597H9.60143C4.25518 13.3597 0 17.6693 0 22.8408C0 23.4872 0.436428 23.9182 1.09107 23.9182C1.74571 23.9182 2.18214 23.4872 2.18214 22.8408C2.18214 18.7467 5.56446 15.5145 9.60143 15.5145H14.4021C18.5482 15.5145 21.8214 18.8544 21.8214 22.8408C21.8214 23.4872 22.2579 23.9182 22.9125 23.9182C23.5671 23.9182 24.0036 23.4872 24.0036 22.8408C24.0036 17.6693 19.6393 13.3597 14.4021 13.3597Z" fill="#F93131"/>
<path d="M28.4375 5.06246C28.6385 5.06246 28.8242 4.95525 28.9247 4.78123C29.0251 4.60721 29.0251 4.39277 28.9247 4.21877C28.8242 4.04475 28.6385 3.93754 28.4375 3.93754H25.0625V0.562462C25.0625 0.361467 24.9552 0.175785 24.7812 0.0753365C24.6072 -0.0251122 24.3928 -0.0251122 24.2188 0.0753365C24.0447 0.175785 23.9375 0.36149 23.9375 0.562462V3.93754H20.5625C20.3615 3.93754 20.1758 4.04475 20.0753 4.21877C19.9749 4.39279 19.9749 4.60723 20.0753 4.78123C20.1758 4.95525 20.3615 5.06246 20.5625 5.06246H23.9375V8.43754C23.9375 8.63853 24.0448 8.82421 24.2188 8.92466C24.3928 9.02511 24.6072 9.02511 24.7812 8.92466C24.9553 8.82421 25.0625 8.63851 25.0625 8.43754V5.06246H28.4375Z" fill="#F93131"/>
</svg>
