<svg width="23" height="25" viewBox="0 0 23 25" fill="none" xmlns="http://www.w3.org/2000/svg">
<path d="M4.56508 0.660152L4.59814 0.449652C4.65214 0.427611 4.68851 0.396752 4.65545 0.332831C4.67859 0.261195 4.70063 0.189559 4.72268 0.119026C4.97065 0.0650234 5.25168 0.229235 5.47209 0.00220465H6.46397C7.07453 0.24797 7.70603 0.0595135 8.32651 0.0936782H11.8345C13.0945 0.100291 14.3546 0.105801 15.6146 0.110209C15.7182 0.110209 15.835 0.135557 15.8956 0H16.0059C16.6671 0.20058 17.3702 0.276624 18.0139 0.560963C20.4704 1.64211 21.6331 3.72396 21.3653 6.52657C21.1614 8.6558 20.3856 10.5745 18.9044 12.0844C17.3041 13.7155 15.2972 14.6578 12.9531 14.714C11.419 14.7515 9.88486 14.7746 8.35185 14.7658C7.91102 14.7658 7.76003 14.9201 7.67627 15.3245C7.25417 17.3557 6.7946 19.3791 6.3736 21.4103C6.29205 21.8026 6.17192 21.9779 5.71235 21.9679C3.96003 21.9327 2.20551 21.9371 0.452083 21.9558C0.0112474 21.9558 -0.0570843 21.8456 0.0365933 21.4279C1.28563 15.7566 2.52327 10.083 3.74953 4.40725C4.00411 3.23573 4.24217 2.06091 4.48903 0.887182C4.52514 0.863172 4.55222 0.827819 4.56599 0.786706C4.57976 0.745593 4.57944 0.701063 4.56508 0.660152ZM11.9017 4.31909V4.30806C11.4267 4.30806 10.9506 4.3279 10.4767 4.30035C10.1813 4.28382 10.0755 4.38521 10.0149 4.67065C9.62697 6.48616 9.22581 8.29799 8.81143 10.1062C8.73538 10.4368 8.8478 10.4919 9.11891 10.4886C9.55974 10.4886 10.0006 10.4687 10.4337 10.4886C10.7048 10.5018 10.8095 10.4236 10.8657 10.1447C11.1049 8.94786 11.3826 7.7587 11.6295 6.56294C11.7099 6.175 11.8499 5.98765 12.3061 6.01189C13.125 6.06369 13.9494 6.03283 14.7715 6.04165C15.1561 6.04165 15.2752 5.93144 15.0581 5.55783C14.6073 4.77645 14.0144 4.26288 13.0523 4.30806C12.6698 4.33451 12.2863 4.31909 11.9028 4.31909H11.9017ZM15.2289 7.44571C15.2939 7.24734 15.2113 7.14374 14.96 7.14925C14.2315 7.16578 13.503 7.17019 12.7745 7.18121C12.628 7.18121 12.488 7.19554 12.4439 7.3895C12.2433 8.32738 12.0339 9.26305 11.8323 10.202C11.7959 10.3718 11.8267 10.4533 12.0527 10.4445C13.2782 10.3982 15.0867 8.72303 15.23 7.44571H15.2289Z" fill="#FF3E1D"/>
<path d="M11.9878 17.3513C10.9848 17.3513 10.1803 17.3701 9.3769 17.3425C9.01101 17.3304 8.87876 17.4527 8.80382 17.8098C8.36298 19.9115 7.88357 22.0055 7.44053 24.1071C7.35788 24.4995 7.20138 24.6174 6.79912 24.613C5.13606 24.5965 3.47301 24.6317 1.80996 24.613C1.57852 24.613 1.14871 24.8191 1.11785 24.3816C1.06164 23.6994 1.31182 23.4371 1.85515 23.4371C3.28125 23.4371 4.70735 23.415 6.13125 23.4492C6.55115 23.4591 6.65915 23.2916 6.73299 22.9422C7.17383 20.8758 7.64221 18.8149 8.06982 16.7463C8.15909 16.3121 8.31669 16.1721 8.77186 16.1787C10.3787 16.2008 11.9866 16.2228 13.5946 16.1247C16.8843 15.9252 20.0462 13.5535 21.1186 10.4467C21.5858 9.09118 21.9132 7.71357 21.7115 6.26432C21.6744 6.03056 21.624 5.79911 21.5605 5.57111C21.5318 5.4609 21.3566 5.34518 21.5517 5.26362C21.706 5.1986 21.7655 5.37383 21.8272 5.47302C22.1605 6.02129 22.3679 6.63675 22.4344 7.27494C22.8753 11.4794 20.5521 15.7467 15.9828 17.0427C15.6827 17.1207 15.3784 17.1814 15.0714 17.2246C13.9836 17.4075 12.8837 17.3183 11.9878 17.3513Z" fill="#FF3E1D" fill-opacity="0.2"/>
</svg>
