<svg width="25" height="26" viewBox="0 0 25 26" fill="none" xmlns="http://www.w3.org/2000/svg">
<path d="M12.0012 13.6359C15.2744 13.6359 17.8929 11.0501 17.8929 7.81793C17.8929 4.58575 15.2744 2 12.0012 2C8.72795 2 6.10938 4.58575 6.10938 7.81793C6.10938 11.0501 8.72795 13.6359 12.0012 13.6359ZM12.0012 4.15479C14.0742 4.15479 15.7108 5.77088 15.7108 7.81793C15.7108 9.86498 14.0742 11.4811 12.0012 11.4811C9.92812 11.4811 8.29152 9.86498 8.29152 7.81793C8.29152 5.77088 9.92812 4.15479 12.0012 4.15479Z" fill="#FBA800"/>
<path d="M14.4021 15.3597H9.60143C4.25518 15.3597 0 19.6693 0 24.8408C0 25.4872 0.436428 25.9182 1.09107 25.9182C1.74571 25.9182 2.18214 25.4872 2.18214 24.8408C2.18214 20.7467 5.56446 17.5145 9.60143 17.5145H14.4021C18.5482 17.5145 21.8214 20.8544 21.8214 24.8408C21.8214 25.4872 22.2579 25.9182 22.9125 25.9182C23.5671 25.9182 24.0036 25.4872 24.0036 24.8408C24.0036 19.6693 19.6393 15.3597 14.4021 15.3597Z" fill="#FBA800"/>
<path d="M18 2C19.5092 3.5942 21.6222 8.02609 18 13" stroke="#FBA800" stroke-width="1.5" stroke-linecap="round"/>
<path d="M22 1C23.5092 2.88406 25.6222 8.12174 22 14" stroke="#FBA800" stroke-width="1.5" stroke-linecap="round"/>
</svg>
