<svg width="17" height="27" viewBox="0 0 17 27" fill="none" xmlns="http://www.w3.org/2000/svg">
<path d="M13.0984 0H3.90162C2.867 0.000790555 1.87502 0.412075 1.14356 1.14356C0.412101 1.87502 0.000809529 2.86695 0 3.90162V23.0151C0.000790555 24.0497 0.412076 25.0417 1.14356 25.7732C1.87502 26.5046 2.86695 26.9159 3.90162 26.9167H13.0984C14.133 26.9159 15.125 26.5046 15.8564 25.7732C16.5879 25.0417 16.9992 24.0498 17 23.0151V3.90162C16.9992 2.867 16.5879 1.87502 15.8564 1.14356C15.125 0.412101 14.1331 0.000809529 13.0984 0ZM15.5833 23.0154C15.5817 23.674 15.3194 24.3052 14.8538 24.7708C14.3881 25.2364 13.7569 25.4987 13.0984 25.5003H3.90162C3.24307 25.4987 2.61184 25.2365 2.14621 24.7708C1.68058 24.3052 1.41829 23.6739 1.41673 23.0154V3.90193C1.41831 3.24338 1.68057 2.61215 2.14621 2.14652C2.61185 1.68088 3.24312 1.4186 3.90162 1.41703H13.0984C13.7569 1.41861 14.3882 1.68087 14.8538 2.14652C15.3194 2.61216 15.5817 3.24343 15.5833 3.90193V23.0154Z" fill="#F93131"/>
<path d="M9.91636 22.6668C9.91636 23.4493 9.28214 24.0835 8.49968 24.0835C7.71722 24.0835 7.08301 23.4493 7.08301 22.6668C7.08301 21.8843 7.71722 21.2501 8.49968 21.2501C9.28214 21.2501 9.91636 21.8843 9.91636 22.6668Z" fill="#F93131"/>
</svg>
