<svg width="18" height="18" viewBox="0 0 18 18" fill="none" xmlns="http://www.w3.org/2000/svg">
<path d="M8.99826 8.75676C11.4528 8.75676 13.4164 6.81081 13.4164 4.37838C13.4164 1.94595 11.4528 0 8.99826 0C6.54371 0 4.58008 1.94595 4.58008 4.37838C4.58008 6.81081 6.54371 8.75676 8.99826 8.75676ZM8.99826 1.62162C10.5528 1.62162 11.7801 2.83784 11.7801 4.37838C11.7801 5.91892 10.5528 7.13514 8.99826 7.13514C7.44371 7.13514 6.21644 5.91892 6.21644 4.37838C6.21644 2.83784 7.44371 1.62162 8.99826 1.62162Z" fill="white"/>
<path d="M10.8 10.054H7.2C3.19091 10.054 0 13.2973 0 17.1892C0 17.6756 0.327273 18 0.818182 18C1.30909 18 1.63636 17.6756 1.63636 17.1892C1.63636 14.1081 4.17273 11.6756 7.2 11.6756H10.8C13.9091 11.6756 16.3636 14.1892 16.3636 17.1892C16.3636 17.6756 16.6909 18 17.1818 18C17.6727 18 18 17.6756 18 17.1892C18 13.2973 14.7273 10.054 10.8 10.054Z" fill="white"/>
</svg>
