<svg width="11" height="14" viewBox="0 0 11 14" fill="none" xmlns="http://www.w3.org/2000/svg">
<path d="M4.91572 0.264782L0.241419 4.75005C-0.080473 5.05893 -0.080473 5.5589 0.241419 5.85299C0.563311 6.16186 1.08435 6.16186 1.39084 5.85299L4.68584 2.69124L4.68584 13.2206C4.68584 13.647 5.05368 14 5.49809 14C5.94251 14 6.31035 13.647 6.31035 13.2206L6.31035 2.70594L9.60535 5.85299C9.92724 6.16186 10.4483 6.16186 10.7548 5.85299C10.9081 5.70589 11 5.50002 11 5.29414C11 5.08826 10.9233 4.89706 10.7548 4.73529L6.06514 0.235318C5.91184 0.0882179 5.6973 4.90074e-07 5.48274 4.90074e-07C5.28358 0.029441 5.06903 0.117685 4.91572 0.264782Z" fill="#7DC94F"/>
</svg>
