<svg width="16" height="17" viewBox="0 0 16 17" fill="none" xmlns="http://www.w3.org/2000/svg">
<path d="M0.31808 10.7248L0.00443685 13.9072C-0.0177018 14.1138 0.0436141 14.3206 0.174825 14.4817C0.30592 14.6428 0.496005 14.7448 0.702677 14.7651C0.909462 14.7855 1.11567 14.7223 1.27572 14.5898C1.43568 14.4573 1.53617 14.2664 1.55472 14.0595L1.64582 13.1344C1.84159 13.3825 2.05151 13.6191 2.27462 13.8428C3.78969 15.3575 5.84428 16.2084 7.98667 16.2084C10.129 16.2084 12.1836 15.3575 13.6987 13.8428C14.4111 13.1344 14.9825 12.2974 15.383 11.3762C15.4937 11.1208 15.4597 10.8258 15.2939 10.6023C15.128 10.3788 14.8556 10.2607 14.5791 10.2925C14.3026 10.3244 14.0641 10.5013 13.9535 10.7566C13.6309 11.4982 13.1707 12.1719 12.5973 12.7422C11.6906 13.6472 10.5374 14.2652 9.28169 14.5193C8.02604 14.7735 6.72319 14.6523 5.53607 14.171C4.34867 13.6898 3.32926 12.8696 2.60482 11.8129L3.8337 11.9947C4.0377 12.0248 4.24541 11.9728 4.41117 11.85C4.57692 11.7273 4.68715 11.5438 4.71775 11.3398C4.72343 11.3017 4.72632 11.2632 4.72632 11.2246C4.72609 11.038 4.65898 10.8576 4.53704 10.7164C4.41511 10.5752 4.24646 10.4824 4.06192 10.455L1.20774 10.0307C0.99678 9.99943 0.782345 10.056 0.614159 10.1871C0.446088 10.3183 0.339105 10.5126 0.318239 10.7248L0.31808 10.7248Z" fill="#585757"/>
<path d="M14.4442 2.14662L14.3531 3.07171C14.1573 2.82331 13.9474 2.58641 13.7242 2.36234C12.2081 0.849617 10.1539 -8.10623e-06 8.01214 -8.10623e-06C5.87046 -8.10623e-06 3.81609 0.849617 2.30009 2.36234C1.58806 3.07079 1.01674 3.90777 0.616391 4.82891C0.532357 5.01877 0.52772 5.23424 0.603293 5.42759C0.678867 5.62094 0.828505 5.77613 1.01895 5.85865C1.2094 5.94117 1.425 5.94431 1.61775 5.86734C1.81051 5.79026 1.96457 5.63946 2.0457 5.44845C2.36886 4.7071 2.82948 4.03364 3.40335 3.46372C4.30989 2.55869 5.46283 1.94042 6.71842 1.68624C7.97394 1.43194 9.27655 1.55295 10.4637 2.0341C11.651 2.51513 12.6703 3.3352 13.3947 4.39171L12.1664 4.20996H12.1663C11.891 4.16904 11.6149 4.278 11.4418 4.49591C11.2687 4.71382 11.225 5.00753 11.3271 5.26637C11.4294 5.52531 11.6619 5.70995 11.9371 5.75087L14.7913 6.17546C15.0021 6.20687 15.2166 6.15042 15.3847 6.01944C15.5529 5.88847 15.66 5.69432 15.681 5.48222L15.9957 2.2992C15.9983 2.27323 15.9997 2.24727 15.9997 2.22131C15.9997 1.95193 15.8606 1.70167 15.6318 1.55957C15.403 1.41735 15.117 1.40355 14.8756 1.52294C14.634 1.64221 14.4714 1.87786 14.4455 2.14596L14.4442 2.14662Z" fill="#585757"/>
</svg>
