<svg width="23" height="21" viewBox="0 0 23 21" fill="none" xmlns="http://www.w3.org/2000/svg">
<path d="M15.4121 0.000268734H4.7688C2.18382 0.000268734 0 2.07862 0 4.5389V21L1.7074 18.8178C3.63728 16.3512 6.02021 15.0557 8.75938 14.9673H15.4117C19.5961 14.9673 23 11.6102 23 7.48393C23 3.35741 19.5964 0 15.4123 0L15.4121 0.000268734ZM15.4121 13.0883L8.72927 13.0887C6.15175 13.1713 3.86563 14.094 1.90597 15.838V4.5391C1.90597 3.12227 3.24395 1.87978 4.76912 1.87978H15.4119C18.5449 1.87978 21.0945 4.39418 21.0945 7.4844C21.0945 10.5746 18.5449 13.0885 15.4119 13.0885L15.4121 13.0883Z" fill="#A6A4A4"/>
</svg>
