<svg width="12" height="14" viewBox="0 0 12 14" fill="none" xmlns="http://www.w3.org/2000/svg">
<path d="M8.28759 9.80463H3.7122C3.56144 9.80463 3.43945 9.9267 3.43945 10.0774C3.43945 10.228 3.56143 10.3501 3.7122 10.3501H8.28759C8.43835 10.3501 8.56033 10.228 8.56033 10.0774C8.56033 9.92681 8.43836 9.80463 8.28759 9.80463Z" fill="#696CFF"/>
<path d="M11.9208 2.2063C11.2635 1.53817 10.4917 0.755384 9.81538 0.0790405L9.73624 0H8.65351V4.37457C8.65351 4.82724 8.28532 5.19278 7.8353 5.19278H2.68631C2.23629 5.19278 1.86809 4.82734 1.86809 4.37457L1.86819 0H0.81811C0.365434 0 0 0.365434 0 0.818212V12.2728C0 12.7228 0.365434 13.091 0.818212 13.091H1.86819V7.89539C1.86819 7.44537 2.23639 7.07718 2.68641 7.07718H9.31359C9.76361 7.07718 10.1318 7.44537 10.1318 7.89539L10.1317 13.0907H11.1818C11.6318 13.0907 12 12.7225 12 12.2725L11.9999 2.28526L11.9208 2.2063Z" fill="#696CFF"/>
<path d="M7.50418 11.1681H4.49638C4.34562 11.1681 4.22363 11.2902 4.22363 11.4408C4.22363 11.5915 4.34561 11.7136 4.49638 11.7136H7.50418C7.65494 11.7136 7.77692 11.5915 7.77692 11.4408C7.77702 11.2902 7.65495 11.1681 7.50428 11.1681H7.50418Z" fill="#696CFF"/>
<path d="M7.50418 8.98641C7.65494 8.98641 7.77692 8.86434 7.77692 8.71366C7.77692 8.563 7.65495 8.44092 7.50418 8.44092H4.49638C4.34562 8.44092 4.22363 8.56299 4.22363 8.71366C4.22363 8.86432 4.34561 8.98641 4.49638 8.98641H7.50418Z" fill="#696CFF"/>
<path d="M5.65361 3.96004H7.01728C7.16725 3.96004 7.29003 3.83728 7.29003 3.6873V1.50553C7.29003 1.35556 7.16726 1.23279 7.01728 1.23279H5.65361C5.50364 1.23279 5.38086 1.35555 5.38086 1.50553V3.6873C5.38086 3.83736 5.50353 3.96004 5.65361 3.96004Z" fill="#696CFF"/>
</svg>
