<svg width="24" height="24" viewBox="0 0 24 24" fill="none" xmlns="http://www.w3.org/2000/svg">
<path fill-rule="evenodd" clip-rule="evenodd" d="M17.5273 15.7992L23.6431 21.9162C24.1189 22.392 24.1204 23.1621 23.6392 23.6436C23.1611 24.1215 22.3792 24.1148 21.9121 23.6475L15.7962 17.5305C11.9549 20.5206 6.39867 20.2499 2.86785 16.7184C-0.95595 12.8938 -0.95595 6.6928 2.86785 2.8684C6.69184 -0.956135 12.8915 -0.956135 16.7151 2.8684C20.246 6.39991 20.5166 11.9571 17.5271 15.7993L17.5273 15.7992ZM14.9844 14.9872C17.8524 12.1187 17.8524 7.46826 14.9844 4.59948C12.1165 1.73094 7.46696 1.73094 4.59874 4.59948C1.73076 7.46802 1.73076 12.1184 4.59874 14.9872C7.46672 17.8557 12.1162 17.8557 14.9844 14.9872Z" fill="#9F9F9F"/>
</svg>
