<svg width="24" height="18" viewBox="0 0 24 18" fill="none" xmlns="http://www.w3.org/2000/svg">
<path fill-rule="evenodd" clip-rule="evenodd" d="M16.8173 15.5978L10.8203 11.396L21.5531 3.11147L16.8173 15.5978ZM8.9593 14.8915L11.0889 13.4155L9.89578 12.5793L8.9593 14.8915ZM9.09667 10.831L15.4268 5.94556L7.06739 9.99584L7.5992 14.256L8.86106 11.1433H8.86123C8.91071 11.0202 8.99236 10.9126 9.09737 10.8316L9.09667 10.831ZM19.484 2.31261L1.50524 6.1112L6.28659 8.7067L19.484 2.31261ZM23.0949 0.0161785L1.18641 4.64517C0.784706 4.73029 0.435773 4.97681 0.220887 5.32681C0.00619173 5.67661 -0.0552225 6.09942 0.0508298 6.4961C0.156705 6.89279 0.421052 7.22841 0.781761 7.4246L5.55868 10.0179L6.44408 17.1248V17.1246C6.47626 17.3852 6.64252 17.6099 6.88212 17.717C7.1219 17.8241 7.40007 17.7979 7.61562 17.6481L12.3979 14.3336L15.9591 16.8295V16.8293C16.3374 17.0945 16.817 17.1701 17.2585 17.0341C17.7001 16.8983 18.0541 16.5662 18.2179 16.1342L23.9515 1.016C24.0153 0.847328 24.0162 0.661181 23.9541 0.49181C23.892 0.322443 23.7709 0.181275 23.6131 0.0939077C23.4551 0.00654058 23.2712 -0.0211394 23.0946 0.0162309L23.0949 0.0161785Z" fill="white"/>
</svg>
