<svg width="18" height="18" viewBox="0 0 18 18" fill="none" xmlns="http://www.w3.org/2000/svg">
<path fill-rule="evenodd" clip-rule="evenodd" d="M0.00107628 1.81566C0.00107628 0.812894 0.813976 0 1.81667 0C2.09183 0 2.36344 0.0625967 2.61092 0.182993L16.804 7.08819C17.5357 7.44416 18 8.1864 18 9C18 9.81359 17.5357 10.5558 16.804 10.9118L2.61092 17.817C2.36342 17.9374 2.09181 18 1.81667 18C0.81394 18 0.00107628 17.1871 0.00107628 16.1843C0.00107628 16.0265 -0.00974391 15.8667 0.0372331 15.714L1.67355 10.3958C1.75778 10.122 1.97912 9.91215 2.25717 9.84273L5.62732 9.0001L2.25717 8.15747C1.97913 8.08802 1.75781 7.87819 1.67355 7.6044L0.0372331 2.28621C-0.00974426 2.13349 0.00107628 1.97364 0.00107628 1.81586V1.81566ZM1.81667 1.63637C1.71765 1.63637 1.63738 1.71663 1.63738 1.81566V1.92236L3.10168 6.68163L9.19913 8.20598C9.56332 8.29706 9.81876 8.62429 9.81876 8.99973C9.81876 9.37516 9.56332 9.70238 9.19913 9.79348L3.10168 11.3178L1.63738 16.0771V16.1838C1.63738 16.2828 1.71765 16.3631 1.81667 16.3631C1.84393 16.3631 1.87077 16.3569 1.89515 16.345L16.0883 9.43981C16.2567 9.35776 16.3637 9.18682 16.3637 8.99943C16.3637 8.81204 16.2567 8.64111 16.0883 8.55906L1.89515 1.65386C1.87077 1.64195 1.84393 1.63578 1.81667 1.63578V1.63637Z" fill="#585757"/>
</svg>
