<svg width="25" height="24" viewBox="0 0 25 24" fill="none" xmlns="http://www.w3.org/2000/svg">
<path d="M12.0012 11.6359C15.2744 11.6359 17.8929 9.05012 17.8929 5.81793C17.8929 2.58575 15.2744 0 12.0012 0C8.72795 0 6.10938 2.58575 6.10938 5.81793C6.10938 9.05012 8.72795 11.6359 12.0012 11.6359ZM12.0012 2.15479C14.0742 2.15479 15.7108 3.77088 15.7108 5.81793C15.7108 7.86498 14.0742 9.48108 12.0012 9.48108C9.92812 9.48108 8.29152 7.86498 8.29152 5.81793C8.29152 3.77088 9.92812 2.15479 12.0012 2.15479Z" fill="#696CFF"/>
<path d="M14.4021 13.3597H9.60143C4.25518 13.3597 0 17.6693 0 22.8408C0 23.4872 0.436428 23.9182 1.09107 23.9182C1.74571 23.9182 2.18214 23.4872 2.18214 22.8408C2.18214 18.7467 5.56446 15.5145 9.60143 15.5145H14.4021C18.5482 15.5145 21.8214 18.8544 21.8214 22.8408C21.8214 23.4872 22.2579 23.9182 22.9125 23.9182C23.5671 23.9182 24.0036 23.4872 24.0036 22.8408C24.0036 17.6693 19.6393 13.3597 14.4021 13.3597Z" fill="#696CFF"/>
</svg>
