<svg width="24" height="24" viewBox="0 0 24 24" fill="none" xmlns="http://www.w3.org/2000/svg">
<path d="M16.9049 23.0566C15.573 23.06 14.277 22.6252 13.2165 21.8194C11.076 22.1503 8.88587 21.798 6.95713 20.8122C5.02869 19.8266 3.45992 18.2579 2.47436 16.3294C1.48863 14.4008 1.1363 12.2106 1.46716 10.0701C0.122419 8.49977 -0.335561 6.35556 0.250022 4.37277C0.83578 2.39015 2.38549 0.839034 4.36758 0.251607C6.34972 -0.335863 8.49424 0.120391 10.0658 1.46361C12.2113 1.13205 14.4068 1.48711 16.3387 2.47801C18.2704 3.46906 19.8395 5.04538 20.8215 6.98141C21.8036 8.91757 22.1488 11.1148 21.8072 13.2588C22.7336 14.4754 23.1694 15.9952 23.0285 17.5179C22.8873 19.0405 22.1798 20.4545 21.0457 21.4802C19.9116 22.5059 18.4337 23.0683 16.9047 23.0562L16.9049 23.0566ZM13.6468 20.175L13.9312 20.421H13.9311C15.1048 21.4412 16.7171 21.7939 18.2094 21.3565C19.7018 20.9193 20.8688 19.7522 21.306 18.2598C21.7434 16.7674 21.3908 15.1551 20.3705 13.9815L20.1246 13.6971L20.1937 13.3283C20.5505 11.4546 20.2858 9.51574 19.44 7.80624C18.5942 6.09674 17.2137 4.70972 15.5078 3.85642C13.802 3.0029 11.8643 2.72951 9.98925 3.07772L9.59732 3.15456L9.31293 2.87017H9.3131C8.15616 1.7366 6.48522 1.30092 4.92211 1.72527C3.35883 2.14979 2.13779 3.37088 1.71344 4.93394C1.28892 6.49722 1.72459 8.16817 2.85835 9.32493L3.14274 9.61686L3.07344 9.99352C2.71616 11.8715 2.98288 13.8149 3.8333 15.527C4.68353 17.2394 6.07064 18.6265 7.78278 19.4767C9.49509 20.3269 11.4384 20.5938 13.3163 20.2364L13.6468 20.175Z" fill="#A6A4A4"/>
<path d="M15.1054 16.7477C14.1464 17.4722 12.9633 17.8367 11.7628 17.7773C10.7943 17.7766 9.83397 17.6024 8.92732 17.2626C8.01106 16.923 7.16662 16.4147 6.4375 15.7641L8.06665 13.8354C8.61499 14.2954 9.22547 14.6757 9.88017 14.965C10.4918 15.2273 11.151 15.3607 11.8165 15.3568C12.2808 15.3817 12.7422 15.2722 13.146 15.0419C13.2964 14.9532 13.4207 14.8259 13.5058 14.6733C13.5909 14.5206 13.6338 14.3482 13.63 14.1734C13.6375 13.9467 13.5671 13.7244 13.4302 13.5434C13.2178 13.323 12.9537 13.1592 12.6618 13.0669C12.1451 12.8698 11.6163 12.7055 11.0789 12.5752C10.2899 12.3855 9.5186 12.1283 8.77366 11.8067C8.22497 11.5623 7.7543 11.1716 7.41347 10.6771C7.04435 10.0817 6.86973 9.38604 6.91399 8.6869C6.89993 7.98382 7.09804 7.29294 7.48258 6.70446C7.86371 6.12902 8.39525 5.66933 9.01943 5.375C9.74135 5.04225 10.53 4.87912 11.3247 4.89866C13.0188 4.86848 14.6696 5.43415 15.9892 6.4969L14.5522 8.57937C13.622 7.83119 12.485 7.3859 11.2941 7.30374C10.8748 7.27887 10.4581 7.38642 10.1031 7.61111C9.84271 7.78058 9.68405 8.06892 9.68045 8.37953C9.66844 8.62481 9.74786 8.86579 9.90326 9.05566C10.1189 9.27229 10.382 9.43541 10.6717 9.53217C11.2302 9.73165 11.7998 9.89837 12.3777 10.0316C13.4667 10.2834 14.4871 10.7713 15.3668 11.461C16.0412 12.0609 16.4085 12.9336 16.3657 13.8353C16.4371 14.9521 15.9683 16.0351 15.1056 16.7476L15.1054 16.7477Z" fill="#A6A4A4"/>
<path d="M11.7559 18.1615C10.743 18.1598 9.73872 17.9776 8.7897 17.6236C7.83123 17.2774 6.94548 16.7564 6.17706 16.0867L5.90039 15.8408L8.01355 13.305L8.30549 13.5432L8.30566 13.5434C8.82726 13.9751 9.40665 14.3321 10.0269 14.6037C10.5902 14.8447 11.197 14.9677 11.8097 14.965C12.2001 14.9883 12.5891 14.9003 12.9315 14.7113C13.1284 14.6017 13.2471 14.3909 13.2388 14.1656C13.2515 14.0133 13.2107 13.8612 13.1236 13.7355C12.9596 13.573 12.7594 13.4519 12.5397 13.382C12.0378 13.191 11.5246 13.0319 11.0029 12.9054C10.1934 12.7171 9.40169 12.46 8.63603 12.137C8.01752 11.8665 7.48564 11.4305 7.09919 10.8769C6.70143 10.2347 6.50588 9.48768 6.53833 8.733C6.51946 7.94363 6.73918 7.16717 7.16835 6.50457C7.5951 5.87012 8.18789 5.36498 8.88202 5.04457C9.64513 4.69243 10.4775 4.51646 11.3178 4.52963C13.0935 4.48281 14.8296 5.0562 16.2283 6.15105L16.5049 6.37386L14.6453 9.06334L14.3302 8.84053C13.4484 8.14741 12.376 7.73989 11.2565 7.67244C10.9177 7.64843 10.5798 7.72905 10.2882 7.90297C10.1237 8.00519 10.0248 8.18581 10.027 8.37948C10.0133 8.54157 10.0598 8.70297 10.1577 8.8328C10.3361 9.00313 10.5519 9.12954 10.7877 9.20175C11.3313 9.39488 11.8855 9.55663 12.4476 9.68577C13.599 9.9319 14.6824 10.4276 15.6211 11.138C16.389 11.8181 16.8047 12.8111 16.7507 13.8353C16.8231 15.0644 16.3103 16.2553 15.3676 17.0472C14.3321 17.8317 13.0534 18.2262 11.756 18.1614L11.7559 18.1615ZM6.9688 15.7255V15.7257C7.59693 16.2304 8.30274 16.6299 9.05882 16.909C9.92209 17.229 10.8353 17.393 11.756 17.393C12.8589 17.4424 13.945 17.1084 14.8297 16.4479C15.5921 15.8241 16.0093 14.8725 15.9517 13.8892C16.0144 13.0863 15.7057 12.299 15.1141 11.7529C14.278 11.123 13.3162 10.6801 12.2939 10.4543C11.7029 10.3172 11.1203 10.1454 10.5495 9.93934C10.1972 9.82253 9.87818 9.62219 9.61986 9.35547C9.407 9.10454 9.29242 8.78517 9.29705 8.45633C9.28436 8.00419 9.50133 7.57624 9.87337 7.31915C10.2929 7.03871 10.7907 6.89875 11.2949 6.9195C12.433 6.97199 13.5319 7.35088 14.4609 8.01075L15.4753 6.54302H15.4752C14.272 5.67839 12.8228 5.22313 11.3411 5.24443C10.6096 5.2307 9.88439 5.38319 9.22025 5.69002C8.64907 5.96223 8.16488 6.38797 7.82164 6.9195C7.48253 7.44554 7.30859 8.06116 7.32216 8.68687C7.28872 9.29819 7.43863 9.90555 7.75251 10.4313C8.05525 10.8687 8.47272 11.2143 8.95903 11.4302C9.68354 11.7501 10.4343 12.0073 11.2027 12.1987C11.7586 12.3324 12.3053 12.5019 12.8396 12.7057C13.1842 12.8242 13.4934 13.0278 13.7385 13.2975C13.9274 13.5467 14.025 13.8532 14.0152 14.1657C14.0239 14.4108 13.9673 14.6538 13.8512 14.87C13.7351 15.0861 13.5636 15.2674 13.3543 15.3952C12.8888 15.6657 12.3554 15.7964 11.8175 15.7718C11.0993 15.7756 10.3878 15.6317 9.72747 15.3492C9.15563 15.0974 8.61633 14.7775 8.12151 14.3962L6.9688 15.7255Z" fill="#A6A4A4"/>
</svg>
