<svg width="17" height="26" viewBox="0 0 17 26" fill="none" xmlns="http://www.w3.org/2000/svg">
<path d="M14.5828 3.9566L13.3078 0.807507C13.1218 0.323128 12.4844 0 11.7672 0H5.57816C4.86092 0 4.22352 0.322926 4.03754 0.807507L2.84227 3.82197C1.22197 4.27951 0 5.81376 0 7.59002V18.41C0 20.2133 1.19526 21.7205 2.84227 22.178L4.03754 25.1925C4.22356 25.6769 4.86092 26 5.57816 26H11.7672C12.4844 26 13.1218 25.6771 13.3078 25.1925L14.5828 22.0166C15.9906 21.4244 17 20.0248 17 18.3829V7.59036C17 5.94852 15.9908 4.54888 14.5828 3.9567V3.9566ZM15.539 18.4101C15.539 19.7559 14.4499 20.8595 13.1218 20.8595H3.87807C2.54995 20.8595 1.46084 19.7559 1.46084 18.4101L1.46102 7.59017C1.46102 6.2444 2.55013 5.14082 3.87825 5.14082H13.1485C14.4767 5.14082 15.5658 6.2444 15.5658 7.59017L15.5656 18.4101H15.539Z" fill="#696CFF"/>
</svg>
