<svg width="15" height="15" viewBox="0 0 15 15" fill="none" xmlns="http://www.w3.org/2000/svg">
<path fill-rule="evenodd" clip-rule="evenodd" d="M7.50029 1.36401C4.11119 1.36401 1.36401 4.11119 1.36401 7.50029C1.36401 10.8892 4.11119 13.6366 7.50029 13.6366C10.8892 13.6366 13.6366 10.8892 13.6366 7.50029C13.6366 4.11119 10.8892 1.36401 7.50029 1.36401ZM0 7.50029C0 3.35807 3.35783 0 7.50029 0C11.6423 0 15 3.35783 15 7.50029C15 11.6423 11.6422 15 7.50029 15C3.35807 15 0 11.6422 0 7.50029Z" fill="#585757"/>
<path fill-rule="evenodd" clip-rule="evenodd" d="M6.81836 7.50028V3.40942H8.1819V7.50028H6.81836Z" fill="#585757"/>
<path fill-rule="evenodd" clip-rule="evenodd" d="M6.81836 11.5911V10.2274H8.1819V11.5911H6.81836Z" fill="#585757"/>
</svg>
