<svg width="28" height="28" viewBox="0 0 28 28" fill="none" xmlns="http://www.w3.org/2000/svg">
<mask id="path-1-inside-1_23_2506" fill="white">
<path d="M14 0C21.7315 0 28 6.26851 28 14C28 21.7315 21.7315 28 14 28C6.26851 28 0 21.7315 0 14C0 6.26851 6.26851 0 14 0ZM5.38179 22.6944C5.32412 23.1797 5.33172 23.6151 5.43903 24.0967C7.72208 26.0344 10.6706 27.2116 13.8939 27.2366C13.8678 26.6512 13.8664 26.0612 13.8662 25.4754C12.2162 24.9628 10.7508 24.1047 9.49009 22.9244C8.12776 23.177 6.71597 23.0336 5.38179 22.6944ZM4.58584 23.3048C4.58728 22.9755 4.61498 22.6697 4.66341 22.3431C3.39179 20.9935 2.50428 19.4001 1.9234 17.6448C1.67224 17.6282 1.46088 17.5701 1.22673 17.4864C1.83331 19.7149 3.00889 21.7094 4.58582 23.3047L4.58584 23.3048ZM23.5101 22.062C23.5918 22.4264 23.6424 22.7541 23.6634 23.0459C25.1841 21.4229 26.2996 19.4153 26.8505 17.186C26.6706 17.2488 26.4818 17.3032 26.2858 17.3479C25.7073 19.0804 24.8439 20.7873 23.5101 22.0618V22.062ZM22.8391 23.8532C22.9889 23.4547 22.8857 22.7991 22.8024 22.3901C21.5794 22.6626 20.1163 22.8842 18.873 22.6507C17.7358 23.9143 16.1837 24.8073 14.6262 25.4494C14.6262 26.0393 14.6272 26.6321 14.6539 27.2214C17.7945 27.069 20.6472 25.8216 22.8393 23.8533L22.8391 23.8532ZM10.061 22.4172C11.2593 23.5253 12.6596 24.3264 14.2253 24.7895C15.7113 24.1901 17.1932 23.3652 18.2821 22.1683C17.7171 20.9638 17.1974 19.7348 16.7558 18.4794C15.0411 18.6739 13.2885 18.6883 11.569 18.5572C11.1615 19.8456 10.5842 21.169 10.061 22.417V22.4172ZM17.4332 18.1133C17.8793 19.403 18.4156 20.6668 18.997 21.9009C20.2005 22.1315 21.7259 21.8658 22.9044 21.5878C24.2199 20.3719 25.0559 18.6698 25.6044 16.9874C25.4205 15.581 24.9303 14.281 24.1347 13.0876C22.8206 13.2329 21.4883 13.3216 20.1693 13.4119C19.5262 15.1273 18.636 16.7262 17.4332 18.1132V18.1133ZM2.58793 17.2291C3.13683 18.9682 4.00485 20.5535 5.26885 21.8767C6.57944 22.243 7.98795 22.426 9.33794 22.1785C9.86876 20.9131 10.5063 19.4896 10.8892 18.1776C9.82075 16.6651 8.93697 15.0169 8.19087 13.3244C6.85254 13.3283 5.51301 13.291 4.17678 13.223C3.46247 14.4245 2.78697 15.8342 2.58793 17.2291ZM1.00255 16.5173C1.26623 16.6882 1.56132 16.8327 1.87567 16.877C2.13339 15.4347 2.81487 14.0143 3.56322 12.7667C3.21028 11.2004 3.27553 9.60026 3.62026 8.03931C3.2388 7.85094 2.76128 7.76619 2.34166 7.7272C0.896644 10.4067 0.426966 13.5319 1.00255 16.5172L1.00255 16.5173ZM24.7192 12.5965C25.5468 13.816 26.078 15.1367 26.3119 16.5581C26.5694 16.4779 26.796 16.4058 27.0406 16.2844C27.5608 13.2993 27.0434 10.1987 25.5621 7.55006C25.2018 7.58514 24.865 7.70642 24.5486 7.87837C24.8394 9.41448 24.9691 11.0465 24.7191 12.5967L24.7192 12.5965ZM4.40025 8.03601C4.05757 9.496 3.96872 10.9921 4.27631 12.4667C5.58795 12.5319 6.89854 12.5685 8.21181 12.5646C9.02725 11.0769 9.90593 9.62099 10.823 8.19404C9.98105 7.28132 9.20764 6.29862 8.4242 5.33479C6.92749 5.96474 5.50422 6.83029 4.40044 8.03582L4.40025 8.03601ZM20.1511 12.651C21.4281 12.5633 22.7163 12.4759 23.9883 12.3376C24.203 10.8612 24.0599 9.31384 23.7712 7.85731C22.8361 6.78185 21.1589 5.89807 19.8765 5.30568C19.1035 6.25596 18.3468 7.21628 17.6116 8.19608C18.5779 9.57297 19.5242 11.0851 20.1511 12.6512L20.1511 12.651ZM8.86117 12.9631C9.60133 14.6486 10.48 16.291 11.5486 17.7922C13.2807 17.9309 15.0489 17.9176 16.775 17.713C17.9796 16.3522 18.8654 14.753 19.4931 13.0523C18.8812 11.4735 17.9012 9.92427 16.9271 8.54491C15.1619 8.3313 13.2918 8.3274 11.5232 8.50982C10.5871 9.96487 9.69121 11.4452 8.86096 12.963L8.86117 12.9631ZM20.0277 4.53921C21.436 5.17862 23.1297 6.0624 24.201 7.20064C24.4991 7.04037 24.81 6.91808 25.1412 6.8479C23.4881 4.27736 20.9822 2.3397 18.0695 1.39993C17.8641 1.44117 17.6293 1.60697 17.466 1.73727C18.4834 2.5162 19.3411 3.45787 20.0281 4.53906L20.0277 4.53921ZM2.75708 7.01126C3.17261 7.072 3.60866 7.17829 3.98436 7.36954C5.1776 6.12256 6.68087 5.22707 8.26909 4.57574C8.83338 3.52822 9.55158 2.56191 10.4699 1.79817C10.2347 1.65227 9.96262 1.52402 9.68806 1.48196C6.81262 2.47227 4.363 4.43414 2.75713 7.01136L2.75708 7.01126ZM11.4499 7.75205C13.2497 7.56614 15.1703 7.57066 16.9677 7.78406C17.7227 6.77778 18.5028 5.78668 19.2963 4.81034C18.6017 3.75274 17.7317 2.84658 16.6987 2.11588C14.893 1.60965 13.0786 1.6587 11.2728 2.13496C10.3076 2.84066 9.56881 3.79257 8.99491 4.83331C9.79517 5.81722 10.5858 6.82413 11.4497 7.75224L11.4499 7.75205ZM10.8524 1.13999C10.9646 1.20812 11.0775 1.28445 11.1922 1.369C13.0291 0.900936 14.9192 0.854766 16.7573 1.34294C16.8511 1.2586 16.9422 1.18165 17.0318 1.11229C15.0071 0.638697 12.8724 0.647107 10.8526 1.14L10.8524 1.13999Z"/>
</mask>
<path d="M14 0C21.7315 0 28 6.26851 28 14C28 21.7315 21.7315 28 14 28C6.26851 28 0 21.7315 0 14C0 6.26851 6.26851 0 14 0ZM5.38179 22.6944C5.32412 23.1797 5.33172 23.6151 5.43903 24.0967C7.72208 26.0344 10.6706 27.2116 13.8939 27.2366C13.8678 26.6512 13.8664 26.0612 13.8662 25.4754C12.2162 24.9628 10.7508 24.1047 9.49009 22.9244C8.12776 23.177 6.71597 23.0336 5.38179 22.6944ZM4.58584 23.3048C4.58728 22.9755 4.61498 22.6697 4.66341 22.3431C3.39179 20.9935 2.50428 19.4001 1.9234 17.6448C1.67224 17.6282 1.46088 17.5701 1.22673 17.4864C1.83331 19.7149 3.00889 21.7094 4.58582 23.3047L4.58584 23.3048ZM23.5101 22.062C23.5918 22.4264 23.6424 22.7541 23.6634 23.0459C25.1841 21.4229 26.2996 19.4153 26.8505 17.186C26.6706 17.2488 26.4818 17.3032 26.2858 17.3479C25.7073 19.0804 24.8439 20.7873 23.5101 22.0618V22.062ZM22.8391 23.8532C22.9889 23.4547 22.8857 22.7991 22.8024 22.3901C21.5794 22.6626 20.1163 22.8842 18.873 22.6507C17.7358 23.9143 16.1837 24.8073 14.6262 25.4494C14.6262 26.0393 14.6272 26.6321 14.6539 27.2214C17.7945 27.069 20.6472 25.8216 22.8393 23.8533L22.8391 23.8532ZM10.061 22.4172C11.2593 23.5253 12.6596 24.3264 14.2253 24.7895C15.7113 24.1901 17.1932 23.3652 18.2821 22.1683C17.7171 20.9638 17.1974 19.7348 16.7558 18.4794C15.0411 18.6739 13.2885 18.6883 11.569 18.5572C11.1615 19.8456 10.5842 21.169 10.061 22.417V22.4172ZM17.4332 18.1133C17.8793 19.403 18.4156 20.6668 18.997 21.9009C20.2005 22.1315 21.7259 21.8658 22.9044 21.5878C24.2199 20.3719 25.0559 18.6698 25.6044 16.9874C25.4205 15.581 24.9303 14.281 24.1347 13.0876C22.8206 13.2329 21.4883 13.3216 20.1693 13.4119C19.5262 15.1273 18.636 16.7262 17.4332 18.1132V18.1133ZM2.58793 17.2291C3.13683 18.9682 4.00485 20.5535 5.26885 21.8767C6.57944 22.243 7.98795 22.426 9.33794 22.1785C9.86876 20.9131 10.5063 19.4896 10.8892 18.1776C9.82075 16.6651 8.93697 15.0169 8.19087 13.3244C6.85254 13.3283 5.51301 13.291 4.17678 13.223C3.46247 14.4245 2.78697 15.8342 2.58793 17.2291ZM1.00255 16.5173C1.26623 16.6882 1.56132 16.8327 1.87567 16.877C2.13339 15.4347 2.81487 14.0143 3.56322 12.7667C3.21028 11.2004 3.27553 9.60026 3.62026 8.03931C3.2388 7.85094 2.76128 7.76619 2.34166 7.7272C0.896644 10.4067 0.426966 13.5319 1.00255 16.5172L1.00255 16.5173ZM24.7192 12.5965C25.5468 13.816 26.078 15.1367 26.3119 16.5581C26.5694 16.4779 26.796 16.4058 27.0406 16.2844C27.5608 13.2993 27.0434 10.1987 25.5621 7.55006C25.2018 7.58514 24.865 7.70642 24.5486 7.87837C24.8394 9.41448 24.9691 11.0465 24.7191 12.5967L24.7192 12.5965ZM4.40025 8.03601C4.05757 9.496 3.96872 10.9921 4.27631 12.4667C5.58795 12.5319 6.89854 12.5685 8.21181 12.5646C9.02725 11.0769 9.90593 9.62099 10.823 8.19404C9.98105 7.28132 9.20764 6.29862 8.4242 5.33479C6.92749 5.96474 5.50422 6.83029 4.40044 8.03582L4.40025 8.03601ZM20.1511 12.651C21.4281 12.5633 22.7163 12.4759 23.9883 12.3376C24.203 10.8612 24.0599 9.31384 23.7712 7.85731C22.8361 6.78185 21.1589 5.89807 19.8765 5.30568C19.1035 6.25596 18.3468 7.21628 17.6116 8.19608C18.5779 9.57297 19.5242 11.0851 20.1511 12.6512L20.1511 12.651ZM8.86117 12.9631C9.60133 14.6486 10.48 16.291 11.5486 17.7922C13.2807 17.9309 15.0489 17.9176 16.775 17.713C17.9796 16.3522 18.8654 14.753 19.4931 13.0523C18.8812 11.4735 17.9012 9.92427 16.9271 8.54491C15.1619 8.3313 13.2918 8.3274 11.5232 8.50982C10.5871 9.96487 9.69121 11.4452 8.86096 12.963L8.86117 12.9631ZM20.0277 4.53921C21.436 5.17862 23.1297 6.0624 24.201 7.20064C24.4991 7.04037 24.81 6.91808 25.1412 6.8479C23.4881 4.27736 20.9822 2.3397 18.0695 1.39993C17.8641 1.44117 17.6293 1.60697 17.466 1.73727C18.4834 2.5162 19.3411 3.45787 20.0281 4.53906L20.0277 4.53921ZM2.75708 7.01126C3.17261 7.072 3.60866 7.17829 3.98436 7.36954C5.1776 6.12256 6.68087 5.22707 8.26909 4.57574C8.83338 3.52822 9.55158 2.56191 10.4699 1.79817C10.2347 1.65227 9.96262 1.52402 9.68806 1.48196C6.81262 2.47227 4.363 4.43414 2.75713 7.01136L2.75708 7.01126ZM11.4499 7.75205C13.2497 7.56614 15.1703 7.57066 16.9677 7.78406C17.7227 6.77778 18.5028 5.78668 19.2963 4.81034C18.6017 3.75274 17.7317 2.84658 16.6987 2.11588C14.893 1.60965 13.0786 1.6587 11.2728 2.13496C10.3076 2.84066 9.56881 3.79257 8.99491 4.83331C9.79517 5.81722 10.5858 6.82413 11.4497 7.75224L11.4499 7.75205ZM10.8524 1.13999C10.9646 1.20812 11.0775 1.28445 11.1922 1.369C13.0291 0.900936 14.9192 0.854766 16.7573 1.34294C16.8511 1.2586 16.9422 1.18165 17.0318 1.11229C15.0071 0.638697 12.8724 0.647107 10.8526 1.14L10.8524 1.13999Z" fill="#9F9F9F"/>
<path d="M5.38179 22.6944L5.87458 20.756L3.66479 20.1942L3.39576 22.4584L5.38179 22.6944ZM5.43903 24.0967L3.48691 24.5317L3.63295 25.187L4.14486 25.6215L5.43903 24.0967ZM13.8939 27.2366L13.8784 29.2366L15.9856 29.2529L15.8919 27.1477L13.8939 27.2366ZM13.8662 25.4754L15.8662 25.4747L15.8657 24.0023L14.4595 23.5655L13.8662 25.4754ZM9.49009 22.9244L10.8569 21.4644L10.1192 20.7737L9.12547 20.9579L9.49009 22.9244ZM4.58584 23.3048L2.60883 23.6072L6.58582 23.3136L4.58584 23.3048ZM4.66341 22.3431L6.64179 22.6363L6.78397 21.6772L6.11904 20.9715L4.66341 22.3431ZM1.9234 17.6448L3.82213 17.0165L3.39908 15.7381L2.05546 15.6492L1.9234 17.6448ZM1.22673 17.4864L1.90008 15.6031L-1.70998 14.3124L-0.703057 18.0117L1.22673 17.4864ZM4.58582 23.3047L6.56283 23.0023L6.46466 22.3605L6.0082 21.8987L4.58582 23.3047ZM23.5101 22.062H21.5101V22.2833L21.5585 22.4993L23.5101 22.062ZM23.6634 23.0459L21.6685 23.189L21.9958 27.7506L25.1228 24.4134L23.6634 23.0459ZM26.8505 17.186L28.7921 17.6659L29.678 14.0813L26.1916 15.2977L26.8505 17.186ZM26.2858 17.3479L25.8408 15.3981L24.7448 15.6483L24.3888 16.7145L26.2858 17.3479ZM23.5101 22.0618L22.1284 20.6157L21.5101 21.2065V22.0618H23.5101ZM22.8391 23.8532L20.967 23.1494L20.4956 24.4036L21.476 25.3167L22.8391 23.8532ZM22.8024 22.3901L24.7621 21.9909L24.3556 19.9949L22.3674 20.4379L22.8024 22.3901ZM18.873 22.6507L19.2422 20.685L18.138 20.4776L17.3864 21.3128L18.873 22.6507ZM14.6262 25.4494L13.864 23.6003L12.6262 24.1105V25.4494H14.6262ZM14.6539 27.2214L12.656 27.3119L12.7467 29.3164L14.7509 29.2191L14.6539 27.2214ZM22.8393 23.8533L24.1755 25.3415L25.8028 23.8803L24.2024 22.3898L22.8393 23.8533ZM10.061 22.4172H8.06097V23.2918L8.70314 23.8856L10.061 22.4172ZM14.2253 24.7895L13.658 26.7073L14.3266 26.9051L14.9734 26.6443L14.2253 24.7895ZM18.2821 22.1683L19.7615 23.5141L20.6594 22.5271L20.0928 21.3191L18.2821 22.1683ZM16.7558 18.4794L18.6424 17.8157L18.1137 16.3125L16.5303 16.4922L16.7558 18.4794ZM11.569 18.5572L11.721 16.563L10.1402 16.4424L9.66209 17.954L11.569 18.5572ZM10.061 22.417L8.21653 21.6437L8.06097 22.0147V22.417H10.061ZM17.4332 18.1133H15.4332V18.4495L15.543 18.7671L17.4332 18.1133ZM18.997 21.9009L17.1877 22.7532L17.6213 23.6737L18.6206 23.8652L18.997 21.9009ZM22.9044 21.5878L23.3637 23.5343L23.8756 23.4135L24.2619 23.0565L22.9044 21.5878ZM25.6044 16.9874L27.5059 17.6073L27.6462 17.177L27.5875 16.7282L25.6044 16.9874ZM24.1347 13.0876L25.7988 11.9783L25.1241 10.9661L23.915 11.0998L24.1347 13.0876ZM20.1693 13.4119L20.0327 11.4165L18.7484 11.5044L18.2965 12.7098L20.1693 13.4119ZM17.4332 18.1132L15.9222 16.8028L15.4332 17.3667V18.1132H17.4332ZM2.58793 17.2291L0.607986 16.9466L0.543704 17.3971L0.680682 17.8311L2.58793 17.2291ZM5.26885 21.8767L3.82268 23.2582L4.20185 23.6551L4.73052 23.8029L5.26885 21.8767ZM9.33794 22.1785L9.69855 24.1458L10.7635 23.9505L11.1823 22.9522L9.33794 22.1785ZM10.8892 18.1776L12.8091 18.7379L13.0794 17.8117L12.5227 17.0236L10.8892 18.1776ZM8.19087 13.3244L10.0209 12.5177L9.49325 11.3206L8.18505 11.3244L8.19087 13.3244ZM4.17678 13.223L4.27831 11.2256L3.07396 11.1644L2.45768 12.2009L4.17678 13.223ZM1.00255 16.5173L-0.994089 16.6332L-0.935397 17.6445L-0.0853621 18.1955L1.00255 16.5173ZM1.87567 16.877L1.59641 18.8574L3.50537 19.1266L3.84448 17.2288L1.87567 16.877ZM3.56322 12.7667L5.27833 13.7954L5.6904 13.1085L5.5143 12.327L3.56322 12.7667ZM3.62026 8.03931L5.5732 8.47061L5.91123 6.94005L4.5058 6.24603L3.62026 8.03931ZM2.34166 7.7272L2.52669 5.73578L1.20933 5.61338L0.581328 6.77787L2.34166 7.7272ZM1.00255 16.5172L2.99919 16.4013L2.9915 16.2688L2.96638 16.1386L1.00255 16.5172ZM24.7192 12.5965L26.3741 11.4735L23.9997 7.97463L22.8012 12.0296L24.7192 12.5965ZM26.3119 16.5581L24.3385 16.8829L24.7118 19.1514L26.9068 18.4676L26.3119 16.5581ZM27.0406 16.2844L27.9302 18.0756L28.8371 17.6252L29.0109 16.6277L27.0406 16.2844ZM25.5621 7.55006L27.3076 6.57378L26.6695 5.43276L25.3683 5.55947L25.5621 7.55006ZM24.5486 7.87837L23.5936 6.12113L22.3123 6.81749L22.5835 8.25035L24.5486 7.87837ZM24.7191 12.5967L22.7446 12.2784L26.6371 13.1636L24.7191 12.5967ZM4.40025 8.03601L2.9684 6.63966L2.58021 7.03772L2.45316 7.579L4.40025 8.03601ZM4.27631 12.4667L2.31845 12.8751L2.63392 14.3874L4.17693 14.4642L4.27631 12.4667ZM8.21181 12.5646L8.21775 14.5645L9.39822 14.561L9.96563 13.5259L8.21181 12.5646ZM10.823 8.19404L12.5055 9.27531L13.3414 7.97455L12.2931 6.838L10.823 8.19404ZM8.4242 5.33479L9.97616 4.07328L9.03038 2.90972L7.64834 3.49141L8.4242 5.33479ZM4.40044 8.03582L5.83229 9.43217L5.85427 9.40963L5.87553 9.38641L4.40044 8.03582ZM20.1511 12.651L20.0142 10.6556L18.0538 10.7902L18.1537 12.7526L20.1511 12.651ZM23.9883 12.3376L24.2045 14.3259L25.7446 14.1584L25.9675 12.6254L23.9883 12.3376ZM23.7712 7.85731L25.7331 7.46844L25.6296 6.94653L25.2805 6.54502L23.7712 7.85731ZM19.8765 5.30568L20.7153 3.49006L19.3052 2.83864L18.325 4.04362L19.8765 5.30568ZM17.6116 8.19608L16.0118 6.9957L15.1406 8.15679L15.9745 9.34499L17.6116 8.19608ZM20.1511 12.6512L18.2943 13.3944L22.1485 12.5495L20.1511 12.6512ZM8.86117 12.9631L10.6924 12.1589L10.2694 11.1957L9.23608 10.9985L8.86117 12.9631ZM11.5486 17.7922L9.91932 18.9521L10.4599 19.7114L11.389 19.7858L11.5486 17.7922ZM16.775 17.713L17.0104 19.6991L17.7674 19.6094L18.2727 19.0386L16.775 17.713ZM19.4931 13.0523L21.3694 13.7448L21.6313 13.035L21.3579 12.3296L19.4931 13.0523ZM16.9271 8.54491L18.5608 7.39121L18.0487 6.66605L17.1674 6.5594L16.9271 8.54491ZM11.5232 8.50982L11.318 6.52038L10.3615 6.61904L9.84124 7.42773L11.5232 8.50982ZM8.86096 12.963L7.10631 12.0032L5.78831 14.4127L8.48604 14.9276L8.86096 12.963ZM20.0277 4.53921L19.3459 2.659L14.7328 4.33169L19.2008 6.3603L20.0277 4.53921ZM24.201 7.20064L22.7446 8.57139L23.7963 9.68877L25.1479 8.96228L24.201 7.20064ZM25.1412 6.8479L25.5558 8.80445L28.3909 8.20365L26.8233 5.76611L25.1412 6.8479ZM18.0695 1.39993L18.6836 -0.503455L18.1871 -0.663626L17.6757 -0.560933L18.0695 1.39993ZM17.466 1.73727L16.2187 0.173875L14.2184 1.76972L16.2502 3.32528L17.466 1.73727ZM20.0281 4.53906L20.7098 6.41927L23.0526 5.56979L21.7161 3.46646L20.0281 4.53906ZM2.75708 7.01126L3.04634 5.03229L-0.937117 4.45005L1.00528 7.97624L2.75708 7.01126ZM3.98436 7.36954L3.07708 9.15191L4.40173 9.8262L5.42937 8.75227L3.98436 7.36954ZM8.26909 4.57574L9.02796 6.42618L9.69034 6.15453L10.0299 5.52425L8.26909 4.57574ZM10.4699 1.79817L11.7488 3.33584L13.8821 1.56151L11.5242 0.09867L10.4699 1.79817ZM9.68806 1.48196L9.99091 -0.494979L9.50325 -0.569684L9.03679 -0.409034L9.68806 1.48196ZM2.75713 7.01136L1.00533 7.97633L2.65091 10.9637L4.45458 8.06904L2.75713 7.01136ZM11.4499 7.75205L11.2444 5.76264L10.5866 5.83059L10.0989 6.27728L11.4499 7.75205ZM16.9677 7.78406L16.7319 9.77011L17.8761 9.90596L18.5676 8.98428L16.9677 7.78406ZM19.2963 4.81034L20.8484 6.07172L21.7715 4.93584L20.968 3.71241L19.2963 4.81034ZM16.6987 2.11588L17.8537 0.483099L17.5715 0.283443L17.2386 0.190121L16.6987 2.11588ZM11.2728 2.13496L10.7628 0.201091L10.3974 0.297445L10.0924 0.520436L11.2728 2.13496ZM8.99491 4.83331L7.24354 3.86755L6.59216 5.0488L7.44333 6.09529L8.99491 4.83331ZM11.4497 7.75224L9.9857 9.11488L11.3375 10.5672L12.8006 9.22702L11.4497 7.75224ZM10.8524 1.13999L10.8707 -0.859923L3.59276 -0.92674L9.81462 2.8497L10.8524 1.13999ZM11.1922 1.369L10.0056 2.97896L10.7681 3.54096L11.686 3.30707L11.1922 1.369ZM16.7573 1.34294L16.2439 3.27593L17.2899 3.55373L18.0947 2.83001L16.7573 1.34294ZM17.0318 1.11229L18.2554 2.69434L21.5809 0.122374L17.4874 -0.835139L17.0318 1.11229ZM10.8526 1.14L10.8343 3.13991L11.0841 3.1422L11.3268 3.08298L10.8526 1.14ZM14 2C20.6269 2 26 7.37308 26 14H30C30 5.16394 22.8361 -2 14 -2V2ZM26 14C26 20.6269 20.6269 26 14 26V30C22.8361 30 30 22.8361 30 14H26ZM14 26C7.37308 26 2 20.6269 2 14H-2C-2 22.8361 5.16394 30 14 30V26ZM2 14C2 7.37308 7.37308 2 14 2V-2C5.16394 -2 -2 5.16394 -2 14H2ZM3.39576 22.4584C3.31656 23.125 3.32199 23.7915 3.48691 24.5317L7.39116 23.6617C7.34145 23.4386 7.33169 23.2344 7.36782 22.9304L3.39576 22.4584ZM4.14486 25.6215C6.77186 27.8512 10.169 29.2078 13.8784 29.2366L13.9094 25.2367C11.1721 25.2154 8.6723 24.2176 6.73321 22.5719L4.14486 25.6215ZM15.8919 27.1477C15.8681 26.6123 15.8664 26.0639 15.8662 25.4747L11.8662 25.4761C11.8664 26.0586 11.8676 26.6901 11.8959 27.3256L15.8919 27.1477ZM14.4595 23.5655C13.1018 23.1437 11.9001 22.4409 10.8569 21.4644L8.12325 24.3845C9.6016 25.7684 11.3305 26.782 13.2728 27.3854L14.4595 23.5655ZM9.12547 20.9579C8.13348 21.1419 7.02753 21.0492 5.87458 20.756L4.889 24.6327C6.4044 25.018 8.12203 25.2122 9.85471 24.8909L9.12547 20.9579ZM6.58582 23.3136C6.58676 23.0975 6.6044 22.8885 6.64179 22.6363L2.68503 22.0498C2.62555 22.451 2.58779 22.8535 2.58586 23.2961L6.58582 23.3136ZM6.11904 20.9715C5.07406 19.8625 4.32427 18.5338 3.82213 17.0165L0.0246648 18.2731C0.684294 20.2664 1.70952 22.1245 3.20778 23.7146L6.11904 20.9715ZM2.05546 15.6492C2.05039 15.6488 2.04586 15.6485 2.03251 15.6453C2.01448 15.641 1.97729 15.6307 1.90008 15.6031L0.553382 19.3696C0.879777 19.4863 1.28494 19.6069 1.79133 19.6404L2.05546 15.6492ZM-0.703057 18.0117C-0.00370192 20.581 1.35062 22.8767 3.16343 24.7107L6.0082 21.8987C4.66717 20.542 3.67031 18.8487 3.15652 16.9611L-0.703057 18.0117ZM2.60881 23.6071L2.60883 23.6072L6.56285 23.0025L6.56283 23.0023L2.60881 23.6071ZM21.5585 22.4993C21.6235 22.7895 21.6562 23.017 21.6685 23.189L25.6582 22.9027C25.6287 22.4912 25.56 22.0633 25.4617 21.6246L21.5585 22.4993ZM25.1228 24.4134C26.8721 22.5465 28.1572 20.235 28.7921 17.6659L24.9089 16.7062C24.442 18.5956 23.4961 20.2994 22.2039 21.6784L25.1228 24.4134ZM26.1916 15.2977C26.0831 15.3356 25.9658 15.3696 25.8408 15.3981L26.7309 19.2978C26.9978 19.2369 27.258 19.1621 27.5094 19.0744L26.1916 15.2977ZM24.3888 16.7145C23.866 18.2802 23.1383 19.6508 22.1284 20.6157L24.8918 23.5078C26.5495 21.9238 27.5487 19.8806 28.1829 17.9814L24.3888 16.7145ZM21.5101 22.0618V22.062H25.5101V22.0618H21.5101ZM24.7112 24.5569C24.9396 23.9492 24.9265 23.3373 24.9038 22.9937C24.8777 22.5983 24.8112 22.2317 24.7621 21.9909L20.8426 22.7893C20.8769 22.9575 20.9036 23.1231 20.9125 23.2574C20.9168 23.3224 20.9148 23.352 20.9149 23.3517C20.915 23.3498 20.9165 23.332 20.9226 23.3011C20.9287 23.2708 20.9413 23.2179 20.967 23.1494L24.7112 24.5569ZM22.3674 20.4379C21.1827 20.7019 20.0599 20.8386 19.2422 20.685L18.5038 24.6163C20.1727 24.9297 21.9761 24.6232 23.2374 24.3422L22.3674 20.4379ZM17.3864 21.3128C16.5273 22.2674 15.2777 23.0175 13.864 23.6003L15.3884 27.2984C17.0897 26.5971 18.9444 25.5612 20.3596 23.9885L17.3864 21.3128ZM12.6262 25.4494C12.6262 26.035 12.6269 26.671 12.656 27.3119L16.6519 27.131C16.6275 26.5933 16.6262 26.0435 16.6262 25.4494H12.6262ZM14.7509 29.2191C18.3675 29.0435 21.6538 27.6056 24.1755 25.3415L21.5031 22.3652C19.6405 24.0376 17.2214 25.0944 14.5569 25.2238L14.7509 29.2191ZM24.2024 22.3898L24.2022 22.3896L21.476 25.3167L21.4762 25.3169L24.2024 22.3898ZM8.70314 23.8856C10.1243 25.1997 11.7943 26.1561 13.658 26.7073L14.7926 22.8716C13.525 22.4967 12.3943 21.8508 11.4188 20.9487L8.70314 23.8856ZM14.9734 26.6443C16.5932 25.9909 18.3863 25.0259 19.7615 23.5141L16.8026 20.8225C16.0002 21.7045 14.8294 22.3892 13.4771 22.9347L14.9734 26.6443ZM20.0928 21.3191C19.5492 20.1601 19.057 18.9942 18.6424 17.8157L14.8691 19.1431C15.3378 20.4755 15.885 21.7675 16.4713 23.0175L20.0928 21.3191ZM16.5303 16.4922C14.9543 16.671 13.3289 16.6856 11.721 16.563L11.4169 20.5514C13.2481 20.691 15.1279 20.6769 16.9812 20.4667L16.5303 16.4922ZM9.66209 17.954C9.28918 19.133 8.75902 20.3498 8.21653 21.6437L11.9054 23.1903C12.4094 21.9882 13.0337 20.5582 13.4759 19.1603L9.66209 17.954ZM8.06097 22.417V22.4172H12.061V22.417H8.06097ZM15.543 18.7671C16.0185 20.1418 16.5849 21.4735 17.1877 22.7532L20.8063 21.0486C20.2464 19.8601 19.74 18.6643 19.3233 17.4595L15.543 18.7671ZM18.6206 23.8652C20.2828 24.1837 22.181 23.8133 23.3637 23.5343L22.4451 19.6412C21.2708 19.9183 20.1181 20.0794 19.3734 19.9366L18.6206 23.8652ZM24.2619 23.0565C25.9335 21.5116 26.9073 19.4436 27.5059 17.6073L23.7029 16.3675C23.2046 17.8961 22.5063 19.2323 21.5469 20.119L24.2619 23.0565ZM27.5875 16.7282C27.3634 15.0137 26.7623 13.4235 25.7988 11.9783L22.4706 14.197C23.0983 15.1386 23.4777 16.1483 23.6213 17.2467L27.5875 16.7282ZM23.915 11.0998C22.6506 11.2395 21.3627 11.3255 20.0327 11.4165L20.3059 15.4072C21.6138 15.3177 22.9907 15.2263 24.3545 15.0755L23.915 11.0998ZM18.2965 12.7098C17.7228 14.2403 16.9449 15.6236 15.9222 16.8028L18.9441 19.4236C20.3271 17.8289 21.3296 16.0144 22.042 14.1139L18.2965 12.7098ZM15.4332 18.1132V18.1133H19.4332V18.1132H15.4332ZM0.680682 17.8311C1.30753 19.8171 2.31724 21.6823 3.82268 23.2582L6.71501 20.4952C5.69245 19.4248 4.96613 18.1192 4.49518 16.6271L0.680682 17.8311ZM4.73052 23.8029C6.2109 24.2166 7.94545 24.4671 9.69855 24.1458L8.97733 20.2113C8.03044 20.3849 6.94797 20.2693 5.80717 19.9505L4.73052 23.8029ZM11.1823 22.9522C11.6811 21.763 12.3851 20.1907 12.8091 18.7379L8.96932 17.6173C8.62753 18.7884 8.05645 20.0631 7.49363 21.4049L11.1823 22.9522ZM12.5227 17.0236C11.548 15.6437 10.7264 14.118 10.0209 12.5177L6.3608 14.1312C7.14752 15.9158 8.09352 17.6864 9.25571 19.3315L12.5227 17.0236ZM8.18505 11.3244C6.88758 11.3282 5.58422 11.292 4.27831 11.2256L4.07525 15.2205C5.4418 15.2899 6.81751 15.3284 8.1967 15.3244L8.18505 11.3244ZM2.45768 12.2009C1.69883 13.4773 0.863062 15.1589 0.607986 16.9466L4.56788 17.5116C4.71088 16.5094 5.22611 15.3717 5.89589 14.2451L2.45768 12.2009ZM-0.0853621 18.1955C0.295679 18.4425 0.874246 18.7556 1.59641 18.8574L2.15492 14.8966C2.20859 14.9042 2.2297 14.9157 2.21262 14.9083C2.19485 14.9007 2.15509 14.8809 2.09046 14.8391L-0.0853621 18.1955ZM3.84448 17.2288C4.04023 16.1333 4.58257 14.9554 5.27833 13.7954L1.84811 11.7379C1.04717 13.0732 0.226554 14.736 -0.093149 16.5252L3.84448 17.2288ZM5.5143 12.327C5.23822 11.1019 5.27858 9.80465 5.5732 8.47061L1.66732 7.608C1.27248 9.39587 1.18233 11.2989 1.61214 13.2063L5.5143 12.327ZM4.5058 6.24603C3.79384 5.89446 3.02499 5.78208 2.52669 5.73578L2.15663 9.71862C2.30707 9.7326 2.44184 9.7526 2.55442 9.77804C2.67148 9.80449 2.72605 9.82829 2.73473 9.83258L4.5058 6.24603ZM0.581328 6.77787C-1.08449 9.8668 -1.62343 13.4615 -0.961286 16.8958L2.96638 16.1386C2.47736 13.6022 2.87778 10.9466 4.102 8.67653L0.581328 6.77787ZM-0.994094 16.6331L-0.994089 16.6332L2.99919 16.4014L2.99919 16.4013L-0.994094 16.6331ZM23.0643 13.7196C23.7331 14.7052 24.1528 15.7546 24.3385 16.8829L28.2854 16.2333C28.0032 14.5188 27.3604 12.9268 26.3741 11.4735L23.0643 13.7196ZM26.9068 18.4676C27.1595 18.3888 27.5263 18.2762 27.9302 18.0756L26.151 14.4931C26.0656 14.5355 25.9794 14.5669 25.717 14.6486L26.9068 18.4676ZM29.0109 16.6277C29.6091 13.1947 29.0155 9.62745 27.3076 6.57378L23.8166 8.52633C25.0714 10.7699 25.5124 13.404 25.0703 15.941L29.0109 16.6277ZM25.3683 5.55947C24.68 5.62649 24.0848 5.85416 23.5936 6.12113L25.5036 9.63562C25.6452 9.55868 25.7235 9.5438 25.7559 9.54064L25.3683 5.55947ZM22.5835 8.25035C22.8497 9.65664 22.9446 11.0383 22.7446 12.2784L26.6936 12.915C26.9936 11.0547 26.8291 9.17232 26.5137 7.5064L22.5835 8.25035ZM26.6371 13.1636L26.6372 13.1634L22.8012 12.0296L22.8012 12.0298L26.6371 13.1636ZM2.45316 7.579C2.05917 9.2576 1.93886 11.0553 2.31845 12.8751L6.23417 12.0583C5.99857 10.9288 6.05596 9.73441 6.34733 8.49302L2.45316 7.579ZM4.17693 14.4642C5.51742 14.5309 6.86363 14.5686 8.21775 14.5645L8.20588 10.5646C6.93346 10.5683 5.65848 10.533 4.37568 10.4691L4.17693 14.4642ZM9.96563 13.5259C10.7546 12.0865 11.6085 10.671 12.5055 9.27531L9.14045 7.11277C8.20335 8.57095 7.2999 10.0673 6.458 11.6032L9.96563 13.5259ZM12.2931 6.838C11.506 5.98475 10.788 5.07203 9.97616 4.07328L6.87223 6.59629C7.6273 7.52522 8.45611 8.57789 9.35287 9.55008L12.2931 6.838ZM7.64834 3.49141C5.97844 4.19425 4.28201 5.20349 2.92534 6.68523L5.87553 9.38641C6.72642 8.45708 7.87653 7.73522 9.20006 7.17817L7.64834 3.49141ZM2.96858 6.63947L2.9684 6.63966L5.8321 9.43236L5.83229 9.43217L2.96858 6.63947ZM20.288 14.6463C21.5566 14.5592 22.8858 14.4693 24.2045 14.3259L23.7721 10.3493C22.5468 10.4826 21.2995 10.5675 20.0142 10.6556L20.288 14.6463ZM25.9675 12.6254C26.2268 10.842 26.0463 9.04867 25.7331 7.46844L21.8094 8.24619C22.0736 9.579 22.1791 10.8804 22.0091 12.0499L25.9675 12.6254ZM25.2805 6.54502C24.0314 5.10849 21.9799 4.07426 20.7153 3.49006L19.0378 7.1213C20.3378 7.72188 21.6408 8.45521 22.262 9.1696L25.2805 6.54502ZM18.325 4.04362C17.5392 5.0097 16.7658 5.99089 16.0118 6.9957L19.2113 9.39647C19.9277 8.44167 20.6679 7.50223 21.4281 6.56774L18.325 4.04362ZM15.9745 9.34499C16.909 10.6766 17.7526 12.041 18.2943 13.3944L22.0079 11.9079C21.2959 10.1292 20.2467 8.46936 19.2486 7.04718L15.9745 9.34499ZM22.1485 12.5495L22.1485 12.5493L18.1537 12.7526L18.1537 12.7529L22.1485 12.5495ZM7.02995 13.7672C7.81069 15.5451 8.75301 17.3137 9.91932 18.9521L13.178 16.6323C12.2069 15.2683 11.392 13.752 10.6924 12.1589L7.02995 13.7672ZM11.389 19.7858C13.2368 19.9338 15.1382 19.921 17.0104 19.6991L16.5397 15.7269C14.9596 15.9142 13.3247 15.9281 11.7083 15.7986L11.389 19.7858ZM18.2727 19.0386C19.6702 17.4596 20.6722 15.6338 21.3694 13.7448L17.6168 12.3598C17.0586 13.8722 16.2889 15.2447 15.2774 16.3874L18.2727 19.0386ZM21.3579 12.3296C20.6562 10.5188 19.5625 8.80976 18.5608 7.39121L15.2934 9.69861C16.2398 11.0388 17.1063 12.4282 17.6283 13.7751L21.3579 12.3296ZM17.1674 6.5594C15.2452 6.32679 13.2254 6.32364 11.318 6.52038L11.7284 10.4993C13.3582 10.3312 15.0786 10.3358 16.6868 10.5304L17.1674 6.5594ZM9.84124 7.42773C8.88569 8.91301 7.96424 10.4348 7.10631 12.0032L10.6156 13.9228C11.4182 12.4556 12.2886 11.0167 13.2052 9.59192L9.84124 7.42773ZM8.48604 14.9276L8.48625 14.9276L9.23608 10.9985L9.23587 10.9985L8.48604 14.9276ZM19.2008 6.3603C20.6009 6.99595 21.9676 7.74581 22.7446 8.57139L25.6573 5.82989C24.2918 4.37898 22.271 3.36129 20.8545 2.71812L19.2008 6.3603ZM25.1479 8.96228C25.3081 8.87616 25.4404 8.82891 25.5558 8.80445L24.7265 4.89135C24.1796 5.00725 23.6902 5.20459 23.2541 5.43899L25.1479 8.96228ZM26.8233 5.76611C24.9218 2.80925 22.0399 0.579432 18.6836 -0.503455L17.4553 3.30331C19.9245 4.09998 22.0543 5.74546 23.459 7.92969L26.8233 5.76611ZM17.6757 -0.560933C17.2488 -0.475205 16.9115 -0.292962 16.7226 -0.179586C16.5122 -0.0532975 16.3359 0.0803754 16.2187 0.173875L18.7133 3.30067C18.7594 3.26387 18.7821 3.24949 18.7813 3.24999C18.779 3.25134 18.7557 3.26541 18.7131 3.28405C18.6731 3.30154 18.5871 3.3359 18.4632 3.36079L17.6757 -0.560933ZM16.2502 3.32528C17.078 3.95907 17.7768 4.72531 18.34 5.61166L21.7161 3.46646C20.9053 2.19043 19.8888 1.07334 18.6818 0.149269L16.2502 3.32528ZM19.3463 2.65885L19.3459 2.659L20.7094 6.41943L20.7098 6.41927L19.3463 2.65885ZM2.46782 8.99023C2.77361 9.03493 2.97181 9.09832 3.07708 9.15191L4.89164 5.58717C4.24551 5.25827 3.57162 5.10907 3.04634 5.03229L2.46782 8.99023ZM5.42937 8.75227C6.37525 7.76379 7.61526 7.00553 9.02796 6.42618L7.51023 2.7253C5.74649 3.44861 3.97994 4.48133 2.53935 5.9868L5.42937 8.75227ZM10.0299 5.52425C10.5046 4.64296 11.0732 3.89775 11.7488 3.33584L9.19099 0.260493C8.03001 1.22608 7.16215 2.41348 6.50832 3.62723L10.0299 5.52425ZM11.5242 0.09867C11.1766 -0.117002 10.6408 -0.395425 9.99091 -0.494979L9.38521 3.4589C9.35286 3.45394 9.33129 3.44813 9.32139 3.44518C9.31145 3.44221 9.30977 3.44108 9.31657 3.44395C9.32327 3.44678 9.33553 3.45235 9.35323 3.4617C9.37083 3.47099 9.39168 3.48289 9.4155 3.49767L11.5242 0.09867ZM9.03679 -0.409034C5.72396 0.731919 2.90643 2.9899 1.05969 5.95368L4.45458 8.06904C5.81958 5.87838 7.90128 4.21262 10.3393 3.37295L9.03679 -0.409034ZM4.50894 6.04638L4.50889 6.04628L1.00528 7.97624L1.00533 7.97633L4.50894 6.04638ZM11.6554 9.74147C13.3158 9.56996 15.0882 9.57495 16.7319 9.77011L17.2035 5.79801C15.2525 5.56636 13.1836 5.56232 11.2444 5.76264L11.6554 9.74147ZM18.5676 8.98428C19.304 8.0026 20.0678 7.03217 20.8484 6.07172L17.7442 3.54896C16.9379 4.5412 16.1413 5.55297 15.3679 6.58385L18.5676 8.98428ZM20.968 3.71241C20.1384 2.44932 19.0943 1.36063 17.8537 0.483099L15.5437 3.74866C16.3691 4.33253 17.065 5.05617 17.6246 5.90828L20.968 3.71241ZM17.2386 0.190121C15.0457 -0.424641 12.8658 -0.353561 10.7628 0.201091L11.7829 4.06883C13.2914 3.67096 14.7403 3.64395 16.1589 4.04164L17.2386 0.190121ZM10.0924 0.520436C8.82813 1.44476 7.91435 2.65106 7.24354 3.86755L10.7463 5.79908C11.2233 4.93408 11.787 4.23656 12.4532 3.74949L10.0924 0.520436ZM7.44333 6.09529C8.21264 7.04115 9.06292 8.12347 9.9857 9.11488L12.9137 6.38961C12.1087 5.52479 11.3777 4.59328 10.5465 3.57134L7.44333 6.09529ZM12.8006 9.22702L12.8008 9.22683L10.0989 6.27728L10.0987 6.27747L12.8006 9.22702ZM9.81462 2.8497C9.86899 2.88271 9.93213 2.92483 10.0056 2.97896L12.3788 -0.240964C12.2228 -0.355927 12.0602 -0.466467 11.8901 -0.569717L9.81462 2.8497ZM11.686 3.30707C13.2327 2.91296 14.7737 2.88547 16.2439 3.27593L17.2707 -0.590054C15.0646 -1.17594 12.8255 -1.11109 10.6983 -0.569079L11.686 3.30707ZM18.0947 2.83001C18.16 2.77126 18.2128 2.72732 18.2554 2.69434L15.8083 -0.469748C15.6716 -0.36402 15.5421 -0.254067 15.4199 -0.144141L18.0947 2.83001ZM17.4874 -0.835139C15.1579 -1.38002 12.7047 -1.37065 10.3785 -0.802989L11.3268 3.08298C13.0402 2.66487 14.8564 2.65742 16.5763 3.05973L17.4874 -0.835139ZM10.871 -0.85992L10.8707 -0.859923L10.834 3.13991L10.8343 3.13991L10.871 -0.85992Z" fill="#9F9F9F" mask="url(#path-1-inside-1_23_2506)"/>
</svg>
