<svg width="24" height="23" viewBox="0 0 24 23" fill="none" xmlns="http://www.w3.org/2000/svg">
<path d="M15.9035 8.59283L15.9058 8.59307L22.356 9.27515L17.5321 13.6424L17.5312 13.6433C17.1157 14.0204 16.9328 14.59 17.0481 15.1373L17.0482 15.1379L18.3957 21.5143L12.7896 18.2611C12.7894 18.2609 12.7892 18.2608 12.789 18.2607C12.3013 17.9768 11.6989 17.9768 11.2113 18.2606C11.211 18.2607 11.2107 18.2609 11.2104 18.2611L5.60428 21.5143L6.95178 15.1379L6.95189 15.1374C7.06725 14.59 6.88428 14.0204 6.4688 13.6433L6.46786 13.6424L1.64396 9.27515L8.09423 8.59307L8.09648 8.59283C8.65425 8.53257 9.13891 8.17943 9.36658 7.66502C9.36661 7.66496 9.36664 7.66489 9.36667 7.66482C9.36672 7.6647 9.36677 7.66459 9.36682 7.66448L12 1.71876L14.6332 7.66448C14.6333 7.66466 14.6333 7.66484 14.6334 7.66503C14.8611 8.17942 15.3457 8.53257 15.9035 8.59283ZM23.1591 8.54811C23.1593 8.54791 23.1595 8.54772 23.1597 8.54752L23.1594 8.54782L23.1591 8.54811ZM23.0233 9.05503L23.0233 9.05529L23.0233 9.05503Z" stroke="#A6A4A4" stroke-width="2"/>
</svg>
