<svg width="22" height="14" viewBox="0 0 22 14" fill="none" xmlns="http://www.w3.org/2000/svg">
<path d="M21.9997 1.55253C22.0077 1.12634 21.8408 0.764567 21.4993 0.466897C21.1497 0.162582 20.7327 0.00703969 20.2482 0.000227522C19.7477 -0.00656653 19.3228 0.138797 18.9732 0.43646L7.02224 10.288L3.11405 6.58481C2.7804 6.2737 2.36734 6.10795 1.8748 6.0877C1.38236 6.06066 0.95338 6.18919 0.58806 6.47327C0.222637 6.75056 0.0279427 7.09891 0.0041463 7.51829C-0.0276363 7.93753 0.123298 8.30626 0.456958 8.62418L5.60433 13.5043C5.81883 13.7071 6.08492 13.8492 6.40261 13.9304C6.71246 14.0116 7.02615 14.0218 7.34398 13.9608C7.66168 13.8933 7.93975 13.7647 8.17805 13.5754L21.4635 2.61791C21.813 2.32038 21.9917 1.96524 21.9997 1.55267L21.9997 1.55253Z" fill="#A6A4A4"/>
</svg>
