<svg width="16" height="16" viewBox="0 0 16 16" fill="none" xmlns="http://www.w3.org/2000/svg">
<path fill-rule="evenodd" clip-rule="evenodd" d="M8 0C3.58453 0 0 3.58453 0 8C0 12.4155 3.58453 16 8 16C12.4155 16 16 12.4155 16 8C16 3.58453 12.4155 0 8 0ZM8 1.31145C11.6915 1.31145 14.6882 4.30836 14.6882 7.9997C14.6882 11.691 11.6913 14.6879 8 14.6879C4.30866 14.6879 1.31175 11.691 1.31175 7.9997C1.31175 4.30836 4.30866 1.31145 8 1.31145ZM7.2074 4.44994V8.122C7.2074 8.48393 7.50119 8.77773 7.86313 8.77773H12.1737C12.5356 8.77773 12.8294 8.48394 12.8294 8.122C12.8294 7.76007 12.5356 7.46628 12.1737 7.46628H8.519V4.45009C8.519 4.08816 8.22522 3.79436 7.86328 3.79436C7.50135 3.79436 7.20755 4.08815 7.20755 4.45009L7.2074 4.44994Z" fill="#7DC94F"/>
</svg>
