<svg width="15" height="25" viewBox="0 0 15 25" fill="none" xmlns="http://www.w3.org/2000/svg">
<path d="M7.69509 24.9974L6.42667 24.9913V22.1034L6.22202 22.0874C5.79699 22.0543 5.3393 21.9953 4.73154 21.8953C4.53737 21.8633 4.16094 21.7837 3.81979 21.7026C3.5034 21.6274 2.75105 21.4058 2.62736 21.3512C2.60163 21.3399 2.49633 21.3013 2.39365 21.2657C1.62127 20.9971 0.722816 20.5233 0.121267 20.068L0 19.9761L0.0895825 19.7768C0.244919 19.4313 0.324731 19.2489 0.324731 19.2401C0.324731 19.2354 0.360229 19.1521 0.403592 19.0548C0.446952 18.9577 0.506038 18.8241 0.5351 18.7577C0.563927 18.6914 0.637783 18.5233 0.699012 18.384C0.76024 18.2446 0.833855 18.0765 0.862923 18.0102C0.891751 17.9438 0.951073 17.8102 0.994431 17.7131C1.03779 17.616 1.07329 17.5327 1.07329 17.5281C1.07329 17.5234 1.11117 17.4347 1.15739 17.331C1.20361 17.2273 1.27199 17.0737 1.30939 16.9899C1.3468 16.9061 1.37729 16.8287 1.37729 16.8181C1.37729 16.7876 1.44186 16.74 1.45091 16.7636C1.45544 16.7751 1.56955 16.8606 1.70464 16.9533C2.74959 17.6708 4.06991 18.2131 5.41054 18.4758C5.83795 18.5596 6.04521 18.5933 6.2699 18.6154L6.42761 18.6312L6.42666 16.3998V14.169L6.37401 14.1543C6.34518 14.1462 6.23202 14.1172 6.12266 14.0897C5.91301 14.0371 5.85154 14.0201 5.42127 13.8985C5.27332 13.8567 5.09726 13.8071 5.03007 13.7882C4.77467 13.7169 3.86814 13.3972 3.7028 13.32C3.67707 13.308 3.55604 13.2532 3.43382 13.1979C1.81568 12.4676 0.842698 11.3939 0.516034 9.97899C0.39215 9.4423 0.382618 9.34889 0.383093 8.66476C0.383332 8.15265 0.391908 7.97767 0.425739 7.78454C0.625147 6.65244 1.0709 5.75625 1.82303 4.9753C2.47727 4.29582 3.36017 3.75323 4.38036 3.40384C4.92284 3.21782 5.54058 3.07357 6.16933 2.98584C6.22723 2.97773 6.30871 2.96569 6.35064 2.9593L6.42664 2.94751V0.00822816L7.70293 0.00183901C8.4048 -0.00160128 8.98348 -0.000126664 8.98897 0.0055253C8.99421 0.0109315 8.99874 0.664807 8.99874 1.45859C8.99874 2.81653 9.00112 2.90159 9.03972 2.90203C9.12191 2.90276 9.70439 2.97231 10.0392 3.02121C10.6414 3.10918 11.7162 3.36622 12.155 3.52718C12.1871 3.53898 12.2925 3.57756 12.3887 3.6127C12.5483 3.67094 12.6708 3.71837 12.7978 3.77046C13.2245 3.94592 13.823 4.2521 14.1236 4.44893C14.2124 4.50717 14.2294 4.52879 14.2117 4.56124C14.1996 4.58335 14.1355 4.74259 14.0695 4.9151C13.9444 5.24144 13.6876 5.89238 13.6509 5.97618C13.6392 6.00272 13.5387 6.25779 13.4272 6.54285C13.3157 6.8279 13.1627 7.21836 13.0872 7.41054C13.0117 7.60247 12.9497 7.76318 12.9497 7.7676C12.9497 7.77202 12.884 7.73836 12.8037 7.69265C12.0282 7.25327 11.2908 6.93995 10.4716 6.70209C10.1485 6.60822 10.0232 6.57701 9.62982 6.49248C9.47044 6.45808 9.09806 6.39812 9.04517 6.39812C8.99848 6.39812 8.99824 6.4104 9.0042 8.66799L9.01015 10.9379L9.50117 11.0644C10.6652 11.3645 11.3945 11.6112 12.088 11.9392C13.5878 12.6486 14.4667 13.6174 14.8281 14.9593C15.0415 15.7523 15.057 16.7215 14.87 17.576C14.5705 18.9442 13.6518 20.1734 12.3546 20.9413C12.0221 21.1381 11.619 21.334 11.2899 21.4583C11.1934 21.4947 11.0936 21.5338 11.0679 21.5451C10.7865 21.6675 9.81021 21.9063 9.30277 21.9771C9.19341 21.9923 9.08025 22.0105 9.05142 22.0179L8.99877 22.0309V23.51C8.99877 24.3234 8.9909 24.9925 8.98114 24.9965C8.97161 25.0007 8.39291 25.0012 7.69509 24.9977L7.69509 24.9974ZM9.18363 18.4789C9.4233 18.4243 9.78781 18.2734 10.0156 18.1343C10.135 18.0613 10.3694 17.8655 10.4668 17.7574C10.5826 17.6286 10.7301 17.3689 10.7901 17.1875C10.8459 17.0194 10.853 16.9619 10.8525 16.6842C10.8523 16.4046 10.8456 16.353 10.7911 16.206C10.7113 15.9913 10.5471 15.7389 10.3946 15.5966C10.2224 15.4359 9.92864 15.2427 9.64799 15.1061C9.4169 14.9936 9.05239 14.8397 9.01595 14.8395C9.00642 14.8395 8.99832 15.6708 8.99832 16.6869C8.99832 18.4029 9.00118 18.5334 9.03739 18.5189C9.05883 18.5103 9.12459 18.4926 9.18343 18.4791L9.18363 18.4789ZM6.42667 8.36126V6.46538L6.37402 6.48185C6.34519 6.49094 6.27944 6.50888 6.22798 6.5219C6.0524 6.56614 5.7839 6.67107 5.58258 6.77452C5.03557 7.05539 4.67632 7.48639 4.54788 8.01596C4.49832 8.22066 4.49713 8.63079 4.54573 8.8232C4.66057 9.27757 5.03532 9.66064 5.66832 9.97128C5.93873 10.104 6.31708 10.2541 6.38569 10.2561C6.42429 10.2573 6.42667 10.1514 6.42667 8.36147L6.42667 8.36126Z" fill="#7DC94F"/>
</svg>
