<svg width="24" height="24" viewBox="0 0 24 24" fill="none" xmlns="http://www.w3.org/2000/svg">
<path d="M0 11.9922C0 15.1748 1.26427 18.2269 3.51471 20.4775C5.76529 22.7279 8.81777 23.9922 12 23.9922C15.1822 23.9922 18.2347 22.7279 20.4853 20.4775C22.7357 18.2269 24 15.1744 24 11.9922H11.9999L14.0743 0.180678C11.7678 -0.224171 9.39328 0.0547844 7.24355 0.982921C5.09358 1.91104 3.26221 3.44799 1.97527 5.40415C0.688218 7.36046 0.00151838 9.65047 0 11.992V11.9922Z" fill="#03C3EC" fill-opacity="0.5"/>
<path d="M20.936 4.55212C19.5209 2.8338 17.542 1.67342 15.3518 1.27771L13.7146 10.7064H23.1432C23.1448 8.46072 22.3646 6.28479 20.9361 4.55202L20.936 4.55212Z" fill="#03C3EC"/>
</svg>
