<svg width="14" height="16" viewBox="0 0 14 16" fill="none" xmlns="http://www.w3.org/2000/svg">
<path d="M11.7247 4.2033C11.5096 4.2033 11.3406 4.34635 11.3253 4.54653L10.9719 13.7273C10.9719 14.0276 10.7107 14.285 10.3727 14.285H3.59675C3.27404 14.285 2.99752 14.0419 2.99752 13.713L2.64416 4.54658C2.64416 4.34639 2.45981 4.18908 2.2447 4.20335C2.02959 4.20335 1.86057 4.37493 1.87591 4.57513L2.22928 13.7273C2.22928 14.428 2.84382 15 3.59675 15H10.3727C11.1256 15 11.7402 14.428 11.7402 13.7416L12.0935 4.57511C12.1089 4.37501 11.9398 4.20343 11.7247 4.20343V4.2033ZM12.6159 2.57308H9.89629V1.35751C9.89629 1.15731 9.72727 1 9.51216 1H4.5032C4.2881 1 4.11908 1.15731 4.11908 1.35751V2.57308H1.38412C1.16902 2.57308 1 2.73038 1 2.93058C1 3.13078 1.16902 3.28809 1.38412 3.28809H12.6159C12.831 3.28809 13 3.13078 13 2.93058C13 2.73038 12.8155 2.57308 12.6159 2.57308H12.6159ZM9.1127 2.57308H4.87199V1.71501H9.1127V2.57308ZM4.07301 12.7977V12.8835C4.07301 13.0408 4.21127 13.1695 4.38028 13.1695H9.4968C9.66582 13.1695 9.80407 13.0408 9.80407 12.8835V12.7977C9.80407 12.6404 9.66581 12.5118 9.4968 12.5118H8.57485C8.59018 12.4689 8.60561 12.426 8.60561 12.3687L8.77463 4.56079C8.77463 4.36059 8.60561 4.20329 8.40584 4.18901H8.39052C8.17541 4.18901 8.00639 4.34632 8.00639 4.53224L7.83738 12.3402C7.83738 12.3973 7.8527 12.4403 7.86813 12.4975H6.00892C6.02425 12.4546 6.03969 12.3973 6.03969 12.3402L5.87067 4.53224C5.87067 4.33205 5.68632 4.17474 5.4712 4.18901C5.2561 4.18901 5.08708 4.36058 5.10242 4.56079L5.27144 12.3687C5.27144 12.4116 5.28677 12.4689 5.3022 12.5118H4.38025C4.21123 12.5118 4.07298 12.6404 4.07298 12.7977H4.07301Z" fill="#585757" stroke="#585757" stroke-width="0.2"/>
</svg>
