<svg width="18" height="19" viewBox="0 0 18 19" fill="none" xmlns="http://www.w3.org/2000/svg">
<path d="M2.28711 4.65265L3.46401 17.5982H3.46386C3.47891 17.7624 3.55472 17.9151 3.67656 18.0263C3.79824 18.1375 3.95725 18.199 4.12216 18.199H14.6949C14.8598 18.199 15.0188 18.1375 15.1405 18.0263C15.2624 17.9151 15.3382 17.7624 15.3532 17.5982L16.53 4.65265H2.28711ZM6.80697 16.2147C6.79251 16.216 6.77865 16.2166 6.76478 16.2166C6.50725 16.2163 6.29278 16.019 6.27141 15.7624L5.61061 7.83278C5.59955 7.7018 5.64114 7.5717 5.7261 7.4714C5.81092 7.37095 5.93231 7.30842 6.06329 7.2975C6.33616 7.27464 6.57584 7.4773 6.59857 7.75017L7.25937 15.6797C7.28208 15.9525 7.07942 16.192 6.80671 16.2147L6.80697 16.2147ZM9.90414 15.721C9.90414 15.9948 9.6823 16.2166 9.40854 16.2166C9.13479 16.2166 8.91295 15.9948 8.91295 15.721V7.79148C8.91295 7.51772 9.13479 7.29588 9.40854 7.29588C9.6823 7.29588 9.90414 7.51772 9.90414 7.79148V15.721ZM12.5457 15.7624C12.5243 16.019 12.3099 16.2163 12.0523 16.2166C12.0385 16.2166 12.0246 16.216 12.0104 16.2147C11.8795 16.2038 11.7581 16.1413 11.6733 16.0408C11.5883 15.9405 11.5467 15.8104 11.5578 15.6794L12.2186 7.74987C12.2413 7.477 12.481 7.27433 12.7539 7.29721C13.0267 7.32007 13.2294 7.55961 13.2065 7.83249L12.5457 15.7624Z" fill="#A6A4A4"/>
<path d="M17.3383 2.33988H12.7127V1.01828C12.7127 0.843052 12.6431 0.6749 12.5192 0.551002C12.3953 0.427105 12.2271 0.357483 12.0519 0.357483H6.76553C6.5903 0.357483 6.42215 0.427105 6.29825 0.551002C6.17435 0.6749 6.10473 0.843052 6.10473 1.01828V2.33988H1.47915C1.243 2.33988 1.02486 2.46584 0.906859 2.67027C0.788859 2.87471 0.788859 3.12664 0.906859 3.33107C1.02486 3.5355 1.24301 3.66147 1.47915 3.66147H17.3383C17.5744 3.66147 17.7926 3.53551 17.9106 3.33107C18.0286 3.12664 18.0286 2.87471 17.9106 2.67027C17.7926 2.46584 17.5744 2.33988 17.3383 2.33988Z" fill="#A6A4A4"/>
</svg>
