<svg width="22" height="26" viewBox="0 0 22 26" fill="none" xmlns="http://www.w3.org/2000/svg">
<path fill-rule="evenodd" clip-rule="evenodd" d="M10.9996 0C14.9897 0 18.2284 3.09114 18.2284 6.90023C18.2284 10.709 14.99 13.8005 10.9996 13.8005C7.00941 13.8005 3.77075 10.7093 3.77075 6.90023C3.77075 3.09145 7.00909 0 10.9996 0ZM10.9996 1.80001C8.05039 1.80001 5.65659 4.0848 5.65659 6.90012C5.65659 9.71524 8.05017 12.0002 10.9996 12.0002C13.9487 12.0002 16.3425 9.71545 16.3425 6.90012C16.3425 4.085 13.9489 1.80001 10.9996 1.80001Z" fill="#A6A4A4"/>
<path fill-rule="evenodd" clip-rule="evenodd" d="M17.8362 14.3483C17.4917 13.9762 17.5283 13.4063 17.9191 13.0774C18.3089 12.7485 18.9047 12.7847 19.2493 13.1565C20.9616 15.0082 22 17.4394 22 20.1C22 22.4352 20.1469 23.8105 17.7986 24.5112C14.97 25.3547 11.4879 25.2239 11.0089 25.2013C10.5539 25.223 7.04632 25.3596 4.20141 24.5112C1.85308 23.8105 0 22.4352 0 20.1C0 17.4396 1.03839 15.0083 2.75074 13.1565C3.09526 12.7845 3.69107 12.7485 4.08088 13.0774C4.47192 13.4063 4.50833 13.9762 4.1638 14.3483C2.74697 15.8819 1.88579 17.8955 1.88579 20.1001C1.88579 21.6074 3.24852 22.3404 4.76471 22.7928C7.50914 23.6125 10.9413 23.4011 10.9413 23.4011C10.9802 23.3999 11.0204 23.3999 11.0593 23.4011C11.0593 23.4011 14.4913 23.6123 17.2359 22.7928C18.7521 22.3404 20.1148 21.6071 20.1148 20.1001C20.1148 17.8957 19.2536 15.8821 17.8368 14.3483H17.8362Z" fill="#A6A4A4"/>
</svg>
