<svg width="24" height="24" viewBox="0 0 24 24" fill="none" xmlns="http://www.w3.org/2000/svg">
<path d="M1.86516 24C2.03436 24 2.20624 23.9766 2.37655 23.9293L13.8037 20.7547C15.0329 20.4138 15.9191 19.3749 16.0633 18.1092L16.5807 13.578C16.6249 13.1963 16.8142 12.8533 17.1156 12.613L19.8145 10.4559L20.0056 10.6468C20.681 11.3243 21.8623 11.3243 22.5377 10.6477L23.4779 9.70898C24.1742 9.01186 24.1742 7.87684 23.477 7.17927L16.8009 0.507345C16.1238 -0.169269 14.9442 -0.168812 14.2687 0.506899L13.3285 1.44564C12.6323 2.14276 12.6323 3.27732 13.3294 3.97581L13.5524 4.19866L11.3934 6.89655C11.1573 7.19191 10.8057 7.38576 10.4289 7.42881L5.89401 7.94591C4.62747 8.09069 3.58836 8.97699 3.24641 10.205L0.0709126 21.6238C-0.113023 22.2827 0.0657787 22.9649 0.550163 23.449C0.909549 23.8082 1.37829 24 1.86516 24ZM15.5426 1.76274L22.2199 8.45294L21.2806 9.39122H21.2779C21.2727 9.39077 21.2623 9.39033 21.2632 9.39122L14.5859 2.70103L15.5426 1.76274ZM4.95951 10.6807C5.10528 10.1538 5.55147 9.77321 6.09502 9.71119L10.6299 9.1941C11.4833 9.09684 12.2472 8.67455 12.782 8.00557L14.8168 5.4625L18.5495 9.19193L16.0043 11.2259C15.3351 11.7611 14.9124 12.5247 14.815 13.3766L14.2976 17.9087C14.2351 18.4512 13.855 18.8967 13.3279 19.0434L3.43515 21.7911L9.14957 16.0805C9.49689 15.7334 9.49689 15.1712 9.14957 14.8244C8.9759 14.6508 8.74844 14.564 8.52098 14.564C8.29352 14.564 8.06606 14.6508 7.89239 14.8244L2.23336 20.4798L4.95951 10.6807Z" fill="#9F9F9F"/>
</svg>
