<svg width="18" height="24" viewBox="0 0 18 24" fill="none" xmlns="http://www.w3.org/2000/svg">
<path d="M9.00175 16.4312C6.10444 16.4252 3.75601 14.0402 3.75 11.0979V5.33333C3.75 2.38497 6.09843 0 9.00175 0C11.9051 0 14.2535 2.38491 14.2535 5.33333V11.0979C14.2475 14.0402 11.8991 16.4254 9.00175 16.4312ZM9.00175 1.9176C7.14293 1.9176 5.63827 3.44564 5.63827 5.33333V11.0979C5.63827 12.9856 7.14293 14.5136 9.00175 14.5136C10.8606 14.5136 12.3652 12.9856 12.3652 11.0979V5.33333C12.3652 3.45169 10.8604 1.92349 9.00175 1.9176Z" fill="#A6A4A4"/>
<path d="M17.3749 13.0755C16.8851 12.8957 16.3422 13.1593 16.1652 13.6567C15.3981 15.8381 13.7103 17.5519 11.5626 18.3308C10.7305 18.6305 9.8867 18.7801 9.05463 18.7862H9.00153C8.98384 18.7862 8.96017 18.7862 8.94247 18.7923C5.84447 18.7682 2.94732 16.8028 1.83775 13.6627C1.66075 13.1653 1.1238 12.9017 0.628022 13.0815C0.138205 13.2613 -0.121332 13.8066 0.0556938 14.31C1.30657 17.8397 4.43417 20.2908 8.05134 20.6562V23.0411C8.05134 23.5684 8.47612 24 8.99558 24C9.51482 24 9.93982 23.5686 9.93982 23.0411V20.6562C13.563 20.2846 16.6905 17.8397 17.9413 14.31C18.1242 13.8005 17.8645 13.2552 17.3747 13.0755L17.3749 13.0755Z" fill="#A6A4A4"/>
</svg>
