<svg width="25" height="18" viewBox="0 0 25 18" fill="none" xmlns="http://www.w3.org/2000/svg">
<path fill-rule="evenodd" clip-rule="evenodd" d="M4.91978e-06 3.28173V16.8118C0.00136128 17.1266 0.132734 17.4281 0.36525 17.6505C0.59796 17.8732 0.913021 17.9987 1.24204 18H23.4088V12.6656H18.8449C18.1247 12.6654 17.4341 12.3909 16.9261 11.9025L16.8803 11.8581C16.8728 11.8506 16.8654 11.8429 16.858 11.8353C16.8509 11.8275 16.8433 11.8201 16.8358 11.8124L16.8141 11.7893L16.7924 11.7655L16.7712 11.7418L16.7501 11.7179L16.7296 11.6938L16.7092 11.6693C16.7027 11.6612 16.6957 11.6528 16.6893 11.6447C16.6829 11.6365 16.6759 11.6282 16.6695 11.6196C16.6631 11.6111 16.6565 11.603 16.6501 11.5946C16.6437 11.5865 16.6372 11.5776 16.631 11.5681L16.6122 11.5416C16.606 11.5329 16.5996 11.5244 16.5936 11.5151L16.5755 11.4886C16.5693 11.4799 16.5635 11.471 16.5577 11.4621C16.5519 11.453 16.5457 11.4445 16.5399 11.4356L16.5226 11.409L16.4893 11.356L16.4728 11.3295L16.457 11.303C16.4517 11.2939 16.4467 11.2847 16.4415 11.2765L16.4265 11.25L16.4116 11.2218C16.4066 11.2125 16.4019 11.2029 16.3971 11.1936L16.3829 11.1653C16.3783 11.1556 16.3734 11.1462 16.369 11.1365C16.3645 11.1269 16.3599 11.1171 16.3556 11.1076L16.3422 11.0787C16.338 11.0689 16.3339 11.0592 16.3295 11.0494L16.3173 11.0199C16.313 11.0101 16.3091 11.0003 16.3052 10.9904C16.3014 10.9806 16.2971 10.9708 16.2936 10.9606C16.2897 10.9508 16.2859 10.9406 16.2822 10.9307L16.2713 10.9005C16.2676 10.8907 16.2642 10.8805 16.2609 10.8705C16.2576 10.8605 16.2539 10.8503 16.2506 10.8399C16.2473 10.8299 16.2442 10.8197 16.2409 10.8093C16.2376 10.7989 16.2347 10.7889 16.2314 10.7787C16.2283 10.7684 16.2256 10.758 16.2225 10.748C16.2198 10.7376 16.2167 10.7272 16.214 10.7168C16.2113 10.7064 16.2084 10.696 16.2058 10.6857C16.2031 10.6753 16.2006 10.6647 16.1981 10.6543C16.1954 10.644 16.1929 10.6334 16.1905 10.623C16.1884 10.6126 16.1859 10.6021 16.1836 10.5913C16.181 10.5807 16.1787 10.57 16.177 10.5594C16.1748 10.549 16.1727 10.5385 16.1706 10.5277C16.1686 10.5168 16.1667 10.5062 16.165 10.4956C16.163 10.4851 16.1611 10.4743 16.1593 10.4636L16.1543 10.4315C16.1543 10.4206 16.1512 10.41 16.1498 10.3991L16.1456 10.3666C16.1456 10.3557 16.1431 10.3447 16.1419 10.334L16.1386 10.3014C16.1386 10.2904 16.1367 10.2795 16.1359 10.2684L16.1334 10.2354C16.1334 10.2244 16.132 10.2135 16.1314 10.2024L16.1297 10.1692V10.136V10.1028V10.0696L16.1305 9.79247C16.1318 9.10375 16.4182 8.44378 16.9268 7.95657C17.4355 7.46935 18.1251 7.1948 18.8449 7.19295H23.4084V3.79701H1.46535C0.928443 3.79738 0.408946 3.61459 0.000114669 3.28184L4.91978e-06 3.28173ZM4.91978e-06 1.6236V1.62341C0.00194253 1.99474 0.156955 2.3503 0.431322 2.61265C0.705688 2.87516 1.07731 3.02347 1.46526 3.02514H20.7392V0H1.46526C1.07734 0.00166852 0.70553 0.14998 0.431123 0.412486C0.156717 0.674992 0.00174604 1.03055 0 1.40191L4.91978e-06 1.6236ZM23.8116 7.96509H25V11.8938H18.8447C18.3384 11.8934 17.853 11.7003 17.4961 11.3568L17.48 11.341L17.4641 11.3252L17.4482 11.3093L17.4327 11.2932L17.4174 11.277L17.4021 11.2604L17.3872 11.2439L17.3725 11.2268L17.3579 11.2097L17.3434 11.1925L17.3295 11.1753L17.3015 11.14L17.2882 11.1221L17.2748 11.1043L17.2618 11.0859L17.25 11.0675L17.2374 11.0492L17.2252 11.0307L17.213 11.0117L17.201 10.9928L17.1894 10.9737L17.1779 10.9546L17.1558 10.9157L17.1349 10.8764L17.1246 10.8564L17.1146 10.8364L17.1049 10.8162L17.0954 10.796L17.0863 10.7756L17.0774 10.7552L17.0685 10.7344L17.0601 10.7136L17.0518 10.6927L17.044 10.6717L17.0363 10.6504L17.0219 10.6078L17.015 10.5863L17.0084 10.5648C17.0064 10.5575 17.0041 10.5505 17.0022 10.5433L16.996 10.5218L16.9902 10.4997L16.9846 10.4776L16.9793 10.4556L16.9747 10.4335L16.97 10.4113L16.9656 10.389L16.9578 10.3438L16.9541 10.3212L16.951 10.2984L16.9472 10.2756L16.9444 10.2526C16.9444 10.2452 16.9427 10.2374 16.9423 10.2298L16.9402 10.2066L16.9384 10.1834V10.1135V10.0902V10.0668L16.9382 9.79227C16.9402 9.30804 17.1419 8.84437 17.4998 8.50195C17.8574 8.15973 18.3422 7.96675 18.8482 7.96509L23.8116 7.96509ZM19.1741 10.2695C18.9558 10.2313 18.8112 10.0307 18.8513 9.82176C18.8912 9.61283 19.1007 9.47453 19.3191 9.5129L19.326 9.5142C19.5444 9.55257 19.689 9.75298 19.649 9.96191C19.6089 10.1708 19.3995 10.3091 19.1811 10.2708L19.1741 10.2695Z" fill="#696CFF"/>
</svg>
