<svg width="30" height="30" viewBox="0 0 30 30" fill="none" xmlns="http://www.w3.org/2000/svg">
<mask id="mask0_23_2361" style="mask-type:luminance" maskUnits="userSpaceOnUse" x="0" y="0" width="30" height="30">
<path d="M15 30C23.2843 30 30 23.2843 30 15C30 6.71573 23.2843 0 15 0C6.71573 0 0 6.71573 0 15C0 23.2843 6.71573 30 15 30Z" fill="white"/>
</mask>
<g mask="url(#mask0_23_2361)">
<path d="M2.3811 0V18.4091H9.09531L14.9999 8.18182H29.9999V0H2.3811Z" fill="#DB4437"/>
<path d="M2.3811 0V18.4091H9.09531L14.9999 8.18182H29.9999V0H2.3811Z" fill="url(#paint0_linear_23_2361)"/>
</g>
<mask id="mask1_23_2361" style="mask-type:luminance" maskUnits="userSpaceOnUse" x="0" y="0" width="30" height="30">
<path d="M15 30C23.2843 30 30 23.2843 30 15C30 6.71573 23.2843 0 15 0C6.71573 0 0 6.71573 0 15C0 23.2843 6.71573 30 15 30Z" fill="white"/>
</mask>
<g mask="url(#mask1_23_2361)">
<path d="M9.2577 18.3493L2.46849 6.70557L2.36963 6.87602L9.1094 18.4328L9.2577 18.3493Z" fill="#3E2723" fill-opacity="0.15"/>
</g>
<mask id="mask2_23_2361" style="mask-type:luminance" maskUnits="userSpaceOnUse" x="0" y="0" width="30" height="30">
<path d="M15 30C23.2843 30 30 23.2843 30 15C30 6.71573 23.2843 0 15 0C6.71573 0 0 6.71573 0 15C0 23.2843 6.71573 30 15 30Z" fill="white"/>
</mask>
<g mask="url(#mask2_23_2361)">
<path d="M0 30H14.279L20.9063 23.3727V18.4091H9.09546L0 2.80908V30Z" fill="#0F9D58"/>
<path d="M0 30H14.279L20.9063 23.3727V18.4091H9.09546L0 2.80908V30Z" fill="url(#paint1_linear_23_2361)"/>
</g>
<mask id="mask3_23_2361" style="mask-type:luminance" maskUnits="userSpaceOnUse" x="0" y="0" width="30" height="30">
<path d="M15 30C23.2843 30 30 23.2843 30 15C30 6.71573 23.2843 0 15 0C6.71573 0 0 6.71573 0 15C0 23.2843 6.71573 30 15 30Z" fill="white"/>
</mask>
<g mask="url(#mask3_23_2361)">
<path d="M20.7682 18.6358L20.6268 18.554L14.083 30H14.279L20.7733 18.6409L20.7682 18.6358Z" fill="#263238" fill-opacity="0.15"/>
</g>
<mask id="mask4_23_2361" style="mask-type:luminance" maskUnits="userSpaceOnUse" x="0" y="0" width="30" height="30">
<path d="M15 30C23.2843 30 30 23.2843 30 15C30 6.71573 23.2843 0 15 0C6.71573 0 0 6.71573 0 15C0 23.2843 6.71573 30 15 30Z" fill="white"/>
</mask>
<g mask="url(#mask4_23_2361)">
<mask id="mask5_23_2361" style="mask-type:luminance" maskUnits="userSpaceOnUse" x="0" y="2" width="21" height="28">
<path d="M0 30H14.279L20.9063 23.3727V18.4091H9.09546L0 2.80908V30Z" fill="white"/>
</mask>
<g mask="url(#mask5_23_2361)">
<path d="M15.0001 8.18188L20.9063 18.4092L14.2791 30.0001H30.0001V8.18188H15.0001Z" fill="#FFCD40"/>
<path d="M15.0001 8.18188L20.9063 18.4092L14.2791 30.0001H30.0001V8.18188H15.0001Z" fill="url(#paint2_linear_23_2361)"/>
</g>
</g>
<mask id="mask6_23_2361" style="mask-type:luminance" maskUnits="userSpaceOnUse" x="0" y="0" width="30" height="30">
<path d="M15 30C23.2843 30 30 23.2843 30 15C30 6.71573 23.2843 0 15 0C6.71573 0 0 6.71573 0 15C0 23.2843 6.71573 30 15 30Z" fill="white"/>
</mask>
<g mask="url(#mask6_23_2361)">
<path d="M15.0001 8.18188L20.9063 18.4092L14.2791 30.0001H30.0001V8.18188H15.0001Z" fill="#FFCD40"/>
<path d="M15.0001 8.18188L20.9063 18.4092L14.2791 30.0001H30.0001V8.18188H15.0001Z" fill="url(#paint3_linear_23_2361)"/>
</g>
<mask id="mask7_23_2361" style="mask-type:luminance" maskUnits="userSpaceOnUse" x="0" y="0" width="30" height="30">
<path d="M15 30C23.2843 30 30 23.2843 30 15C30 6.71573 23.2843 0 15 0C6.71573 0 0 6.71573 0 15C0 23.2843 6.71573 30 15 30Z" fill="white"/>
</mask>
<g mask="url(#mask7_23_2361)">
<mask id="mask8_23_2361" style="mask-type:luminance" maskUnits="userSpaceOnUse" x="14" y="8" width="16" height="23">
<path d="M15.0001 8.18188L20.9063 18.4092L14.2791 30.0001H30.0001V8.18188H15.0001Z" fill="white"/>
</mask>
<g mask="url(#mask8_23_2361)">
<path d="M2.3811 0V18.4091H9.09531L14.9999 8.18182H29.9999V0H2.3811Z" fill="#DB4437"/>
<path d="M2.3811 0V18.4091H9.09531L14.9999 8.18182H29.9999V0H2.3811Z" fill="url(#paint4_linear_23_2361)"/>
</g>
</g>
<mask id="mask9_23_2361" style="mask-type:luminance" maskUnits="userSpaceOnUse" x="0" y="0" width="30" height="30">
<path d="M15 30C23.2843 30 30 23.2843 30 15C30 6.71573 23.2843 0 15 0C6.71573 0 0 6.71573 0 15C0 23.2843 6.71573 30 15 30Z" fill="white"/>
</mask>
<g mask="url(#mask9_23_2361)">
<path d="M15 8.18188V11.7529L28.3636 8.18188H15Z" fill="url(#paint5_radial_23_2361)"/>
</g>
<mask id="mask10_23_2361" style="mask-type:luminance" maskUnits="userSpaceOnUse" x="0" y="0" width="30" height="30">
<path d="M15 30C23.2843 30 30 23.2843 30 15C30 6.71573 23.2843 0 15 0C6.71573 0 0 6.71573 0 15C0 23.2843 6.71573 30 15 30Z" fill="white"/>
</mask>
<g mask="url(#mask10_23_2361)">
<mask id="mask11_23_2361" style="mask-type:luminance" maskUnits="userSpaceOnUse" x="2" y="0" width="28" height="19">
<path d="M2.3811 0V6.87614L9.09531 18.4091L14.9999 8.18182H29.9999V0H2.3811Z" fill="white"/>
</mask>
<g mask="url(#mask11_23_2361)">
<path d="M0 30H14.279L20.9063 23.3727V18.4091H9.09546L0 2.80908V30Z" fill="#0F9D58"/>
<path d="M0 30H14.279L20.9063 23.3727V18.4091H9.09546L0 2.80908V30Z" fill="url(#paint6_linear_23_2361)"/>
</g>
</g>
<mask id="mask12_23_2361" style="mask-type:luminance" maskUnits="userSpaceOnUse" x="0" y="0" width="30" height="30">
<path d="M15 30C23.2843 30 30 23.2843 30 15C30 6.71573 23.2843 0 15 0C6.71573 0 0 6.71573 0 15C0 23.2843 6.71573 30 15 30Z" fill="white"/>
</mask>
<g mask="url(#mask12_23_2361)">
<path d="M2.3811 6.8949L12.1396 16.6517L9.09531 18.4091L2.3811 6.8949Z" fill="url(#paint7_radial_23_2361)"/>
</g>
<mask id="mask13_23_2361" style="mask-type:luminance" maskUnits="userSpaceOnUse" x="0" y="0" width="30" height="30">
<path d="M15 30C23.2843 30 30 23.2843 30 15C30 6.71573 23.2843 0 15 0C6.71573 0 0 6.71573 0 15C0 23.2843 6.71573 30 15 30Z" fill="white"/>
</mask>
<g mask="url(#mask13_23_2361)">
<path d="M14.2893 29.9813L17.862 16.6517L20.9064 18.4091L14.2893 29.9813Z" fill="url(#paint8_radial_23_2361)"/>
</g>
<mask id="mask14_23_2361" style="mask-type:luminance" maskUnits="userSpaceOnUse" x="0" y="0" width="30" height="30">
<path d="M15 30C23.2843 30 30 23.2843 30 15C30 6.71573 23.2843 0 15 0C6.71573 0 0 6.71573 0 15C0 23.2843 6.71573 30 15 30Z" fill="white"/>
</mask>
<g mask="url(#mask14_23_2361)">
<path d="M14.9998 21.8182C18.7654 21.8182 21.818 18.7656 21.818 15.0001C21.818 11.2345 18.7654 8.18188 14.9998 8.18188C11.2342 8.18188 8.18164 11.2345 8.18164 15.0001C8.18164 18.7656 11.2342 21.8182 14.9998 21.8182Z" fill="#F1F1F1"/>
<path d="M15 20.4546C18.0124 20.4546 20.4545 18.0125 20.4545 15.0001C20.4545 11.9876 18.0124 9.54553 15 9.54553C11.9875 9.54553 9.54541 11.9876 9.54541 15.0001C9.54541 18.0125 11.9875 20.4546 15 20.4546Z" fill="#4285F4"/>
</g>
<mask id="mask15_23_2361" style="mask-type:luminance" maskUnits="userSpaceOnUse" x="0" y="0" width="30" height="30">
<path d="M15 30C23.2843 30 30 23.2843 30 15C30 6.71573 23.2843 0 15 0C6.71573 0 0 6.71573 0 15C0 23.2843 6.71573 30 15 30Z" fill="white"/>
</mask>
<g mask="url(#mask15_23_2361)">
<path d="M14.9998 8.01147C11.2345 8.01147 8.18164 11.0643 8.18164 14.8297V15.0001C8.18164 11.2348 11.2345 8.18193 14.9998 8.18193H29.9998V8.01147H14.9998Z" fill="#3E2723" fill-opacity="0.2"/>
<path d="M20.8977 18.4091C19.7182 20.4443 17.521 21.8182 15 21.8182C12.4773 21.8182 10.2801 20.4443 9.10057 18.4091H9.09375L0 2.80908V2.97954L9.09546 18.5795H9.10227C10.2818 20.6148 12.479 21.9886 15.0017 21.9886C17.5227 21.9886 19.7199 20.6165 20.8994 18.5795H20.908V18.4091H20.8977Z" fill="white" fill-opacity="0.1"/>
<path opacity="0.1" d="M15.1707 8.18188C15.1417 8.18188 15.1144 8.18529 15.0854 8.187C18.8116 8.23302 21.8184 11.2637 21.8184 15.0001C21.8184 18.7364 18.8116 21.7671 15.0854 21.8131C15.1144 21.8131 15.1417 21.8182 15.1707 21.8182C18.936 21.8182 21.9889 18.7654 21.9889 15.0001C21.9889 11.2347 18.936 8.18188 15.1707 8.18188Z" fill="#3E2723"/>
<path d="M20.966 18.6358C21.5455 17.6335 21.8813 16.4744 21.8813 15.2335C21.8813 14.5142 21.7688 13.8222 21.5626 13.1727C21.7245 13.7557 21.8183 14.3676 21.8183 15.0017C21.8183 16.2426 21.4825 17.4017 20.9029 18.404L20.9063 18.4108L14.2791 30.0017H14.4768L20.9694 18.6426L20.966 18.6358Z" fill="white" fill-opacity="0.2"/>
</g>
<mask id="mask16_23_2361" style="mask-type:luminance" maskUnits="userSpaceOnUse" x="0" y="0" width="30" height="30">
<path d="M15 30C23.2843 30 30 23.2843 30 15C30 6.71573 23.2843 0 15 0C6.71573 0 0 6.71573 0 15C0 23.2843 6.71573 30 15 30Z" fill="white"/>
</mask>
<g mask="url(#mask16_23_2361)">
<path d="M15 0.170455C23.2551 0.170455 29.9523 6.84034 29.9983 15.0852C29.9983 15.0563 30 15.029 30 15C30 6.71591 23.2841 0 15 0C6.71591 0 0 6.71591 0 15C0 15.029 0.00170458 15.0563 0.00170458 15.0852C0.0477273 6.84034 6.74489 0.170455 15 0.170455Z" fill="white" fill-opacity="0.2"/>
<path d="M15 29.8297C23.2551 29.8297 29.9523 23.1598 29.9983 14.9149C29.9983 14.9439 30 14.9712 30 15.0001C30 23.2842 23.2841 30.0001 15 30.0001C6.71591 30.0001 0 23.2842 0 15.0001C0 14.9712 0.00170458 14.9439 0.00170458 14.9149C0.0477273 23.1598 6.74489 29.8297 15 29.8297Z" fill="#3E2723" fill-opacity="0.15"/>
</g>
<path d="M15 30C23.2843 30 30 23.2843 30 15C30 6.71573 23.2843 0 15 0C6.71573 0 0 6.71573 0 15C0 23.2843 6.71573 30 15 30Z" fill="url(#paint9_radial_23_2361)"/>
<defs>
<linearGradient id="paint0_linear_23_2361" x1="3.63684" y1="11.424" x2="12.5857" y2="6.1967" gradientUnits="userSpaceOnUse">
<stop stop-color="#A52714" stop-opacity="0.6"/>
<stop offset="0.66" stop-color="#A52714" stop-opacity="0"/>
</linearGradient>
<linearGradient id="paint1_linear_23_2361" x1="17.5347" y1="26.6761" x2="7.59171" y2="20.8517" gradientUnits="userSpaceOnUse">
<stop stop-color="#055524" stop-opacity="0.4"/>
<stop offset="0.33" stop-color="#055524" stop-opacity="0"/>
</linearGradient>
<linearGradient id="paint2_linear_23_2361" x1="19.408" y1="7.12575" x2="21.912" y2="18.0904" gradientUnits="userSpaceOnUse">
<stop stop-color="#EA6100" stop-opacity="0.3"/>
<stop offset="0.66" stop-color="#EA6100" stop-opacity="0"/>
</linearGradient>
<linearGradient id="paint3_linear_23_2361" x1="19.408" y1="7.12575" x2="21.912" y2="18.0904" gradientUnits="userSpaceOnUse">
<stop stop-color="#EA6100" stop-opacity="0.3"/>
<stop offset="0.66" stop-color="#EA6100" stop-opacity="0"/>
</linearGradient>
<linearGradient id="paint4_linear_23_2361" x1="3.63684" y1="11.424" x2="12.5857" y2="6.1967" gradientUnits="userSpaceOnUse">
<stop stop-color="#A52714" stop-opacity="0.6"/>
<stop offset="0.66" stop-color="#A52714" stop-opacity="0"/>
</linearGradient>
<radialGradient id="paint5_radial_23_2361" cx="0" cy="0" r="1" gradientUnits="userSpaceOnUse" gradientTransform="translate(14.3489 8.17302) scale(14.3315 14.3315)">
<stop stop-color="#3E2723" stop-opacity="0.2"/>
<stop offset="1" stop-color="#3E2723" stop-opacity="0"/>
</radialGradient>
<linearGradient id="paint6_linear_23_2361" x1="17.5347" y1="26.6761" x2="7.59171" y2="20.8517" gradientUnits="userSpaceOnUse">
<stop stop-color="#055524" stop-opacity="0.4"/>
<stop offset="0.33" stop-color="#055524" stop-opacity="0"/>
</linearGradient>
<radialGradient id="paint7_radial_23_2361" cx="0" cy="0" r="1" gradientUnits="userSpaceOnUse" gradientTransform="translate(2.36576 6.90683) scale(13.303 13.303)">
<stop stop-color="#3E2723" stop-opacity="0.2"/>
<stop offset="1" stop-color="#3E2723" stop-opacity="0"/>
</radialGradient>
<radialGradient id="paint8_radial_23_2361" cx="0" cy="0" r="1" gradientUnits="userSpaceOnUse" gradientTransform="translate(14.9728 15.0236) scale(14.9778 14.9778)">
<stop stop-color="#263238" stop-opacity="0.2"/>
<stop offset="1" stop-color="#263238" stop-opacity="0"/>
</radialGradient>
<radialGradient id="paint9_radial_23_2361" cx="0" cy="0" r="1" gradientUnits="userSpaceOnUse" gradientTransform="translate(4.48057 4.09329) scale(30.1278)">
<stop stop-color="white" stop-opacity="0.1"/>
<stop offset="1" stop-color="white" stop-opacity="0"/>
</radialGradient>
</defs>
</svg>
