<svg width="30" height="30" viewBox="0 0 30 30" fill="none" xmlns="http://www.w3.org/2000/svg">
<path d="M27.0756 22.3257C26.6757 22.5349 26.2632 22.7192 25.8406 22.8776C24.4954 23.3809 23.0703 23.6373 21.634 23.6345C16.0893 23.6345 11.2594 19.8207 11.2594 14.9266C11.2665 14.2701 11.4487 13.6275 11.7871 13.065C12.1255 12.5025 12.608 12.0405 13.1846 11.7267C8.16953 11.9376 6.88062 17.1633 6.88062 20.2249C6.88062 28.8813 14.859 29.7589 16.578 29.7589C17.5048 29.7589 18.9027 29.4894 19.7417 29.2246L19.8952 29.1731C23.1236 28.057 25.8759 25.8752 27.699 22.9866C27.7548 22.8986 27.7797 22.7945 27.7698 22.6908C27.7599 22.5871 27.7157 22.4896 27.6442 22.4138C27.5727 22.338 27.478 22.2882 27.375 22.2723C27.272 22.2563 27.1667 22.2751 27.0756 22.3257Z" fill="url(#paint0_linear_23_2453)"/>
<path opacity="0.35" d="M27.0756 22.3257C26.6757 22.5349 26.2632 22.7192 25.8406 22.8776C24.4954 23.3809 23.0703 23.6373 21.634 23.6345C16.0893 23.6345 11.2594 19.8207 11.2594 14.9266C11.2665 14.2701 11.4487 13.6275 11.7871 13.065C12.1255 12.5025 12.608 12.0405 13.1846 11.7267C8.16953 11.9376 6.88062 17.1633 6.88062 20.2249C6.88062 28.8813 14.859 29.7589 16.578 29.7589C17.5048 29.7589 18.9027 29.4894 19.7417 29.2246L19.8952 29.1731C23.1236 28.057 25.8759 25.8752 27.699 22.9866C27.7548 22.8986 27.7797 22.7945 27.7698 22.6908C27.7599 22.5871 27.7157 22.4896 27.6442 22.4138C27.5727 22.338 27.478 22.2882 27.375 22.2723C27.272 22.2563 27.1667 22.2751 27.0756 22.3257Z" fill="url(#paint1_radial_23_2453)"/>
<path d="M12.3896 28.2881C11.3444 27.6395 10.4386 26.7895 9.72492 25.7877C8.91144 24.6732 8.35166 23.3943 8.08483 22.0405C7.81799 20.6868 7.85058 19.2912 8.18029 17.9514C8.51 16.6116 9.12886 15.3602 9.99346 14.2849C10.8581 13.2096 11.9475 12.3365 13.1852 11.7268C13.5508 11.5545 14.1754 11.2428 15.0062 11.2581C15.5915 11.2623 16.1679 11.4021 16.6902 11.6664C17.2125 11.9306 17.6665 12.3123 18.0166 12.7813C18.4898 13.4131 18.7507 14.1785 18.7618 14.9678C18.7618 14.9432 21.628 5.64075 9.38744 5.64075C4.24325 5.64075 0.0130629 10.5222 0.0130629 14.8049C-0.00722807 17.0704 0.477532 19.312 1.43211 21.3667C2.99216 24.6951 5.72025 27.3347 9.09835 28.7844C12.4764 30.234 16.2693 30.3927 19.7567 29.2302C18.5356 29.6152 17.2456 29.7308 15.9755 29.5689C14.7055 29.4071 13.4856 28.9717 12.4001 28.2928L12.3896 28.2881Z" fill="url(#paint2_linear_23_2453)"/>
<path opacity="0.41" d="M12.3896 28.2881C11.3444 27.6395 10.4386 26.7895 9.72492 25.7877C8.91144 24.6732 8.35166 23.3943 8.08483 22.0405C7.81799 20.6868 7.85058 19.2912 8.18029 17.9514C8.51 16.6116 9.12886 15.3602 9.99346 14.2849C10.8581 13.2096 11.9475 12.3365 13.1852 11.7268C13.5508 11.5545 14.1754 11.2428 15.0062 11.2581C15.5915 11.2623 16.1679 11.4021 16.6902 11.6664C17.2125 11.9306 17.6665 12.3123 18.0166 12.7813C18.4898 13.4131 18.7507 14.1785 18.7618 14.9678C18.7618 14.9432 21.628 5.64075 9.38744 5.64075C4.24325 5.64075 0.0130629 10.5222 0.0130629 14.8049C-0.00722807 17.0704 0.477532 19.312 1.43211 21.3667C2.99216 24.6951 5.72025 27.3347 9.09835 28.7844C12.4764 30.234 16.2693 30.3927 19.7567 29.2302C18.5356 29.6152 17.2456 29.7308 15.9755 29.5689C14.7055 29.4071 13.4856 28.9717 12.4001 28.2928L12.3896 28.2881Z" fill="url(#paint3_radial_23_2453)"/>
<path d="M17.85 17.4425C17.7551 17.5656 17.4633 17.7355 17.4633 18.1057C17.4633 18.4116 17.6625 18.7057 18.0164 18.9529C19.7014 20.1246 22.8782 19.97 22.8864 19.97C24.135 19.967 25.3599 19.6291 26.4334 18.9916C27.5164 18.3593 28.4152 17.4548 29.0407 16.3679C29.6662 15.281 29.9966 14.0494 29.9992 12.7954C30.0297 10.1695 29.0618 8.42364 28.6704 7.65029C26.1873 2.79343 20.8275 7.34262e-08 14.999 7.34262e-08C11.0573 -0.000389671 7.27386 1.5508 4.46699 4.31806C1.66012 7.08533 0.0554303 10.8462 0 14.7874C0.0562463 10.5058 4.31221 7.04802 9.37438 7.04802C9.78451 7.04802 12.1234 7.08786 14.2959 8.22796C16.2106 9.23331 17.2137 10.4472 17.9109 11.6506C18.6351 12.9009 18.764 14.4804 18.764 15.1096C18.764 15.7388 18.4429 16.6715 17.85 17.4425Z" fill="url(#paint4_radial_23_2453)"/>
<path d="M17.85 17.4425C17.7551 17.5656 17.4633 17.7355 17.4633 18.1057C17.4633 18.4116 17.6625 18.7057 18.0164 18.9529C19.7014 20.1246 22.8782 19.97 22.8864 19.97C24.135 19.967 25.3599 19.6291 26.4334 18.9916C27.5164 18.3593 28.4152 17.4548 29.0407 16.3679C29.6662 15.281 29.9966 14.0494 29.9992 12.7954C30.0297 10.1695 29.0618 8.42364 28.6704 7.65029C26.1873 2.79343 20.8275 7.34262e-08 14.999 7.34262e-08C11.0573 -0.000389671 7.27386 1.5508 4.46699 4.31806C1.66012 7.08533 0.0554303 10.8462 0 14.7874C0.0562463 10.5058 4.31221 7.04802 9.37438 7.04802C9.78451 7.04802 12.1234 7.08786 14.2959 8.22796C16.2106 9.23331 17.2137 10.4472 17.9109 11.6506C18.6351 12.9009 18.764 14.4804 18.764 15.1096C18.764 15.7388 18.4429 16.6715 17.85 17.4425Z" fill="url(#paint5_radial_23_2453)"/>
<defs>
<linearGradient id="paint0_linear_23_2453" x1="6.88062" y1="20.7451" x2="27.7775" y2="20.7451" gradientUnits="userSpaceOnUse">
<stop stop-color="#0C59A4"/>
<stop offset="1" stop-color="#114A8B"/>
</linearGradient>
<radialGradient id="paint1_radial_23_2453" cx="0" cy="0" r="1" gradientUnits="userSpaceOnUse" gradientTransform="translate(18.4223 20.9098) scale(11.1761 10.6168)">
<stop offset="0.72" stop-opacity="0"/>
<stop offset="0.95" stop-opacity="0.53"/>
<stop offset="1"/>
</radialGradient>
<linearGradient id="paint2_linear_23_2453" x1="17.8982" y1="11.6811" x2="4.84625" y2="25.8984" gradientUnits="userSpaceOnUse">
<stop stop-color="#1B9DE2"/>
<stop offset="0.16" stop-color="#1595DF"/>
<stop offset="0.67" stop-color="#0680D7"/>
<stop offset="1" stop-color="#0078D4"/>
</linearGradient>
<radialGradient id="paint3_radial_23_2453" cx="0" cy="0" r="1" gradientUnits="userSpaceOnUse" gradientTransform="translate(8.27242 23.3186) rotate(-81.3839) scale(16.8058 13.5781)">
<stop offset="0.76" stop-opacity="0"/>
<stop offset="0.95" stop-opacity="0.5"/>
<stop offset="1"/>
</radialGradient>
<radialGradient id="paint4_radial_23_2453" cx="0" cy="0" r="1" gradientUnits="userSpaceOnUse" gradientTransform="translate(3.03056 5.55133) rotate(92.2907) scale(23.7385 50.5606)">
<stop stop-color="#35C1F1"/>
<stop offset="0.11" stop-color="#34C1ED"/>
<stop offset="0.23" stop-color="#2FC2DF"/>
<stop offset="0.31" stop-color="#2BC3D2"/>
<stop offset="0.67" stop-color="#36C752"/>
</radialGradient>
<radialGradient id="paint5_radial_23_2453" cx="0" cy="0" r="1" gradientUnits="userSpaceOnUse" gradientTransform="translate(28.1316 9.06999) rotate(73.739) scale(11.4058 9.27555)">
<stop stop-color="#66EB6E"/>
<stop offset="1" stop-color="#66EB6E" stop-opacity="0"/>
</radialGradient>
</defs>
</svg>
